%
M48
M72
T01C0.00800
T02C0.01000
T03C0.01181
T04C0.01969
T05C0.02362
T06C0.04000
T07C0.05000
T08C0.11811
%
T01
X348484Y68701
X355670Y50053
X365562Y50307
X414054Y33629
X365709Y230724
X362559Y230724
X362559Y233874
X359409Y233874
X356260Y233874
X353307Y230921
X351142Y233283
X347992Y234268
X350354Y236827
X347795Y239189
X347992Y242339
X350354Y244307
X347598Y247654
X356260Y248244
X359409Y248244
X362559Y248244
X365709Y248244
X365709Y240173
X365709Y233874
X355669Y238795
X348976Y230724
T02
X358819Y220882
X365118Y214386
X370630Y215961
X371024Y219307
X367087Y206906
X358819Y205528
X352520Y205528
X339134Y208874
X324685Y218598
X321260Y215528
X305276Y219307
X303110Y232496
X302520Y188992
X311181Y183677
X311378Y179543
X316890Y179543
X316890Y183677
X332835Y177102
X324173Y168520
X298189Y178362
X340118Y120488
X370433Y84071
X380472Y84071
X380669Y75016
X370433Y75016
X396614Y93992
X412756Y207890
X409606Y216748
X404291Y215370
X404291Y219307
X404291Y223244
X390315Y222260
X385787Y221866
X383425Y241354
X399173Y256709
X402717Y255724
X399173Y262417
X399173Y269307
X358228Y241551
X232833Y347721
T03
X185000Y384465
X179685Y384858
X180079Y380724
X153504Y384661
X105472Y300803
X169213Y294780
X195433Y254150
X114528Y221079
X176339Y166748
X190906Y172654
X199764Y170882
X257717Y164504
X257795Y183047
X304008Y183000
X325787Y195961
X327520Y200016
X328307Y191551
X332638Y189976
X336969Y216551
X319449Y223638
X316890Y221079
X332047Y236039
X332047Y239780
X337559Y248047
X343858Y258874
X329882Y264780
X333346Y270843
X345906Y277299
X367480Y286236
X377323Y289386
X376142Y293520
X376535Y297457
X391299Y299819
X394449Y302378
X393465Y306118
X393268Y311433
X405866Y325606
X404882Y334661
X404882Y338795
X416496Y338992
X416496Y342732
X416496Y346472
X391496Y343913
X391496Y339976
X384016Y331709
X379291Y337220
X415512Y313795
X415512Y310055
X413346Y306709
X415709Y303362
X417283Y285646
X419449Y275409
X428701Y271866
X419646Y265173
X407441Y262614
X407638Y269307
X374961Y241354
X381654Y222063
X362165Y222457
X373976Y204346
X412953Y203677
X420433Y204740
X428701Y208087
X425354Y195567
X315945Y273598
X129213Y141000
X124449Y116000
X72992Y138205
X58740Y130252
T04
X87165Y114780
X96417Y114976
X96417Y106906
X87165Y106709
X88937Y95882
X97008Y95882
X96811Y86039
X88740Y86039
X88740Y76984
X96811Y76984
X79291Y76984
X79291Y86039
X79488Y95882
X69055Y95882
X68858Y86039
X68858Y76984
X57835Y76984
X57835Y86039
X58031Y95882
X108228Y95882
X160000Y193126
X171024Y193126
X181457Y193126
X190906Y193126
X198976Y193126
X198976Y202181
X190906Y202181
X181457Y202181
X181654Y212024
X191102Y212024
X199173Y212024
X210394Y212024
X210394Y202181
X221417Y202181
X221417Y212024
X231850Y212024
X241299Y212024
X249370Y212024
X249370Y202181
X241299Y202181
X231850Y202181
X171024Y202181
X171220Y212024
X160197Y212024
X160000Y202181
X177717Y264780
X185787Y264780
X185591Y274031
X177520Y274031
X177913Y301591
X185984Y301591
X185787Y310843
X177717Y310843
X168268Y327181
X229685Y278756
X229685Y269701
X240118Y269701
X240118Y278756
X249567Y278756
X257638Y278756
X257638Y269701
X249567Y269701
X249764Y288598
X257835Y288598
X269055Y288598
X269055Y278756
X269252Y269504
X280276Y269504
X280079Y278756
X280079Y288598
X290512Y288598
X299961Y288598
X308031Y288598
X308031Y278756
X299961Y278756
X290512Y278756
X290709Y269504
X300157Y269504
X308228Y269504
X310591Y304150
X300157Y304150
X290709Y304150
X282638Y304150
X282835Y313992
X290906Y313992
X290906Y323047
X282835Y323047
X285000Y335646
X276929Y335646
X276929Y345488
X285000Y345488
X284803Y354740
X276732Y354740
X276535Y364386
X284606Y364386
X294055Y364386
X294055Y374228
X293858Y383480
X284409Y383480
X276339Y383480
X276535Y374228
X284606Y374228
X294252Y354740
X294449Y345488
X294449Y335646
X300354Y323047
X300354Y313992
X310787Y313992
X310787Y323047
X321811Y323047
X321811Y313992
X321614Y304150
X218661Y269701
X356063Y180134
X364134Y180134
X363937Y170291
X355866Y170291
X355079Y152575
X355079Y144504
X364921Y144307
X364921Y152378
X363740Y123244
X363740Y115173
X353898Y115370
X353898Y123441
X311969Y99819
X303898Y99819
X304094Y90567
X312165Y90567
X312362Y76000
X304291Y76000
X304488Y66748
X312559Y66748
X308819Y54543
X316890Y54543
X317087Y45291
X309016Y45291
X296811Y45488
X288740Y45488
X288543Y54740
X296614Y54740
X296614Y31512
X288543Y31512
X288740Y22260
X296811Y22260
X308819Y22260
X316890Y22260
X316693Y31512
X308622Y31512
X433622Y114976
X441693Y114976
X441890Y124819
X433819Y124819
X459213Y124228
X459213Y116157
X469055Y115961
X469055Y124031
X468661Y144701
X477717Y144701
X477717Y155724
X468661Y155724
X458819Y155921
X468661Y166157
X477717Y166157
X477717Y175606
X477717Y183677
X468661Y183677
X468661Y175606
X458819Y175803
X458819Y183874
X458819Y195094
X468661Y195094
X477913Y195291
X477913Y206315
X468661Y206118
X458819Y206118
X458819Y216551
X468661Y216551
X477913Y216748
X477913Y226197
X477913Y234268
X468661Y234071
X468661Y226000
X458819Y226000
X458819Y234071
X458819Y166354
X458819Y144898
X54488Y284268
X54488Y294110
X46417Y294110
X46220Y303362
T05
X139252Y301079
X139252Y311079
X149252Y311079
X149252Y301079
X149252Y291079
X139252Y291079
T06
X200315Y301000
X210315Y301000
X216745Y342869
X248484Y341890
X332720Y364000
X342720Y364000
X352720Y364000
X362720Y364000
X362720Y374000
X352720Y374000
X342720Y374000
X332720Y374000
X337244Y314622
X347244Y314622
X357244Y314622
X460984Y298000
X470984Y298000
X470984Y288000
X460984Y288000
X460984Y278000
X470984Y278000
X470984Y268000
X460984Y268000
X445039Y153992
X457443Y88761
X420217Y89563
X348484Y94000
X321953Y120720
X311953Y120720
X280559Y135000
X270559Y135000
X270484Y103500
X280484Y103500
X280984Y68000
X270984Y68000
X270783Y31142
X173469Y133921
X208184Y162100
X208184Y179900
X233784Y179900
X233784Y162100
X231984Y135000
X221984Y135000
X147756Y179346
X84252Y172417
X84252Y208795
X55000Y221748
X45000Y221748
X45000Y231748
X55000Y231748
X55000Y241748
X45000Y241748
X45000Y251748
X55000Y251748
X78346Y285094
X78346Y311709
X87669Y345728
X97669Y345728
X208716Y254231
X208716Y236431
X234316Y236431
X234316Y254231
X145193Y239083
T07
X219984Y28500
X239984Y28500
T08
X60984Y26000
X465984Y28000
X465984Y371000
X60984Y371000
M30
