G75*
%MOIN*%
%OFA0B0*%
%FSLAX25Y25*%
%IPPOS*%
%LPD*%
%AMOC8*
5,1,8,0,0,1.08239X$1,22.5*
%
%ADD10C,0.10800*%
%ADD11C,0.08200*%
%ADD12C,0.12611*%
%ADD13OC8,0.06800*%
%ADD14C,0.07874*%
%ADD15C,0.05162*%
%ADD16C,0.08300*%
%ADD17C,0.03200*%
%ADD18C,0.03581*%
%ADD19C,0.03400*%
%ADD20C,0.04369*%
D10*
X0173469Y0133921D03*
X0147756Y0179346D03*
X0084252Y0172417D03*
X0084252Y0208795D03*
X0145193Y0239083D03*
X0078346Y0285094D03*
X0078346Y0311709D03*
X0216745Y0342869D03*
X0248484Y0341890D03*
X0445039Y0153992D03*
X0457443Y0088761D03*
X0420217Y0089563D03*
X0348484Y0094000D03*
X0270783Y0031142D03*
D11*
X0270984Y0068000D03*
X0280984Y0068000D03*
X0280484Y0103500D03*
X0270484Y0103500D03*
X0270559Y0135000D03*
X0280559Y0135000D03*
X0311953Y0120720D03*
X0321953Y0120720D03*
X0231984Y0135000D03*
X0221984Y0135000D03*
X0233784Y0162100D03*
X0233784Y0179900D03*
X0208184Y0179900D03*
X0208184Y0162100D03*
X0208716Y0236431D03*
X0208716Y0254231D03*
X0234316Y0254231D03*
X0234316Y0236431D03*
X0210315Y0301000D03*
X0200315Y0301000D03*
X0097669Y0345728D03*
X0087669Y0345728D03*
X0337244Y0314622D03*
X0347244Y0314622D03*
X0357244Y0314622D03*
D12*
X0060984Y0026000D03*
X0465984Y0028000D03*
X0465984Y0371000D03*
X0060984Y0371000D03*
D13*
X0055000Y0251748D03*
X0055000Y0241748D03*
X0045000Y0241748D03*
X0045000Y0251748D03*
X0045000Y0231748D03*
X0045000Y0221748D03*
X0055000Y0221748D03*
X0055000Y0231748D03*
X0332720Y0364000D03*
X0342720Y0364000D03*
X0352720Y0364000D03*
X0362720Y0364000D03*
X0362720Y0374000D03*
X0352720Y0374000D03*
X0342720Y0374000D03*
X0332720Y0374000D03*
X0460984Y0298000D03*
X0470984Y0298000D03*
X0470984Y0288000D03*
X0460984Y0288000D03*
X0460984Y0278000D03*
X0470984Y0278000D03*
X0470984Y0268000D03*
X0460984Y0268000D03*
D14*
X0468484Y0063000D03*
X0051626Y0336453D03*
D15*
X0139252Y0311079D03*
X0149252Y0311079D03*
X0149252Y0301079D03*
X0139252Y0301079D03*
X0139252Y0291079D03*
X0149252Y0291079D03*
D16*
X0219984Y0032250D02*
X0219984Y0024750D01*
X0239984Y0024750D02*
X0239984Y0032250D01*
D17*
X0348484Y0068701D03*
X0355670Y0050053D03*
X0365562Y0050307D03*
X0414054Y0033629D03*
X0365709Y0230724D03*
X0362559Y0230724D03*
X0362559Y0233874D03*
X0359409Y0233874D03*
X0356260Y0233874D03*
X0353307Y0230921D03*
X0351142Y0233283D03*
X0347992Y0234268D03*
X0350354Y0236827D03*
X0347795Y0239189D03*
X0347992Y0242339D03*
X0350354Y0244307D03*
X0347598Y0247654D03*
X0356260Y0248244D03*
X0359409Y0248244D03*
X0362559Y0248244D03*
X0365709Y0248244D03*
X0365709Y0240173D03*
X0365709Y0233874D03*
X0355669Y0238795D03*
X0348976Y0230724D03*
D18*
X0362165Y0222457D03*
X0381654Y0222063D03*
X0374961Y0241354D03*
X0407441Y0262614D03*
X0407638Y0269307D03*
X0419646Y0265173D03*
X0419449Y0275409D03*
X0428701Y0271866D03*
X0417283Y0285646D03*
X0415709Y0303362D03*
X0413346Y0306709D03*
X0415512Y0310055D03*
X0415512Y0313795D03*
X0405866Y0325606D03*
X0404882Y0334661D03*
X0404882Y0338795D03*
X0416496Y0338992D03*
X0416496Y0342732D03*
X0416496Y0346472D03*
X0391496Y0343913D03*
X0391496Y0339976D03*
X0384016Y0331709D03*
X0379291Y0337220D03*
X0393268Y0311433D03*
X0393465Y0306118D03*
X0394449Y0302378D03*
X0391299Y0299819D03*
X0376535Y0297457D03*
X0376142Y0293520D03*
X0377323Y0289386D03*
X0367480Y0286236D03*
X0345906Y0277299D03*
X0333346Y0270843D03*
X0329882Y0264780D03*
X0343858Y0258874D03*
X0337559Y0248047D03*
X0332047Y0239780D03*
X0332047Y0236039D03*
X0319449Y0223638D03*
X0316890Y0221079D03*
X0336969Y0216551D03*
X0327520Y0200016D03*
X0325787Y0195961D03*
X0328307Y0191551D03*
X0332638Y0189976D03*
X0304008Y0183000D03*
X0257795Y0183047D03*
X0257717Y0164504D03*
X0199764Y0170882D03*
X0190906Y0172654D03*
X0176339Y0166748D03*
X0129213Y0141000D03*
X0124449Y0116000D03*
X0072992Y0138205D03*
X0058740Y0130252D03*
X0114528Y0221079D03*
X0195433Y0254150D03*
X0169213Y0294780D03*
X0105472Y0300803D03*
X0180079Y0380724D03*
X0179685Y0384858D03*
X0185000Y0384465D03*
X0153504Y0384661D03*
X0315945Y0273598D03*
X0373976Y0204346D03*
X0412953Y0203677D03*
X0420433Y0204740D03*
X0428701Y0208087D03*
X0425354Y0195567D03*
D19*
X0412756Y0207890D03*
X0409606Y0216748D03*
X0404291Y0215370D03*
X0404291Y0219307D03*
X0404291Y0223244D03*
X0390315Y0222260D03*
X0385787Y0221866D03*
X0371024Y0219307D03*
X0370630Y0215961D03*
X0365118Y0214386D03*
X0367087Y0206906D03*
X0358819Y0205528D03*
X0352520Y0205528D03*
X0339134Y0208874D03*
X0324685Y0218598D03*
X0321260Y0215528D03*
X0305276Y0219307D03*
X0303110Y0232496D03*
X0302520Y0188992D03*
X0311181Y0183677D03*
X0311378Y0179543D03*
X0316890Y0179543D03*
X0316890Y0183677D03*
X0332835Y0177102D03*
X0324173Y0168520D03*
X0298189Y0178362D03*
X0358819Y0220882D03*
X0383425Y0241354D03*
X0399173Y0256709D03*
X0402717Y0255724D03*
X0399173Y0262417D03*
X0399173Y0269307D03*
X0358228Y0241551D03*
X0232833Y0347721D03*
X0340118Y0120488D03*
X0370433Y0084071D03*
X0380472Y0084071D03*
X0380669Y0075016D03*
X0370433Y0075016D03*
X0396614Y0093992D03*
D20*
X0363740Y0115173D03*
X0363740Y0123244D03*
X0353898Y0123441D03*
X0353898Y0115370D03*
X0355079Y0144504D03*
X0355079Y0152575D03*
X0364921Y0152378D03*
X0364921Y0144307D03*
X0363937Y0170291D03*
X0355866Y0170291D03*
X0356063Y0180134D03*
X0364134Y0180134D03*
X0433819Y0124819D03*
X0441890Y0124819D03*
X0441693Y0114976D03*
X0433622Y0114976D03*
X0459213Y0116157D03*
X0459213Y0124228D03*
X0469055Y0124031D03*
X0469055Y0115961D03*
X0468661Y0144701D03*
X0477717Y0144701D03*
X0477717Y0155724D03*
X0468661Y0155724D03*
X0458819Y0155921D03*
X0468661Y0166157D03*
X0477717Y0166157D03*
X0477717Y0175606D03*
X0477717Y0183677D03*
X0468661Y0183677D03*
X0468661Y0175606D03*
X0458819Y0175803D03*
X0458819Y0183874D03*
X0458819Y0195094D03*
X0468661Y0195094D03*
X0477913Y0195291D03*
X0477913Y0206315D03*
X0468661Y0206118D03*
X0458819Y0206118D03*
X0458819Y0216551D03*
X0468661Y0216551D03*
X0477913Y0216748D03*
X0477913Y0226197D03*
X0477913Y0234268D03*
X0468661Y0234071D03*
X0468661Y0226000D03*
X0458819Y0226000D03*
X0458819Y0234071D03*
X0458819Y0166354D03*
X0458819Y0144898D03*
X0316890Y0054543D03*
X0308819Y0054543D03*
X0309016Y0045291D03*
X0317087Y0045291D03*
X0316693Y0031512D03*
X0308622Y0031512D03*
X0308819Y0022260D03*
X0316890Y0022260D03*
X0296811Y0022260D03*
X0288740Y0022260D03*
X0288543Y0031512D03*
X0296614Y0031512D03*
X0296811Y0045488D03*
X0288740Y0045488D03*
X0288543Y0054740D03*
X0296614Y0054740D03*
X0304488Y0066748D03*
X0312559Y0066748D03*
X0312362Y0076000D03*
X0304291Y0076000D03*
X0304094Y0090567D03*
X0312165Y0090567D03*
X0311969Y0099819D03*
X0303898Y0099819D03*
X0198976Y0193126D03*
X0190906Y0193126D03*
X0181457Y0193126D03*
X0171024Y0193126D03*
X0160000Y0193126D03*
X0160000Y0202181D03*
X0160197Y0212024D03*
X0171220Y0212024D03*
X0171024Y0202181D03*
X0181457Y0202181D03*
X0190906Y0202181D03*
X0198976Y0202181D03*
X0199173Y0212024D03*
X0191102Y0212024D03*
X0181654Y0212024D03*
X0210394Y0212024D03*
X0210394Y0202181D03*
X0221417Y0202181D03*
X0221417Y0212024D03*
X0231850Y0212024D03*
X0241299Y0212024D03*
X0249370Y0212024D03*
X0249370Y0202181D03*
X0241299Y0202181D03*
X0231850Y0202181D03*
X0185787Y0264780D03*
X0177717Y0264780D03*
X0177520Y0274031D03*
X0185591Y0274031D03*
X0185984Y0301591D03*
X0177913Y0301591D03*
X0177717Y0310843D03*
X0185787Y0310843D03*
X0168268Y0327181D03*
X0229685Y0278756D03*
X0229685Y0269701D03*
X0240118Y0269701D03*
X0240118Y0278756D03*
X0249567Y0278756D03*
X0257638Y0278756D03*
X0257638Y0269701D03*
X0249567Y0269701D03*
X0249764Y0288598D03*
X0257835Y0288598D03*
X0269055Y0288598D03*
X0269055Y0278756D03*
X0269252Y0269504D03*
X0280276Y0269504D03*
X0280079Y0278756D03*
X0280079Y0288598D03*
X0290512Y0288598D03*
X0299961Y0288598D03*
X0308031Y0288598D03*
X0308031Y0278756D03*
X0299961Y0278756D03*
X0290512Y0278756D03*
X0290709Y0269504D03*
X0300157Y0269504D03*
X0308228Y0269504D03*
X0310591Y0304150D03*
X0300157Y0304150D03*
X0290709Y0304150D03*
X0282638Y0304150D03*
X0282835Y0313992D03*
X0290906Y0313992D03*
X0290906Y0323047D03*
X0282835Y0323047D03*
X0285000Y0335646D03*
X0276929Y0335646D03*
X0276929Y0345488D03*
X0285000Y0345488D03*
X0284803Y0354740D03*
X0276732Y0354740D03*
X0276535Y0364386D03*
X0284606Y0364386D03*
X0294055Y0364386D03*
X0294055Y0374228D03*
X0293858Y0383480D03*
X0284409Y0383480D03*
X0276339Y0383480D03*
X0276535Y0374228D03*
X0284606Y0374228D03*
X0294252Y0354740D03*
X0294449Y0345488D03*
X0294449Y0335646D03*
X0300354Y0323047D03*
X0300354Y0313992D03*
X0310787Y0313992D03*
X0310787Y0323047D03*
X0321811Y0323047D03*
X0321811Y0313992D03*
X0321614Y0304150D03*
X0218661Y0269701D03*
X0054488Y0284268D03*
X0054488Y0294110D03*
X0046417Y0294110D03*
X0046220Y0303362D03*
X0087165Y0114780D03*
X0096417Y0114976D03*
X0096417Y0106906D03*
X0087165Y0106709D03*
X0088937Y0095882D03*
X0097008Y0095882D03*
X0096811Y0086039D03*
X0088740Y0086039D03*
X0088740Y0076984D03*
X0096811Y0076984D03*
X0079291Y0076984D03*
X0079291Y0086039D03*
X0079488Y0095882D03*
X0069055Y0095882D03*
X0068858Y0086039D03*
X0068858Y0076984D03*
X0057835Y0076984D03*
X0057835Y0086039D03*
X0058031Y0095882D03*
X0108228Y0095882D03*
M02*
