G75*
%MOIN*%
%OFA0B0*%
%FSLAX25Y25*%
%IPPOS*%
%LPD*%
%AMOC8*
5,1,8,0,0,1.08239X$1,22.5*
%
%ADD10C,0.00000*%
D10*
X0035984Y0001000D02*
X0035984Y0394701D01*
X0490906Y0394701D01*
X0490906Y0001000D01*
X0035984Y0001000D01*
X0055078Y0026000D02*
X0055080Y0026153D01*
X0055086Y0026307D01*
X0055096Y0026460D01*
X0055110Y0026612D01*
X0055128Y0026765D01*
X0055150Y0026916D01*
X0055175Y0027067D01*
X0055205Y0027218D01*
X0055239Y0027368D01*
X0055276Y0027516D01*
X0055317Y0027664D01*
X0055362Y0027810D01*
X0055411Y0027956D01*
X0055464Y0028100D01*
X0055520Y0028242D01*
X0055580Y0028383D01*
X0055644Y0028523D01*
X0055711Y0028661D01*
X0055782Y0028797D01*
X0055857Y0028931D01*
X0055934Y0029063D01*
X0056016Y0029193D01*
X0056100Y0029321D01*
X0056188Y0029447D01*
X0056279Y0029570D01*
X0056373Y0029691D01*
X0056471Y0029809D01*
X0056571Y0029925D01*
X0056675Y0030038D01*
X0056781Y0030149D01*
X0056890Y0030257D01*
X0057002Y0030362D01*
X0057116Y0030463D01*
X0057234Y0030562D01*
X0057353Y0030658D01*
X0057475Y0030751D01*
X0057600Y0030840D01*
X0057727Y0030927D01*
X0057856Y0031009D01*
X0057987Y0031089D01*
X0058120Y0031165D01*
X0058255Y0031238D01*
X0058392Y0031307D01*
X0058531Y0031372D01*
X0058671Y0031434D01*
X0058813Y0031492D01*
X0058956Y0031547D01*
X0059101Y0031598D01*
X0059247Y0031645D01*
X0059394Y0031688D01*
X0059542Y0031727D01*
X0059691Y0031763D01*
X0059841Y0031794D01*
X0059992Y0031822D01*
X0060143Y0031846D01*
X0060296Y0031866D01*
X0060448Y0031882D01*
X0060601Y0031894D01*
X0060754Y0031902D01*
X0060907Y0031906D01*
X0061061Y0031906D01*
X0061214Y0031902D01*
X0061367Y0031894D01*
X0061520Y0031882D01*
X0061672Y0031866D01*
X0061825Y0031846D01*
X0061976Y0031822D01*
X0062127Y0031794D01*
X0062277Y0031763D01*
X0062426Y0031727D01*
X0062574Y0031688D01*
X0062721Y0031645D01*
X0062867Y0031598D01*
X0063012Y0031547D01*
X0063155Y0031492D01*
X0063297Y0031434D01*
X0063437Y0031372D01*
X0063576Y0031307D01*
X0063713Y0031238D01*
X0063848Y0031165D01*
X0063981Y0031089D01*
X0064112Y0031009D01*
X0064241Y0030927D01*
X0064368Y0030840D01*
X0064493Y0030751D01*
X0064615Y0030658D01*
X0064734Y0030562D01*
X0064852Y0030463D01*
X0064966Y0030362D01*
X0065078Y0030257D01*
X0065187Y0030149D01*
X0065293Y0030038D01*
X0065397Y0029925D01*
X0065497Y0029809D01*
X0065595Y0029691D01*
X0065689Y0029570D01*
X0065780Y0029447D01*
X0065868Y0029321D01*
X0065952Y0029193D01*
X0066034Y0029063D01*
X0066111Y0028931D01*
X0066186Y0028797D01*
X0066257Y0028661D01*
X0066324Y0028523D01*
X0066388Y0028383D01*
X0066448Y0028242D01*
X0066504Y0028100D01*
X0066557Y0027956D01*
X0066606Y0027810D01*
X0066651Y0027664D01*
X0066692Y0027516D01*
X0066729Y0027368D01*
X0066763Y0027218D01*
X0066793Y0027067D01*
X0066818Y0026916D01*
X0066840Y0026765D01*
X0066858Y0026612D01*
X0066872Y0026460D01*
X0066882Y0026307D01*
X0066888Y0026153D01*
X0066890Y0026000D01*
X0066888Y0025847D01*
X0066882Y0025693D01*
X0066872Y0025540D01*
X0066858Y0025388D01*
X0066840Y0025235D01*
X0066818Y0025084D01*
X0066793Y0024933D01*
X0066763Y0024782D01*
X0066729Y0024632D01*
X0066692Y0024484D01*
X0066651Y0024336D01*
X0066606Y0024190D01*
X0066557Y0024044D01*
X0066504Y0023900D01*
X0066448Y0023758D01*
X0066388Y0023617D01*
X0066324Y0023477D01*
X0066257Y0023339D01*
X0066186Y0023203D01*
X0066111Y0023069D01*
X0066034Y0022937D01*
X0065952Y0022807D01*
X0065868Y0022679D01*
X0065780Y0022553D01*
X0065689Y0022430D01*
X0065595Y0022309D01*
X0065497Y0022191D01*
X0065397Y0022075D01*
X0065293Y0021962D01*
X0065187Y0021851D01*
X0065078Y0021743D01*
X0064966Y0021638D01*
X0064852Y0021537D01*
X0064734Y0021438D01*
X0064615Y0021342D01*
X0064493Y0021249D01*
X0064368Y0021160D01*
X0064241Y0021073D01*
X0064112Y0020991D01*
X0063981Y0020911D01*
X0063848Y0020835D01*
X0063713Y0020762D01*
X0063576Y0020693D01*
X0063437Y0020628D01*
X0063297Y0020566D01*
X0063155Y0020508D01*
X0063012Y0020453D01*
X0062867Y0020402D01*
X0062721Y0020355D01*
X0062574Y0020312D01*
X0062426Y0020273D01*
X0062277Y0020237D01*
X0062127Y0020206D01*
X0061976Y0020178D01*
X0061825Y0020154D01*
X0061672Y0020134D01*
X0061520Y0020118D01*
X0061367Y0020106D01*
X0061214Y0020098D01*
X0061061Y0020094D01*
X0060907Y0020094D01*
X0060754Y0020098D01*
X0060601Y0020106D01*
X0060448Y0020118D01*
X0060296Y0020134D01*
X0060143Y0020154D01*
X0059992Y0020178D01*
X0059841Y0020206D01*
X0059691Y0020237D01*
X0059542Y0020273D01*
X0059394Y0020312D01*
X0059247Y0020355D01*
X0059101Y0020402D01*
X0058956Y0020453D01*
X0058813Y0020508D01*
X0058671Y0020566D01*
X0058531Y0020628D01*
X0058392Y0020693D01*
X0058255Y0020762D01*
X0058120Y0020835D01*
X0057987Y0020911D01*
X0057856Y0020991D01*
X0057727Y0021073D01*
X0057600Y0021160D01*
X0057475Y0021249D01*
X0057353Y0021342D01*
X0057234Y0021438D01*
X0057116Y0021537D01*
X0057002Y0021638D01*
X0056890Y0021743D01*
X0056781Y0021851D01*
X0056675Y0021962D01*
X0056571Y0022075D01*
X0056471Y0022191D01*
X0056373Y0022309D01*
X0056279Y0022430D01*
X0056188Y0022553D01*
X0056100Y0022679D01*
X0056016Y0022807D01*
X0055934Y0022937D01*
X0055857Y0023069D01*
X0055782Y0023203D01*
X0055711Y0023339D01*
X0055644Y0023477D01*
X0055580Y0023617D01*
X0055520Y0023758D01*
X0055464Y0023900D01*
X0055411Y0024044D01*
X0055362Y0024190D01*
X0055317Y0024336D01*
X0055276Y0024484D01*
X0055239Y0024632D01*
X0055205Y0024782D01*
X0055175Y0024933D01*
X0055150Y0025084D01*
X0055128Y0025235D01*
X0055110Y0025388D01*
X0055096Y0025540D01*
X0055086Y0025693D01*
X0055080Y0025847D01*
X0055078Y0026000D01*
X0460078Y0028000D02*
X0460080Y0028153D01*
X0460086Y0028307D01*
X0460096Y0028460D01*
X0460110Y0028612D01*
X0460128Y0028765D01*
X0460150Y0028916D01*
X0460175Y0029067D01*
X0460205Y0029218D01*
X0460239Y0029368D01*
X0460276Y0029516D01*
X0460317Y0029664D01*
X0460362Y0029810D01*
X0460411Y0029956D01*
X0460464Y0030100D01*
X0460520Y0030242D01*
X0460580Y0030383D01*
X0460644Y0030523D01*
X0460711Y0030661D01*
X0460782Y0030797D01*
X0460857Y0030931D01*
X0460934Y0031063D01*
X0461016Y0031193D01*
X0461100Y0031321D01*
X0461188Y0031447D01*
X0461279Y0031570D01*
X0461373Y0031691D01*
X0461471Y0031809D01*
X0461571Y0031925D01*
X0461675Y0032038D01*
X0461781Y0032149D01*
X0461890Y0032257D01*
X0462002Y0032362D01*
X0462116Y0032463D01*
X0462234Y0032562D01*
X0462353Y0032658D01*
X0462475Y0032751D01*
X0462600Y0032840D01*
X0462727Y0032927D01*
X0462856Y0033009D01*
X0462987Y0033089D01*
X0463120Y0033165D01*
X0463255Y0033238D01*
X0463392Y0033307D01*
X0463531Y0033372D01*
X0463671Y0033434D01*
X0463813Y0033492D01*
X0463956Y0033547D01*
X0464101Y0033598D01*
X0464247Y0033645D01*
X0464394Y0033688D01*
X0464542Y0033727D01*
X0464691Y0033763D01*
X0464841Y0033794D01*
X0464992Y0033822D01*
X0465143Y0033846D01*
X0465296Y0033866D01*
X0465448Y0033882D01*
X0465601Y0033894D01*
X0465754Y0033902D01*
X0465907Y0033906D01*
X0466061Y0033906D01*
X0466214Y0033902D01*
X0466367Y0033894D01*
X0466520Y0033882D01*
X0466672Y0033866D01*
X0466825Y0033846D01*
X0466976Y0033822D01*
X0467127Y0033794D01*
X0467277Y0033763D01*
X0467426Y0033727D01*
X0467574Y0033688D01*
X0467721Y0033645D01*
X0467867Y0033598D01*
X0468012Y0033547D01*
X0468155Y0033492D01*
X0468297Y0033434D01*
X0468437Y0033372D01*
X0468576Y0033307D01*
X0468713Y0033238D01*
X0468848Y0033165D01*
X0468981Y0033089D01*
X0469112Y0033009D01*
X0469241Y0032927D01*
X0469368Y0032840D01*
X0469493Y0032751D01*
X0469615Y0032658D01*
X0469734Y0032562D01*
X0469852Y0032463D01*
X0469966Y0032362D01*
X0470078Y0032257D01*
X0470187Y0032149D01*
X0470293Y0032038D01*
X0470397Y0031925D01*
X0470497Y0031809D01*
X0470595Y0031691D01*
X0470689Y0031570D01*
X0470780Y0031447D01*
X0470868Y0031321D01*
X0470952Y0031193D01*
X0471034Y0031063D01*
X0471111Y0030931D01*
X0471186Y0030797D01*
X0471257Y0030661D01*
X0471324Y0030523D01*
X0471388Y0030383D01*
X0471448Y0030242D01*
X0471504Y0030100D01*
X0471557Y0029956D01*
X0471606Y0029810D01*
X0471651Y0029664D01*
X0471692Y0029516D01*
X0471729Y0029368D01*
X0471763Y0029218D01*
X0471793Y0029067D01*
X0471818Y0028916D01*
X0471840Y0028765D01*
X0471858Y0028612D01*
X0471872Y0028460D01*
X0471882Y0028307D01*
X0471888Y0028153D01*
X0471890Y0028000D01*
X0471888Y0027847D01*
X0471882Y0027693D01*
X0471872Y0027540D01*
X0471858Y0027388D01*
X0471840Y0027235D01*
X0471818Y0027084D01*
X0471793Y0026933D01*
X0471763Y0026782D01*
X0471729Y0026632D01*
X0471692Y0026484D01*
X0471651Y0026336D01*
X0471606Y0026190D01*
X0471557Y0026044D01*
X0471504Y0025900D01*
X0471448Y0025758D01*
X0471388Y0025617D01*
X0471324Y0025477D01*
X0471257Y0025339D01*
X0471186Y0025203D01*
X0471111Y0025069D01*
X0471034Y0024937D01*
X0470952Y0024807D01*
X0470868Y0024679D01*
X0470780Y0024553D01*
X0470689Y0024430D01*
X0470595Y0024309D01*
X0470497Y0024191D01*
X0470397Y0024075D01*
X0470293Y0023962D01*
X0470187Y0023851D01*
X0470078Y0023743D01*
X0469966Y0023638D01*
X0469852Y0023537D01*
X0469734Y0023438D01*
X0469615Y0023342D01*
X0469493Y0023249D01*
X0469368Y0023160D01*
X0469241Y0023073D01*
X0469112Y0022991D01*
X0468981Y0022911D01*
X0468848Y0022835D01*
X0468713Y0022762D01*
X0468576Y0022693D01*
X0468437Y0022628D01*
X0468297Y0022566D01*
X0468155Y0022508D01*
X0468012Y0022453D01*
X0467867Y0022402D01*
X0467721Y0022355D01*
X0467574Y0022312D01*
X0467426Y0022273D01*
X0467277Y0022237D01*
X0467127Y0022206D01*
X0466976Y0022178D01*
X0466825Y0022154D01*
X0466672Y0022134D01*
X0466520Y0022118D01*
X0466367Y0022106D01*
X0466214Y0022098D01*
X0466061Y0022094D01*
X0465907Y0022094D01*
X0465754Y0022098D01*
X0465601Y0022106D01*
X0465448Y0022118D01*
X0465296Y0022134D01*
X0465143Y0022154D01*
X0464992Y0022178D01*
X0464841Y0022206D01*
X0464691Y0022237D01*
X0464542Y0022273D01*
X0464394Y0022312D01*
X0464247Y0022355D01*
X0464101Y0022402D01*
X0463956Y0022453D01*
X0463813Y0022508D01*
X0463671Y0022566D01*
X0463531Y0022628D01*
X0463392Y0022693D01*
X0463255Y0022762D01*
X0463120Y0022835D01*
X0462987Y0022911D01*
X0462856Y0022991D01*
X0462727Y0023073D01*
X0462600Y0023160D01*
X0462475Y0023249D01*
X0462353Y0023342D01*
X0462234Y0023438D01*
X0462116Y0023537D01*
X0462002Y0023638D01*
X0461890Y0023743D01*
X0461781Y0023851D01*
X0461675Y0023962D01*
X0461571Y0024075D01*
X0461471Y0024191D01*
X0461373Y0024309D01*
X0461279Y0024430D01*
X0461188Y0024553D01*
X0461100Y0024679D01*
X0461016Y0024807D01*
X0460934Y0024937D01*
X0460857Y0025069D01*
X0460782Y0025203D01*
X0460711Y0025339D01*
X0460644Y0025477D01*
X0460580Y0025617D01*
X0460520Y0025758D01*
X0460464Y0025900D01*
X0460411Y0026044D01*
X0460362Y0026190D01*
X0460317Y0026336D01*
X0460276Y0026484D01*
X0460239Y0026632D01*
X0460205Y0026782D01*
X0460175Y0026933D01*
X0460150Y0027084D01*
X0460128Y0027235D01*
X0460110Y0027388D01*
X0460096Y0027540D01*
X0460086Y0027693D01*
X0460080Y0027847D01*
X0460078Y0028000D01*
X0460078Y0371000D02*
X0460080Y0371153D01*
X0460086Y0371307D01*
X0460096Y0371460D01*
X0460110Y0371612D01*
X0460128Y0371765D01*
X0460150Y0371916D01*
X0460175Y0372067D01*
X0460205Y0372218D01*
X0460239Y0372368D01*
X0460276Y0372516D01*
X0460317Y0372664D01*
X0460362Y0372810D01*
X0460411Y0372956D01*
X0460464Y0373100D01*
X0460520Y0373242D01*
X0460580Y0373383D01*
X0460644Y0373523D01*
X0460711Y0373661D01*
X0460782Y0373797D01*
X0460857Y0373931D01*
X0460934Y0374063D01*
X0461016Y0374193D01*
X0461100Y0374321D01*
X0461188Y0374447D01*
X0461279Y0374570D01*
X0461373Y0374691D01*
X0461471Y0374809D01*
X0461571Y0374925D01*
X0461675Y0375038D01*
X0461781Y0375149D01*
X0461890Y0375257D01*
X0462002Y0375362D01*
X0462116Y0375463D01*
X0462234Y0375562D01*
X0462353Y0375658D01*
X0462475Y0375751D01*
X0462600Y0375840D01*
X0462727Y0375927D01*
X0462856Y0376009D01*
X0462987Y0376089D01*
X0463120Y0376165D01*
X0463255Y0376238D01*
X0463392Y0376307D01*
X0463531Y0376372D01*
X0463671Y0376434D01*
X0463813Y0376492D01*
X0463956Y0376547D01*
X0464101Y0376598D01*
X0464247Y0376645D01*
X0464394Y0376688D01*
X0464542Y0376727D01*
X0464691Y0376763D01*
X0464841Y0376794D01*
X0464992Y0376822D01*
X0465143Y0376846D01*
X0465296Y0376866D01*
X0465448Y0376882D01*
X0465601Y0376894D01*
X0465754Y0376902D01*
X0465907Y0376906D01*
X0466061Y0376906D01*
X0466214Y0376902D01*
X0466367Y0376894D01*
X0466520Y0376882D01*
X0466672Y0376866D01*
X0466825Y0376846D01*
X0466976Y0376822D01*
X0467127Y0376794D01*
X0467277Y0376763D01*
X0467426Y0376727D01*
X0467574Y0376688D01*
X0467721Y0376645D01*
X0467867Y0376598D01*
X0468012Y0376547D01*
X0468155Y0376492D01*
X0468297Y0376434D01*
X0468437Y0376372D01*
X0468576Y0376307D01*
X0468713Y0376238D01*
X0468848Y0376165D01*
X0468981Y0376089D01*
X0469112Y0376009D01*
X0469241Y0375927D01*
X0469368Y0375840D01*
X0469493Y0375751D01*
X0469615Y0375658D01*
X0469734Y0375562D01*
X0469852Y0375463D01*
X0469966Y0375362D01*
X0470078Y0375257D01*
X0470187Y0375149D01*
X0470293Y0375038D01*
X0470397Y0374925D01*
X0470497Y0374809D01*
X0470595Y0374691D01*
X0470689Y0374570D01*
X0470780Y0374447D01*
X0470868Y0374321D01*
X0470952Y0374193D01*
X0471034Y0374063D01*
X0471111Y0373931D01*
X0471186Y0373797D01*
X0471257Y0373661D01*
X0471324Y0373523D01*
X0471388Y0373383D01*
X0471448Y0373242D01*
X0471504Y0373100D01*
X0471557Y0372956D01*
X0471606Y0372810D01*
X0471651Y0372664D01*
X0471692Y0372516D01*
X0471729Y0372368D01*
X0471763Y0372218D01*
X0471793Y0372067D01*
X0471818Y0371916D01*
X0471840Y0371765D01*
X0471858Y0371612D01*
X0471872Y0371460D01*
X0471882Y0371307D01*
X0471888Y0371153D01*
X0471890Y0371000D01*
X0471888Y0370847D01*
X0471882Y0370693D01*
X0471872Y0370540D01*
X0471858Y0370388D01*
X0471840Y0370235D01*
X0471818Y0370084D01*
X0471793Y0369933D01*
X0471763Y0369782D01*
X0471729Y0369632D01*
X0471692Y0369484D01*
X0471651Y0369336D01*
X0471606Y0369190D01*
X0471557Y0369044D01*
X0471504Y0368900D01*
X0471448Y0368758D01*
X0471388Y0368617D01*
X0471324Y0368477D01*
X0471257Y0368339D01*
X0471186Y0368203D01*
X0471111Y0368069D01*
X0471034Y0367937D01*
X0470952Y0367807D01*
X0470868Y0367679D01*
X0470780Y0367553D01*
X0470689Y0367430D01*
X0470595Y0367309D01*
X0470497Y0367191D01*
X0470397Y0367075D01*
X0470293Y0366962D01*
X0470187Y0366851D01*
X0470078Y0366743D01*
X0469966Y0366638D01*
X0469852Y0366537D01*
X0469734Y0366438D01*
X0469615Y0366342D01*
X0469493Y0366249D01*
X0469368Y0366160D01*
X0469241Y0366073D01*
X0469112Y0365991D01*
X0468981Y0365911D01*
X0468848Y0365835D01*
X0468713Y0365762D01*
X0468576Y0365693D01*
X0468437Y0365628D01*
X0468297Y0365566D01*
X0468155Y0365508D01*
X0468012Y0365453D01*
X0467867Y0365402D01*
X0467721Y0365355D01*
X0467574Y0365312D01*
X0467426Y0365273D01*
X0467277Y0365237D01*
X0467127Y0365206D01*
X0466976Y0365178D01*
X0466825Y0365154D01*
X0466672Y0365134D01*
X0466520Y0365118D01*
X0466367Y0365106D01*
X0466214Y0365098D01*
X0466061Y0365094D01*
X0465907Y0365094D01*
X0465754Y0365098D01*
X0465601Y0365106D01*
X0465448Y0365118D01*
X0465296Y0365134D01*
X0465143Y0365154D01*
X0464992Y0365178D01*
X0464841Y0365206D01*
X0464691Y0365237D01*
X0464542Y0365273D01*
X0464394Y0365312D01*
X0464247Y0365355D01*
X0464101Y0365402D01*
X0463956Y0365453D01*
X0463813Y0365508D01*
X0463671Y0365566D01*
X0463531Y0365628D01*
X0463392Y0365693D01*
X0463255Y0365762D01*
X0463120Y0365835D01*
X0462987Y0365911D01*
X0462856Y0365991D01*
X0462727Y0366073D01*
X0462600Y0366160D01*
X0462475Y0366249D01*
X0462353Y0366342D01*
X0462234Y0366438D01*
X0462116Y0366537D01*
X0462002Y0366638D01*
X0461890Y0366743D01*
X0461781Y0366851D01*
X0461675Y0366962D01*
X0461571Y0367075D01*
X0461471Y0367191D01*
X0461373Y0367309D01*
X0461279Y0367430D01*
X0461188Y0367553D01*
X0461100Y0367679D01*
X0461016Y0367807D01*
X0460934Y0367937D01*
X0460857Y0368069D01*
X0460782Y0368203D01*
X0460711Y0368339D01*
X0460644Y0368477D01*
X0460580Y0368617D01*
X0460520Y0368758D01*
X0460464Y0368900D01*
X0460411Y0369044D01*
X0460362Y0369190D01*
X0460317Y0369336D01*
X0460276Y0369484D01*
X0460239Y0369632D01*
X0460205Y0369782D01*
X0460175Y0369933D01*
X0460150Y0370084D01*
X0460128Y0370235D01*
X0460110Y0370388D01*
X0460096Y0370540D01*
X0460086Y0370693D01*
X0460080Y0370847D01*
X0460078Y0371000D01*
X0055078Y0371000D02*
X0055080Y0371153D01*
X0055086Y0371307D01*
X0055096Y0371460D01*
X0055110Y0371612D01*
X0055128Y0371765D01*
X0055150Y0371916D01*
X0055175Y0372067D01*
X0055205Y0372218D01*
X0055239Y0372368D01*
X0055276Y0372516D01*
X0055317Y0372664D01*
X0055362Y0372810D01*
X0055411Y0372956D01*
X0055464Y0373100D01*
X0055520Y0373242D01*
X0055580Y0373383D01*
X0055644Y0373523D01*
X0055711Y0373661D01*
X0055782Y0373797D01*
X0055857Y0373931D01*
X0055934Y0374063D01*
X0056016Y0374193D01*
X0056100Y0374321D01*
X0056188Y0374447D01*
X0056279Y0374570D01*
X0056373Y0374691D01*
X0056471Y0374809D01*
X0056571Y0374925D01*
X0056675Y0375038D01*
X0056781Y0375149D01*
X0056890Y0375257D01*
X0057002Y0375362D01*
X0057116Y0375463D01*
X0057234Y0375562D01*
X0057353Y0375658D01*
X0057475Y0375751D01*
X0057600Y0375840D01*
X0057727Y0375927D01*
X0057856Y0376009D01*
X0057987Y0376089D01*
X0058120Y0376165D01*
X0058255Y0376238D01*
X0058392Y0376307D01*
X0058531Y0376372D01*
X0058671Y0376434D01*
X0058813Y0376492D01*
X0058956Y0376547D01*
X0059101Y0376598D01*
X0059247Y0376645D01*
X0059394Y0376688D01*
X0059542Y0376727D01*
X0059691Y0376763D01*
X0059841Y0376794D01*
X0059992Y0376822D01*
X0060143Y0376846D01*
X0060296Y0376866D01*
X0060448Y0376882D01*
X0060601Y0376894D01*
X0060754Y0376902D01*
X0060907Y0376906D01*
X0061061Y0376906D01*
X0061214Y0376902D01*
X0061367Y0376894D01*
X0061520Y0376882D01*
X0061672Y0376866D01*
X0061825Y0376846D01*
X0061976Y0376822D01*
X0062127Y0376794D01*
X0062277Y0376763D01*
X0062426Y0376727D01*
X0062574Y0376688D01*
X0062721Y0376645D01*
X0062867Y0376598D01*
X0063012Y0376547D01*
X0063155Y0376492D01*
X0063297Y0376434D01*
X0063437Y0376372D01*
X0063576Y0376307D01*
X0063713Y0376238D01*
X0063848Y0376165D01*
X0063981Y0376089D01*
X0064112Y0376009D01*
X0064241Y0375927D01*
X0064368Y0375840D01*
X0064493Y0375751D01*
X0064615Y0375658D01*
X0064734Y0375562D01*
X0064852Y0375463D01*
X0064966Y0375362D01*
X0065078Y0375257D01*
X0065187Y0375149D01*
X0065293Y0375038D01*
X0065397Y0374925D01*
X0065497Y0374809D01*
X0065595Y0374691D01*
X0065689Y0374570D01*
X0065780Y0374447D01*
X0065868Y0374321D01*
X0065952Y0374193D01*
X0066034Y0374063D01*
X0066111Y0373931D01*
X0066186Y0373797D01*
X0066257Y0373661D01*
X0066324Y0373523D01*
X0066388Y0373383D01*
X0066448Y0373242D01*
X0066504Y0373100D01*
X0066557Y0372956D01*
X0066606Y0372810D01*
X0066651Y0372664D01*
X0066692Y0372516D01*
X0066729Y0372368D01*
X0066763Y0372218D01*
X0066793Y0372067D01*
X0066818Y0371916D01*
X0066840Y0371765D01*
X0066858Y0371612D01*
X0066872Y0371460D01*
X0066882Y0371307D01*
X0066888Y0371153D01*
X0066890Y0371000D01*
X0066888Y0370847D01*
X0066882Y0370693D01*
X0066872Y0370540D01*
X0066858Y0370388D01*
X0066840Y0370235D01*
X0066818Y0370084D01*
X0066793Y0369933D01*
X0066763Y0369782D01*
X0066729Y0369632D01*
X0066692Y0369484D01*
X0066651Y0369336D01*
X0066606Y0369190D01*
X0066557Y0369044D01*
X0066504Y0368900D01*
X0066448Y0368758D01*
X0066388Y0368617D01*
X0066324Y0368477D01*
X0066257Y0368339D01*
X0066186Y0368203D01*
X0066111Y0368069D01*
X0066034Y0367937D01*
X0065952Y0367807D01*
X0065868Y0367679D01*
X0065780Y0367553D01*
X0065689Y0367430D01*
X0065595Y0367309D01*
X0065497Y0367191D01*
X0065397Y0367075D01*
X0065293Y0366962D01*
X0065187Y0366851D01*
X0065078Y0366743D01*
X0064966Y0366638D01*
X0064852Y0366537D01*
X0064734Y0366438D01*
X0064615Y0366342D01*
X0064493Y0366249D01*
X0064368Y0366160D01*
X0064241Y0366073D01*
X0064112Y0365991D01*
X0063981Y0365911D01*
X0063848Y0365835D01*
X0063713Y0365762D01*
X0063576Y0365693D01*
X0063437Y0365628D01*
X0063297Y0365566D01*
X0063155Y0365508D01*
X0063012Y0365453D01*
X0062867Y0365402D01*
X0062721Y0365355D01*
X0062574Y0365312D01*
X0062426Y0365273D01*
X0062277Y0365237D01*
X0062127Y0365206D01*
X0061976Y0365178D01*
X0061825Y0365154D01*
X0061672Y0365134D01*
X0061520Y0365118D01*
X0061367Y0365106D01*
X0061214Y0365098D01*
X0061061Y0365094D01*
X0060907Y0365094D01*
X0060754Y0365098D01*
X0060601Y0365106D01*
X0060448Y0365118D01*
X0060296Y0365134D01*
X0060143Y0365154D01*
X0059992Y0365178D01*
X0059841Y0365206D01*
X0059691Y0365237D01*
X0059542Y0365273D01*
X0059394Y0365312D01*
X0059247Y0365355D01*
X0059101Y0365402D01*
X0058956Y0365453D01*
X0058813Y0365508D01*
X0058671Y0365566D01*
X0058531Y0365628D01*
X0058392Y0365693D01*
X0058255Y0365762D01*
X0058120Y0365835D01*
X0057987Y0365911D01*
X0057856Y0365991D01*
X0057727Y0366073D01*
X0057600Y0366160D01*
X0057475Y0366249D01*
X0057353Y0366342D01*
X0057234Y0366438D01*
X0057116Y0366537D01*
X0057002Y0366638D01*
X0056890Y0366743D01*
X0056781Y0366851D01*
X0056675Y0366962D01*
X0056571Y0367075D01*
X0056471Y0367191D01*
X0056373Y0367309D01*
X0056279Y0367430D01*
X0056188Y0367553D01*
X0056100Y0367679D01*
X0056016Y0367807D01*
X0055934Y0367937D01*
X0055857Y0368069D01*
X0055782Y0368203D01*
X0055711Y0368339D01*
X0055644Y0368477D01*
X0055580Y0368617D01*
X0055520Y0368758D01*
X0055464Y0368900D01*
X0055411Y0369044D01*
X0055362Y0369190D01*
X0055317Y0369336D01*
X0055276Y0369484D01*
X0055239Y0369632D01*
X0055205Y0369782D01*
X0055175Y0369933D01*
X0055150Y0370084D01*
X0055128Y0370235D01*
X0055110Y0370388D01*
X0055096Y0370540D01*
X0055086Y0370693D01*
X0055080Y0370847D01*
X0055078Y0371000D01*
M02*
