G75*
%MOIN*%
%OFA0B0*%
%FSLAX25Y25*%
%IPPOS*%
%LPD*%
%AMOC8*
5,1,8,0,0,1.08239X$1,22.5*
%
%ADD10C,0.06000*%
%ADD11C,0.04362*%
%ADD12C,0.07500*%
%ADD13C,0.00600*%
%ADD14C,0.02400*%
%ADD15C,0.02781*%
%ADD16C,0.02600*%
%ADD17C,0.03569*%
D10*
X0173469Y0133921D03*
X0208184Y0162100D03*
X0208184Y0179900D03*
X0233784Y0179900D03*
X0233784Y0162100D03*
X0231984Y0135000D03*
X0221984Y0135000D03*
X0270484Y0103500D03*
X0280484Y0103500D03*
X0311953Y0120720D03*
X0321953Y0120720D03*
X0348484Y0094000D03*
X0280984Y0068000D03*
X0270984Y0068000D03*
X0270783Y0031142D03*
X0270559Y0135000D03*
X0280559Y0135000D03*
X0234316Y0236431D03*
X0234316Y0254231D03*
X0208716Y0254231D03*
X0208716Y0236431D03*
X0145193Y0239083D03*
X0084252Y0208795D03*
X0055000Y0221748D03*
X0045000Y0221748D03*
X0045000Y0231748D03*
X0055000Y0231748D03*
X0055000Y0241748D03*
X0045000Y0241748D03*
X0045000Y0251748D03*
X0055000Y0251748D03*
X0078346Y0285094D03*
X0078346Y0311709D03*
X0087669Y0345728D03*
X0097669Y0345728D03*
X0200315Y0301000D03*
X0210315Y0301000D03*
X0216745Y0342869D03*
X0248484Y0341890D03*
X0332720Y0364000D03*
X0342720Y0364000D03*
X0352720Y0364000D03*
X0362720Y0364000D03*
X0362720Y0374000D03*
X0352720Y0374000D03*
X0342720Y0374000D03*
X0332720Y0374000D03*
X0337244Y0314622D03*
X0347244Y0314622D03*
X0357244Y0314622D03*
X0460984Y0298000D03*
X0470984Y0298000D03*
X0470984Y0288000D03*
X0460984Y0288000D03*
X0460984Y0278000D03*
X0470984Y0278000D03*
X0470984Y0268000D03*
X0460984Y0268000D03*
X0445039Y0153992D03*
X0457443Y0088761D03*
X0420217Y0089563D03*
X0147756Y0179346D03*
X0084252Y0172417D03*
D11*
X0139252Y0291079D03*
X0149252Y0291079D03*
X0149252Y0301079D03*
X0149252Y0311079D03*
X0139252Y0311079D03*
X0139252Y0301079D03*
D12*
X0219984Y0028500D03*
X0239984Y0028500D03*
D13*
X0039547Y0004780D02*
X0039484Y0392000D01*
X0487439Y0392000D01*
X0487484Y0004500D01*
X0039547Y0004780D01*
X0039547Y0005190D02*
X0487484Y0005190D01*
X0487484Y0005788D02*
X0039546Y0005788D01*
X0039546Y0006387D02*
X0487484Y0006387D01*
X0487484Y0006985D02*
X0039546Y0006985D01*
X0039546Y0007584D02*
X0487484Y0007584D01*
X0487484Y0008182D02*
X0039546Y0008182D01*
X0039546Y0008781D02*
X0487484Y0008781D01*
X0487484Y0009379D02*
X0039546Y0009379D01*
X0039546Y0009978D02*
X0487484Y0009978D01*
X0487484Y0010576D02*
X0039546Y0010576D01*
X0039546Y0011175D02*
X0487483Y0011175D01*
X0487483Y0011773D02*
X0039545Y0011773D01*
X0039545Y0012372D02*
X0487483Y0012372D01*
X0487483Y0012970D02*
X0039545Y0012970D01*
X0039545Y0013569D02*
X0487483Y0013569D01*
X0487483Y0014167D02*
X0039545Y0014167D01*
X0039545Y0014766D02*
X0487483Y0014766D01*
X0487483Y0015364D02*
X0039545Y0015364D01*
X0039545Y0015963D02*
X0487483Y0015963D01*
X0487483Y0016561D02*
X0039545Y0016561D01*
X0039545Y0017160D02*
X0487483Y0017160D01*
X0487483Y0017758D02*
X0039545Y0017758D01*
X0039544Y0018357D02*
X0487483Y0018357D01*
X0487483Y0018955D02*
X0039544Y0018955D01*
X0039544Y0019554D02*
X0487482Y0019554D01*
X0487482Y0020152D02*
X0063083Y0020152D01*
X0062219Y0019794D02*
X0064499Y0020739D01*
X0066245Y0022485D01*
X0067190Y0024766D01*
X0067190Y0027234D01*
X0066245Y0029515D01*
X0064499Y0031261D01*
X0062219Y0032205D01*
X0059750Y0032205D01*
X0057469Y0031261D01*
X0055723Y0029515D01*
X0054779Y0027234D01*
X0054779Y0024766D01*
X0055723Y0022485D01*
X0057469Y0020739D01*
X0059750Y0019794D01*
X0062219Y0019794D01*
X0064511Y0020751D02*
X0487482Y0020751D01*
X0487482Y0021349D02*
X0065110Y0021349D01*
X0065708Y0021948D02*
X0464380Y0021948D01*
X0464750Y0021794D02*
X0467219Y0021794D01*
X0469499Y0022739D01*
X0471245Y0024485D01*
X0472190Y0026766D01*
X0472190Y0029234D01*
X0471245Y0031515D01*
X0469499Y0033261D01*
X0467219Y0034205D01*
X0464750Y0034205D01*
X0462469Y0033261D01*
X0460723Y0031515D01*
X0459779Y0029234D01*
X0459779Y0026766D01*
X0460723Y0024485D01*
X0462469Y0022739D01*
X0464750Y0021794D01*
X0462935Y0022546D02*
X0066271Y0022546D01*
X0066518Y0023145D02*
X0462063Y0023145D01*
X0461465Y0023743D02*
X0221687Y0023743D01*
X0221923Y0023820D02*
X0222631Y0024181D01*
X0223274Y0024648D01*
X0223836Y0025210D01*
X0224303Y0025853D01*
X0224664Y0026561D01*
X0224910Y0027317D01*
X0225034Y0028103D01*
X0225034Y0028200D01*
X0220284Y0028200D01*
X0220284Y0023450D01*
X0220382Y0023450D01*
X0221167Y0023574D01*
X0221923Y0023820D01*
X0222853Y0024342D02*
X0237872Y0024342D01*
X0237350Y0024558D02*
X0239059Y0023850D01*
X0240909Y0023850D01*
X0242618Y0024558D01*
X0243926Y0025866D01*
X0244634Y0027575D01*
X0244634Y0029425D01*
X0243926Y0031134D01*
X0242618Y0032442D01*
X0240909Y0033150D01*
X0239059Y0033150D01*
X0237350Y0032442D01*
X0236042Y0031134D01*
X0235334Y0029425D01*
X0235334Y0027575D01*
X0236042Y0025866D01*
X0237350Y0024558D01*
X0236968Y0024940D02*
X0223566Y0024940D01*
X0224075Y0025539D02*
X0236369Y0025539D01*
X0235930Y0026137D02*
X0224448Y0026137D01*
X0224721Y0026736D02*
X0235682Y0026736D01*
X0235434Y0027334D02*
X0224913Y0027334D01*
X0225007Y0027933D02*
X0235334Y0027933D01*
X0235334Y0028532D02*
X0220284Y0028532D01*
X0220284Y0028800D02*
X0225034Y0028800D01*
X0225034Y0028897D01*
X0224910Y0029683D01*
X0224664Y0030439D01*
X0224303Y0031147D01*
X0223836Y0031790D01*
X0223274Y0032352D01*
X0222631Y0032819D01*
X0221923Y0033180D01*
X0221167Y0033426D01*
X0220382Y0033550D01*
X0220284Y0033550D01*
X0220284Y0028800D01*
X0219684Y0028800D01*
X0219684Y0028200D01*
X0214934Y0028200D01*
X0214934Y0028103D01*
X0215059Y0027317D01*
X0215304Y0026561D01*
X0215665Y0025853D01*
X0216132Y0025210D01*
X0216694Y0024648D01*
X0217337Y0024181D01*
X0218046Y0023820D01*
X0218802Y0023574D01*
X0219587Y0023450D01*
X0219684Y0023450D01*
X0219684Y0028200D01*
X0220284Y0028200D01*
X0220284Y0028800D01*
X0220284Y0029130D02*
X0219684Y0029130D01*
X0219684Y0028800D02*
X0219684Y0033550D01*
X0219587Y0033550D01*
X0218802Y0033426D01*
X0218046Y0033180D01*
X0217337Y0032819D01*
X0216694Y0032352D01*
X0216132Y0031790D01*
X0215665Y0031147D01*
X0215304Y0030439D01*
X0215059Y0029683D01*
X0214934Y0028897D01*
X0214934Y0028800D01*
X0219684Y0028800D01*
X0219684Y0028532D02*
X0066652Y0028532D01*
X0066405Y0029130D02*
X0214971Y0029130D01*
X0215074Y0029729D02*
X0066032Y0029729D01*
X0065433Y0030327D02*
X0215268Y0030327D01*
X0215552Y0030926D02*
X0064835Y0030926D01*
X0063864Y0031524D02*
X0215939Y0031524D01*
X0216465Y0032123D02*
X0062419Y0032123D01*
X0059550Y0032123D02*
X0039542Y0032123D01*
X0039542Y0032721D02*
X0217203Y0032721D01*
X0218475Y0033320D02*
X0039542Y0033320D01*
X0039542Y0033918D02*
X0268044Y0033918D01*
X0268574Y0034448D02*
X0267477Y0033351D01*
X0266883Y0031917D01*
X0266883Y0030366D01*
X0267477Y0028933D01*
X0268574Y0027835D01*
X0270008Y0027242D01*
X0271559Y0027242D01*
X0272993Y0027835D01*
X0274090Y0028933D01*
X0274683Y0030366D01*
X0274683Y0031917D01*
X0274090Y0033351D01*
X0272993Y0034448D01*
X0271559Y0035042D01*
X0270008Y0035042D01*
X0268574Y0034448D01*
X0268740Y0034517D02*
X0039542Y0034517D01*
X0039542Y0035115D02*
X0412570Y0035115D01*
X0413168Y0035714D02*
X0039542Y0035714D01*
X0039542Y0036312D02*
X0487481Y0036312D01*
X0487481Y0035714D02*
X0414939Y0035714D01*
X0414924Y0035729D02*
X0413184Y0035729D01*
X0411954Y0034499D01*
X0411954Y0032760D01*
X0413184Y0031529D01*
X0414924Y0031529D01*
X0416154Y0032760D01*
X0416154Y0034499D01*
X0414924Y0035729D01*
X0415538Y0035115D02*
X0487481Y0035115D01*
X0487481Y0034517D02*
X0416136Y0034517D01*
X0416154Y0033918D02*
X0464056Y0033918D01*
X0462611Y0033320D02*
X0416154Y0033320D01*
X0416115Y0032721D02*
X0461929Y0032721D01*
X0461331Y0032123D02*
X0415517Y0032123D01*
X0412591Y0032123D02*
X0274598Y0032123D01*
X0274683Y0031524D02*
X0460732Y0031524D01*
X0460479Y0030926D02*
X0274683Y0030926D01*
X0274667Y0030327D02*
X0460231Y0030327D01*
X0459983Y0029729D02*
X0274419Y0029729D01*
X0274172Y0029130D02*
X0459779Y0029130D01*
X0459779Y0028532D02*
X0273689Y0028532D01*
X0273090Y0027933D02*
X0459779Y0027933D01*
X0459779Y0027334D02*
X0271783Y0027334D01*
X0269784Y0027334D02*
X0244535Y0027334D01*
X0244634Y0027933D02*
X0268477Y0027933D01*
X0267878Y0028532D02*
X0244634Y0028532D01*
X0244634Y0029130D02*
X0267395Y0029130D01*
X0267147Y0029729D02*
X0244508Y0029729D01*
X0244261Y0030327D02*
X0266900Y0030327D01*
X0266883Y0030926D02*
X0244013Y0030926D01*
X0243536Y0031524D02*
X0266883Y0031524D01*
X0266968Y0032123D02*
X0242938Y0032123D01*
X0241945Y0032721D02*
X0267216Y0032721D01*
X0267464Y0033320D02*
X0221493Y0033320D01*
X0220284Y0033320D02*
X0219684Y0033320D01*
X0219684Y0032721D02*
X0220284Y0032721D01*
X0220284Y0032123D02*
X0219684Y0032123D01*
X0219684Y0031524D02*
X0220284Y0031524D01*
X0220284Y0030926D02*
X0219684Y0030926D01*
X0219684Y0030327D02*
X0220284Y0030327D01*
X0220284Y0029729D02*
X0219684Y0029729D01*
X0219684Y0027933D02*
X0220284Y0027933D01*
X0220284Y0027334D02*
X0219684Y0027334D01*
X0219684Y0026736D02*
X0220284Y0026736D01*
X0220284Y0026137D02*
X0219684Y0026137D01*
X0219684Y0025539D02*
X0220284Y0025539D01*
X0220284Y0024940D02*
X0219684Y0024940D01*
X0219684Y0024342D02*
X0220284Y0024342D01*
X0220284Y0023743D02*
X0219684Y0023743D01*
X0218281Y0023743D02*
X0066766Y0023743D01*
X0067014Y0024342D02*
X0217116Y0024342D01*
X0216402Y0024940D02*
X0067190Y0024940D01*
X0067190Y0025539D02*
X0215893Y0025539D01*
X0215520Y0026137D02*
X0067190Y0026137D01*
X0067190Y0026736D02*
X0215248Y0026736D01*
X0215056Y0027334D02*
X0067148Y0027334D01*
X0066900Y0027933D02*
X0214961Y0027933D01*
X0222766Y0032721D02*
X0238024Y0032721D01*
X0237031Y0032123D02*
X0223503Y0032123D01*
X0224029Y0031524D02*
X0236432Y0031524D01*
X0235956Y0030926D02*
X0224416Y0030926D01*
X0224700Y0030327D02*
X0235708Y0030327D01*
X0235460Y0029729D02*
X0224895Y0029729D01*
X0224997Y0029130D02*
X0235334Y0029130D01*
X0242097Y0024342D02*
X0460866Y0024342D01*
X0460535Y0024940D02*
X0243001Y0024940D01*
X0243599Y0025539D02*
X0460287Y0025539D01*
X0460039Y0026137D02*
X0244039Y0026137D01*
X0244287Y0026736D02*
X0459791Y0026736D01*
X0467589Y0021948D02*
X0487482Y0021948D01*
X0487482Y0022546D02*
X0469034Y0022546D01*
X0469905Y0023145D02*
X0487482Y0023145D01*
X0487482Y0023743D02*
X0470504Y0023743D01*
X0471102Y0024342D02*
X0487482Y0024342D01*
X0487482Y0024940D02*
X0471434Y0024940D01*
X0471682Y0025539D02*
X0487482Y0025539D01*
X0487482Y0026137D02*
X0471930Y0026137D01*
X0472177Y0026736D02*
X0487482Y0026736D01*
X0487482Y0027334D02*
X0472190Y0027334D01*
X0472190Y0027933D02*
X0487481Y0027933D01*
X0487481Y0028532D02*
X0472190Y0028532D01*
X0472190Y0029130D02*
X0487481Y0029130D01*
X0487481Y0029729D02*
X0471985Y0029729D01*
X0471737Y0030327D02*
X0487481Y0030327D01*
X0487481Y0030926D02*
X0471489Y0030926D01*
X0471236Y0031524D02*
X0487481Y0031524D01*
X0487481Y0032123D02*
X0470638Y0032123D01*
X0470039Y0032721D02*
X0487481Y0032721D01*
X0487481Y0033320D02*
X0469357Y0033320D01*
X0467912Y0033918D02*
X0487481Y0033918D01*
X0487480Y0036911D02*
X0039541Y0036911D01*
X0039541Y0037509D02*
X0487480Y0037509D01*
X0487480Y0038108D02*
X0039541Y0038108D01*
X0039541Y0038706D02*
X0487480Y0038706D01*
X0487480Y0039305D02*
X0039541Y0039305D01*
X0039541Y0039903D02*
X0487480Y0039903D01*
X0487480Y0040502D02*
X0039541Y0040502D01*
X0039541Y0041100D02*
X0487480Y0041100D01*
X0487480Y0041699D02*
X0039541Y0041699D01*
X0039541Y0042297D02*
X0487480Y0042297D01*
X0487480Y0042896D02*
X0039540Y0042896D01*
X0039540Y0043494D02*
X0487480Y0043494D01*
X0487480Y0044093D02*
X0039540Y0044093D01*
X0039540Y0044691D02*
X0487480Y0044691D01*
X0487479Y0045290D02*
X0039540Y0045290D01*
X0039540Y0045888D02*
X0487479Y0045888D01*
X0487479Y0046487D02*
X0039540Y0046487D01*
X0039540Y0047085D02*
X0487479Y0047085D01*
X0487479Y0047684D02*
X0039540Y0047684D01*
X0039540Y0048282D02*
X0354471Y0048282D01*
X0354800Y0047953D02*
X0356540Y0047953D01*
X0357770Y0049183D01*
X0357770Y0050923D01*
X0356540Y0052153D01*
X0354800Y0052153D01*
X0353570Y0050923D01*
X0353570Y0049183D01*
X0354800Y0047953D01*
X0353872Y0048881D02*
X0039539Y0048881D01*
X0039539Y0049479D02*
X0353570Y0049479D01*
X0353570Y0050078D02*
X0039539Y0050078D01*
X0039539Y0050676D02*
X0353570Y0050676D01*
X0353922Y0051275D02*
X0039539Y0051275D01*
X0039539Y0051873D02*
X0354521Y0051873D01*
X0356819Y0051873D02*
X0364159Y0051873D01*
X0364693Y0052407D02*
X0363462Y0051176D01*
X0363462Y0049437D01*
X0364693Y0048207D01*
X0366432Y0048207D01*
X0367662Y0049437D01*
X0367662Y0051176D01*
X0366432Y0052407D01*
X0364693Y0052407D01*
X0363561Y0051275D02*
X0357418Y0051275D01*
X0357770Y0050676D02*
X0363462Y0050676D01*
X0363462Y0050078D02*
X0357770Y0050078D01*
X0357770Y0049479D02*
X0363462Y0049479D01*
X0364018Y0048881D02*
X0357468Y0048881D01*
X0356869Y0048282D02*
X0364617Y0048282D01*
X0366508Y0048282D02*
X0487479Y0048282D01*
X0487479Y0048881D02*
X0367107Y0048881D01*
X0367662Y0049479D02*
X0487479Y0049479D01*
X0487479Y0050078D02*
X0367662Y0050078D01*
X0367662Y0050676D02*
X0487479Y0050676D01*
X0487479Y0051275D02*
X0367564Y0051275D01*
X0366965Y0051873D02*
X0487479Y0051873D01*
X0487479Y0052472D02*
X0039539Y0052472D01*
X0039539Y0053070D02*
X0487479Y0053070D01*
X0487478Y0053669D02*
X0039539Y0053669D01*
X0039539Y0054268D02*
X0487478Y0054268D01*
X0487478Y0054866D02*
X0039539Y0054866D01*
X0039538Y0055465D02*
X0487478Y0055465D01*
X0487478Y0056063D02*
X0039538Y0056063D01*
X0039538Y0056662D02*
X0487478Y0056662D01*
X0487478Y0057260D02*
X0039538Y0057260D01*
X0039538Y0057859D02*
X0487478Y0057859D01*
X0487478Y0058457D02*
X0039538Y0058457D01*
X0039538Y0059056D02*
X0487478Y0059056D01*
X0487478Y0059654D02*
X0039538Y0059654D01*
X0039538Y0060253D02*
X0487478Y0060253D01*
X0487478Y0060851D02*
X0039538Y0060851D01*
X0039537Y0061450D02*
X0487478Y0061450D01*
X0487477Y0062048D02*
X0039537Y0062048D01*
X0039537Y0062647D02*
X0487477Y0062647D01*
X0487477Y0063245D02*
X0039537Y0063245D01*
X0039537Y0063844D02*
X0279861Y0063844D01*
X0279977Y0063806D02*
X0280646Y0063700D01*
X0280684Y0063700D01*
X0280684Y0067700D01*
X0276684Y0067700D01*
X0276684Y0067662D01*
X0276790Y0066993D01*
X0276999Y0066349D01*
X0277307Y0065746D01*
X0277704Y0065199D01*
X0278183Y0064720D01*
X0278731Y0064322D01*
X0279334Y0064015D01*
X0279977Y0063806D01*
X0280684Y0063844D02*
X0281284Y0063844D01*
X0281284Y0063700D02*
X0281323Y0063700D01*
X0281991Y0063806D01*
X0282635Y0064015D01*
X0283238Y0064322D01*
X0283786Y0064720D01*
X0284264Y0065199D01*
X0284662Y0065746D01*
X0284969Y0066349D01*
X0285178Y0066993D01*
X0285284Y0067662D01*
X0285284Y0067700D01*
X0281284Y0067700D01*
X0281284Y0063700D01*
X0281284Y0064442D02*
X0280684Y0064442D01*
X0280684Y0065041D02*
X0281284Y0065041D01*
X0281284Y0065639D02*
X0280684Y0065639D01*
X0280684Y0066238D02*
X0281284Y0066238D01*
X0281284Y0066836D02*
X0280684Y0066836D01*
X0280684Y0067435D02*
X0281284Y0067435D01*
X0281284Y0067700D02*
X0280684Y0067700D01*
X0280684Y0068300D01*
X0276684Y0068300D01*
X0276684Y0068338D01*
X0276790Y0069007D01*
X0276999Y0069651D01*
X0277307Y0070254D01*
X0277704Y0070801D01*
X0278183Y0071280D01*
X0278731Y0071678D01*
X0279334Y0071985D01*
X0279977Y0072194D01*
X0280646Y0072300D01*
X0280684Y0072300D01*
X0280684Y0068300D01*
X0281284Y0068300D01*
X0281284Y0072300D01*
X0281323Y0072300D01*
X0281991Y0072194D01*
X0282635Y0071985D01*
X0283238Y0071678D01*
X0283786Y0071280D01*
X0284264Y0070801D01*
X0284662Y0070254D01*
X0284969Y0069651D01*
X0285178Y0069007D01*
X0285284Y0068338D01*
X0285284Y0068300D01*
X0281284Y0068300D01*
X0281284Y0067700D01*
X0281284Y0068033D02*
X0346384Y0068033D01*
X0346384Y0067831D02*
X0347614Y0066601D01*
X0349354Y0066601D01*
X0350584Y0067831D01*
X0350584Y0069571D01*
X0349354Y0070801D01*
X0347614Y0070801D01*
X0346384Y0069571D01*
X0346384Y0067831D01*
X0346781Y0067435D02*
X0285248Y0067435D01*
X0285127Y0066836D02*
X0347379Y0066836D01*
X0346384Y0068632D02*
X0285238Y0068632D01*
X0285106Y0069230D02*
X0346384Y0069230D01*
X0346642Y0069829D02*
X0284878Y0069829D01*
X0284536Y0070427D02*
X0347241Y0070427D01*
X0349728Y0070427D02*
X0487477Y0070427D01*
X0487477Y0069829D02*
X0350326Y0069829D01*
X0350584Y0069230D02*
X0487477Y0069230D01*
X0487477Y0068632D02*
X0350584Y0068632D01*
X0350584Y0068033D02*
X0487477Y0068033D01*
X0487477Y0067435D02*
X0350188Y0067435D01*
X0349589Y0066836D02*
X0487477Y0066836D01*
X0487477Y0066238D02*
X0284912Y0066238D01*
X0284584Y0065639D02*
X0487477Y0065639D01*
X0487477Y0065041D02*
X0284106Y0065041D01*
X0283403Y0064442D02*
X0487477Y0064442D01*
X0487477Y0063844D02*
X0282108Y0063844D01*
X0278566Y0064442D02*
X0272586Y0064442D01*
X0273193Y0064694D02*
X0274291Y0065791D01*
X0274884Y0067224D01*
X0274884Y0068776D01*
X0274291Y0070209D01*
X0273193Y0071306D01*
X0271760Y0071900D01*
X0270208Y0071900D01*
X0268775Y0071306D01*
X0267678Y0070209D01*
X0267084Y0068776D01*
X0267084Y0067224D01*
X0267678Y0065791D01*
X0268775Y0064694D01*
X0270208Y0064100D01*
X0271760Y0064100D01*
X0273193Y0064694D01*
X0273540Y0065041D02*
X0277862Y0065041D01*
X0277384Y0065639D02*
X0274139Y0065639D01*
X0274476Y0066238D02*
X0277056Y0066238D01*
X0276841Y0066836D02*
X0274724Y0066836D01*
X0274884Y0067435D02*
X0276720Y0067435D01*
X0276731Y0068632D02*
X0274884Y0068632D01*
X0274884Y0068033D02*
X0280684Y0068033D01*
X0280684Y0068632D02*
X0281284Y0068632D01*
X0281284Y0069230D02*
X0280684Y0069230D01*
X0280684Y0069829D02*
X0281284Y0069829D01*
X0281284Y0070427D02*
X0280684Y0070427D01*
X0280684Y0071026D02*
X0281284Y0071026D01*
X0281284Y0071624D02*
X0280684Y0071624D01*
X0280684Y0072223D02*
X0281284Y0072223D01*
X0281810Y0072223D02*
X0487476Y0072223D01*
X0487476Y0072821D02*
X0381586Y0072821D01*
X0381581Y0072816D02*
X0382869Y0074104D01*
X0382869Y0075927D01*
X0381581Y0077216D01*
X0379758Y0077216D01*
X0378469Y0075927D01*
X0378469Y0074104D01*
X0379758Y0072816D01*
X0381581Y0072816D01*
X0382185Y0073420D02*
X0487476Y0073420D01*
X0487476Y0074018D02*
X0382783Y0074018D01*
X0382869Y0074617D02*
X0487476Y0074617D01*
X0487476Y0075215D02*
X0382869Y0075215D01*
X0382869Y0075814D02*
X0487476Y0075814D01*
X0487476Y0076412D02*
X0382384Y0076412D01*
X0381785Y0077011D02*
X0487476Y0077011D01*
X0487476Y0077609D02*
X0039535Y0077609D01*
X0039535Y0077011D02*
X0369317Y0077011D01*
X0369522Y0077216D02*
X0368233Y0075927D01*
X0368233Y0074104D01*
X0369522Y0072816D01*
X0371344Y0072816D01*
X0372633Y0074104D01*
X0372633Y0075927D01*
X0371344Y0077216D01*
X0369522Y0077216D01*
X0368718Y0076412D02*
X0039535Y0076412D01*
X0039535Y0075814D02*
X0368233Y0075814D01*
X0368233Y0075215D02*
X0039535Y0075215D01*
X0039535Y0074617D02*
X0368233Y0074617D01*
X0368319Y0074018D02*
X0039535Y0074018D01*
X0039536Y0073420D02*
X0368918Y0073420D01*
X0369516Y0072821D02*
X0039536Y0072821D01*
X0039536Y0072223D02*
X0280159Y0072223D01*
X0278657Y0071624D02*
X0272425Y0071624D01*
X0273474Y0071026D02*
X0277929Y0071026D01*
X0277433Y0070427D02*
X0274072Y0070427D01*
X0274448Y0069829D02*
X0277090Y0069829D01*
X0276863Y0069230D02*
X0274696Y0069230D01*
X0269543Y0071624D02*
X0039536Y0071624D01*
X0039536Y0071026D02*
X0268495Y0071026D01*
X0267896Y0070427D02*
X0039536Y0070427D01*
X0039536Y0069829D02*
X0267520Y0069829D01*
X0267273Y0069230D02*
X0039536Y0069230D01*
X0039536Y0068632D02*
X0267084Y0068632D01*
X0267084Y0068033D02*
X0039536Y0068033D01*
X0039537Y0067435D02*
X0267084Y0067435D01*
X0267245Y0066836D02*
X0039537Y0066836D01*
X0039537Y0066238D02*
X0267493Y0066238D01*
X0267830Y0065639D02*
X0039537Y0065639D01*
X0039537Y0065041D02*
X0268428Y0065041D01*
X0269382Y0064442D02*
X0039537Y0064442D01*
X0039535Y0078208D02*
X0487476Y0078208D01*
X0487476Y0078806D02*
X0039535Y0078806D01*
X0039535Y0079405D02*
X0487475Y0079405D01*
X0487475Y0080003D02*
X0039534Y0080003D01*
X0039534Y0080602D02*
X0487475Y0080602D01*
X0487475Y0081201D02*
X0039534Y0081201D01*
X0039534Y0081799D02*
X0487475Y0081799D01*
X0487475Y0082398D02*
X0381910Y0082398D01*
X0381384Y0081871D02*
X0382672Y0083160D01*
X0382672Y0084982D01*
X0381384Y0086271D01*
X0379561Y0086271D01*
X0378272Y0084982D01*
X0378272Y0083160D01*
X0379561Y0081871D01*
X0381384Y0081871D01*
X0382509Y0082996D02*
X0487475Y0082996D01*
X0487475Y0083595D02*
X0382672Y0083595D01*
X0382672Y0084193D02*
X0487475Y0084193D01*
X0487475Y0084792D02*
X0382672Y0084792D01*
X0382264Y0085390D02*
X0455389Y0085390D01*
X0455234Y0085454D02*
X0456667Y0084861D01*
X0458219Y0084861D01*
X0459652Y0085454D01*
X0460749Y0086552D01*
X0461343Y0087985D01*
X0461343Y0089536D01*
X0460749Y0090970D01*
X0459652Y0092067D01*
X0458219Y0092661D01*
X0456667Y0092661D01*
X0455234Y0092067D01*
X0454137Y0090970D01*
X0453543Y0089536D01*
X0453543Y0087985D01*
X0454137Y0086552D01*
X0455234Y0085454D01*
X0454699Y0085989D02*
X0421778Y0085989D01*
X0422426Y0086257D02*
X0423523Y0087354D01*
X0424117Y0088787D01*
X0424117Y0090339D01*
X0423523Y0091772D01*
X0422426Y0092869D01*
X0420992Y0093463D01*
X0419441Y0093463D01*
X0418007Y0092869D01*
X0416910Y0091772D01*
X0416317Y0090339D01*
X0416317Y0088787D01*
X0416910Y0087354D01*
X0418007Y0086257D01*
X0419441Y0085663D01*
X0420992Y0085663D01*
X0422426Y0086257D01*
X0422756Y0086587D02*
X0454122Y0086587D01*
X0453874Y0087186D02*
X0423355Y0087186D01*
X0423701Y0087784D02*
X0453626Y0087784D01*
X0453543Y0088383D02*
X0423949Y0088383D01*
X0424117Y0088981D02*
X0453543Y0088981D01*
X0453561Y0089580D02*
X0424117Y0089580D01*
X0424117Y0090178D02*
X0453809Y0090178D01*
X0454057Y0090777D02*
X0423935Y0090777D01*
X0423687Y0091375D02*
X0454542Y0091375D01*
X0455140Y0091974D02*
X0423321Y0091974D01*
X0422723Y0092572D02*
X0456453Y0092572D01*
X0458432Y0092572D02*
X0487474Y0092572D01*
X0487474Y0091974D02*
X0459745Y0091974D01*
X0460344Y0091375D02*
X0487474Y0091375D01*
X0487474Y0090777D02*
X0460829Y0090777D01*
X0461077Y0090178D02*
X0487474Y0090178D01*
X0487474Y0089580D02*
X0461325Y0089580D01*
X0461343Y0088981D02*
X0487474Y0088981D01*
X0487474Y0088383D02*
X0461343Y0088383D01*
X0461260Y0087784D02*
X0487474Y0087784D01*
X0487475Y0087186D02*
X0461012Y0087186D01*
X0460764Y0086587D02*
X0487475Y0086587D01*
X0487475Y0085989D02*
X0460186Y0085989D01*
X0459497Y0085390D02*
X0487475Y0085390D01*
X0487474Y0093171D02*
X0421698Y0093171D01*
X0418735Y0093171D02*
X0398814Y0093171D01*
X0398814Y0093081D02*
X0397525Y0091792D01*
X0395703Y0091792D01*
X0394414Y0093081D01*
X0394414Y0094903D01*
X0395703Y0096192D01*
X0397525Y0096192D01*
X0398814Y0094903D01*
X0398814Y0093081D01*
X0398814Y0093769D02*
X0487474Y0093769D01*
X0487474Y0094368D02*
X0398814Y0094368D01*
X0398751Y0094966D02*
X0487474Y0094966D01*
X0487474Y0095565D02*
X0398153Y0095565D01*
X0397554Y0096163D02*
X0487473Y0096163D01*
X0487473Y0096762D02*
X0351238Y0096762D01*
X0350693Y0097306D02*
X0349260Y0097900D01*
X0347708Y0097900D01*
X0346275Y0097306D01*
X0345178Y0096209D01*
X0344584Y0094776D01*
X0344584Y0093224D01*
X0345178Y0091791D01*
X0346275Y0090694D01*
X0347708Y0090100D01*
X0349260Y0090100D01*
X0350693Y0090694D01*
X0351791Y0091791D01*
X0352384Y0093224D01*
X0352384Y0094776D01*
X0351791Y0096209D01*
X0350693Y0097306D01*
X0350563Y0097360D02*
X0487473Y0097360D01*
X0487473Y0097959D02*
X0039532Y0097959D01*
X0039531Y0098557D02*
X0487473Y0098557D01*
X0487473Y0099156D02*
X0039531Y0099156D01*
X0039531Y0099754D02*
X0269336Y0099754D01*
X0269708Y0099600D02*
X0271260Y0099600D01*
X0272693Y0100194D01*
X0273791Y0101291D01*
X0274384Y0102724D01*
X0274384Y0104276D01*
X0273791Y0105709D01*
X0272693Y0106806D01*
X0271260Y0107400D01*
X0269708Y0107400D01*
X0268275Y0106806D01*
X0267178Y0105709D01*
X0266584Y0104276D01*
X0266584Y0102724D01*
X0267178Y0101291D01*
X0268275Y0100194D01*
X0269708Y0099600D01*
X0268116Y0100353D02*
X0039531Y0100353D01*
X0039531Y0100951D02*
X0267517Y0100951D01*
X0267071Y0101550D02*
X0039531Y0101550D01*
X0039531Y0102148D02*
X0266823Y0102148D01*
X0266584Y0102747D02*
X0039531Y0102747D01*
X0039531Y0103345D02*
X0266584Y0103345D01*
X0266584Y0103944D02*
X0039531Y0103944D01*
X0039531Y0104542D02*
X0266695Y0104542D01*
X0266943Y0105141D02*
X0039530Y0105141D01*
X0039530Y0105739D02*
X0267208Y0105739D01*
X0267807Y0106338D02*
X0039530Y0106338D01*
X0039530Y0106937D02*
X0268590Y0106937D01*
X0272379Y0106937D02*
X0278590Y0106937D01*
X0278275Y0106806D02*
X0279708Y0107400D01*
X0281260Y0107400D01*
X0282693Y0106806D01*
X0283791Y0105709D01*
X0284384Y0104276D01*
X0284384Y0102724D01*
X0283791Y0101291D01*
X0282693Y0100194D01*
X0281260Y0099600D01*
X0279708Y0099600D01*
X0278275Y0100194D01*
X0277178Y0101291D01*
X0276584Y0102724D01*
X0276584Y0104276D01*
X0277178Y0105709D01*
X0278275Y0106806D01*
X0277807Y0106338D02*
X0273162Y0106338D01*
X0273760Y0105739D02*
X0277208Y0105739D01*
X0276943Y0105141D02*
X0274026Y0105141D01*
X0274274Y0104542D02*
X0276695Y0104542D01*
X0276584Y0103944D02*
X0274384Y0103944D01*
X0274384Y0103345D02*
X0276584Y0103345D01*
X0276584Y0102747D02*
X0274384Y0102747D01*
X0274146Y0102148D02*
X0276823Y0102148D01*
X0277071Y0101550D02*
X0273898Y0101550D01*
X0273451Y0100951D02*
X0277517Y0100951D01*
X0278116Y0100353D02*
X0272853Y0100353D01*
X0271633Y0099754D02*
X0279336Y0099754D01*
X0281633Y0099754D02*
X0487473Y0099754D01*
X0487473Y0100353D02*
X0282853Y0100353D01*
X0283451Y0100951D02*
X0487473Y0100951D01*
X0487473Y0101550D02*
X0283898Y0101550D01*
X0284146Y0102148D02*
X0487473Y0102148D01*
X0487473Y0102747D02*
X0284384Y0102747D01*
X0284384Y0103345D02*
X0487473Y0103345D01*
X0487473Y0103944D02*
X0284384Y0103944D01*
X0284274Y0104542D02*
X0487473Y0104542D01*
X0487472Y0105141D02*
X0284026Y0105141D01*
X0283760Y0105739D02*
X0487472Y0105739D01*
X0487472Y0106338D02*
X0283162Y0106338D01*
X0282379Y0106937D02*
X0487472Y0106937D01*
X0487472Y0107535D02*
X0039530Y0107535D01*
X0039530Y0108134D02*
X0487472Y0108134D01*
X0487472Y0108732D02*
X0039530Y0108732D01*
X0039530Y0109331D02*
X0487472Y0109331D01*
X0487472Y0109929D02*
X0039530Y0109929D01*
X0039530Y0110528D02*
X0487472Y0110528D01*
X0487472Y0111126D02*
X0039529Y0111126D01*
X0039529Y0111725D02*
X0487472Y0111725D01*
X0487472Y0112323D02*
X0039529Y0112323D01*
X0039529Y0112922D02*
X0487472Y0112922D01*
X0487471Y0113520D02*
X0039529Y0113520D01*
X0039529Y0114119D02*
X0123091Y0114119D01*
X0123500Y0113709D02*
X0125398Y0113709D01*
X0126739Y0115051D01*
X0126739Y0116949D01*
X0125398Y0118291D01*
X0123500Y0118291D01*
X0122158Y0116949D01*
X0122158Y0115051D01*
X0123500Y0113709D01*
X0122492Y0114717D02*
X0039529Y0114717D01*
X0039529Y0115316D02*
X0122158Y0115316D01*
X0122158Y0115914D02*
X0039529Y0115914D01*
X0039529Y0116513D02*
X0122158Y0116513D01*
X0122321Y0117111D02*
X0039529Y0117111D01*
X0039528Y0117710D02*
X0122919Y0117710D01*
X0125978Y0117710D02*
X0309448Y0117710D01*
X0309744Y0117414D02*
X0311177Y0116820D01*
X0312729Y0116820D01*
X0314162Y0117414D01*
X0315259Y0118511D01*
X0315853Y0119945D01*
X0315853Y0121496D01*
X0315259Y0122930D01*
X0314162Y0124027D01*
X0312729Y0124620D01*
X0311177Y0124620D01*
X0309744Y0124027D01*
X0308646Y0122930D01*
X0308053Y0121496D01*
X0308053Y0119945D01*
X0308646Y0118511D01*
X0309744Y0117414D01*
X0310475Y0117111D02*
X0126577Y0117111D01*
X0126739Y0116513D02*
X0487471Y0116513D01*
X0487471Y0117111D02*
X0323430Y0117111D01*
X0322729Y0116820D02*
X0324162Y0117414D01*
X0325259Y0118511D01*
X0325853Y0119945D01*
X0325853Y0121496D01*
X0325259Y0122930D01*
X0324162Y0124027D01*
X0322729Y0124620D01*
X0321177Y0124620D01*
X0319744Y0124027D01*
X0318646Y0122930D01*
X0318053Y0121496D01*
X0318053Y0119945D01*
X0318646Y0118511D01*
X0319744Y0117414D01*
X0321177Y0116820D01*
X0322729Y0116820D01*
X0324457Y0117710D02*
X0487471Y0117710D01*
X0487471Y0118308D02*
X0341049Y0118308D01*
X0341029Y0118288D02*
X0342318Y0119577D01*
X0342318Y0121399D01*
X0341029Y0122688D01*
X0339207Y0122688D01*
X0337918Y0121399D01*
X0337918Y0119577D01*
X0339207Y0118288D01*
X0341029Y0118288D01*
X0341648Y0118907D02*
X0487471Y0118907D01*
X0487471Y0119505D02*
X0342246Y0119505D01*
X0342318Y0120104D02*
X0487471Y0120104D01*
X0487471Y0120702D02*
X0342318Y0120702D01*
X0342318Y0121301D02*
X0487471Y0121301D01*
X0487470Y0121899D02*
X0341818Y0121899D01*
X0341220Y0122498D02*
X0487470Y0122498D01*
X0487470Y0123096D02*
X0325092Y0123096D01*
X0325438Y0122498D02*
X0339016Y0122498D01*
X0338418Y0121899D02*
X0325686Y0121899D01*
X0325853Y0121301D02*
X0337918Y0121301D01*
X0337918Y0120702D02*
X0325853Y0120702D01*
X0325853Y0120104D02*
X0337918Y0120104D01*
X0337990Y0119505D02*
X0325671Y0119505D01*
X0325423Y0118907D02*
X0338588Y0118907D01*
X0339187Y0118308D02*
X0325056Y0118308D01*
X0320475Y0117111D02*
X0313430Y0117111D01*
X0314457Y0117710D02*
X0319448Y0117710D01*
X0318850Y0118308D02*
X0315056Y0118308D01*
X0315423Y0118907D02*
X0318483Y0118907D01*
X0318235Y0119505D02*
X0315671Y0119505D01*
X0315853Y0120104D02*
X0318053Y0120104D01*
X0318053Y0120702D02*
X0315853Y0120702D01*
X0315853Y0121301D02*
X0318053Y0121301D01*
X0318220Y0121899D02*
X0315686Y0121899D01*
X0315438Y0122498D02*
X0318468Y0122498D01*
X0318813Y0123096D02*
X0315092Y0123096D01*
X0314494Y0123695D02*
X0319412Y0123695D01*
X0320387Y0124293D02*
X0313518Y0124293D01*
X0310387Y0124293D02*
X0039527Y0124293D01*
X0039527Y0123695D02*
X0309412Y0123695D01*
X0308813Y0123096D02*
X0039528Y0123096D01*
X0039528Y0122498D02*
X0308468Y0122498D01*
X0308220Y0121899D02*
X0039528Y0121899D01*
X0039528Y0121301D02*
X0308053Y0121301D01*
X0308053Y0120702D02*
X0039528Y0120702D01*
X0039528Y0120104D02*
X0308053Y0120104D01*
X0308235Y0119505D02*
X0039528Y0119505D01*
X0039528Y0118907D02*
X0308483Y0118907D01*
X0308850Y0118308D02*
X0039528Y0118308D01*
X0039527Y0124892D02*
X0487470Y0124892D01*
X0487470Y0125490D02*
X0039527Y0125490D01*
X0039527Y0126089D02*
X0487470Y0126089D01*
X0487470Y0126687D02*
X0039527Y0126687D01*
X0039527Y0127286D02*
X0487470Y0127286D01*
X0487470Y0127884D02*
X0039527Y0127884D01*
X0039527Y0128483D02*
X0057270Y0128483D01*
X0057791Y0127961D02*
X0059689Y0127961D01*
X0061031Y0129303D01*
X0061031Y0131201D01*
X0059689Y0132543D01*
X0057791Y0132543D01*
X0056450Y0131201D01*
X0056450Y0129303D01*
X0057791Y0127961D01*
X0056671Y0129081D02*
X0039527Y0129081D01*
X0039526Y0129680D02*
X0056450Y0129680D01*
X0056450Y0130278D02*
X0039526Y0130278D01*
X0039526Y0130877D02*
X0056450Y0130877D01*
X0056724Y0131475D02*
X0039526Y0131475D01*
X0039526Y0132074D02*
X0057323Y0132074D01*
X0060157Y0132074D02*
X0170012Y0132074D01*
X0170162Y0131712D02*
X0171259Y0130615D01*
X0172693Y0130021D01*
X0174244Y0130021D01*
X0175678Y0130615D01*
X0176775Y0131712D01*
X0177368Y0133145D01*
X0177368Y0134697D01*
X0176775Y0136130D01*
X0175678Y0137228D01*
X0174244Y0137821D01*
X0172693Y0137821D01*
X0171259Y0137228D01*
X0170162Y0136130D01*
X0169569Y0134697D01*
X0169569Y0133145D01*
X0170162Y0131712D01*
X0170399Y0131475D02*
X0060756Y0131475D01*
X0061031Y0130877D02*
X0170997Y0130877D01*
X0172072Y0130278D02*
X0061031Y0130278D01*
X0061031Y0129680D02*
X0487470Y0129680D01*
X0487469Y0130278D02*
X0174865Y0130278D01*
X0175940Y0130877D02*
X0487469Y0130877D01*
X0487469Y0131475D02*
X0282241Y0131475D01*
X0282768Y0131694D02*
X0283865Y0132791D01*
X0284459Y0134224D01*
X0284459Y0135776D01*
X0283865Y0137209D01*
X0282768Y0138306D01*
X0281335Y0138900D01*
X0279783Y0138900D01*
X0278350Y0138306D01*
X0277253Y0137209D01*
X0276659Y0135776D01*
X0276659Y0134224D01*
X0277253Y0132791D01*
X0278350Y0131694D01*
X0279783Y0131100D01*
X0281335Y0131100D01*
X0282768Y0131694D01*
X0283148Y0132074D02*
X0487469Y0132074D01*
X0487469Y0132672D02*
X0283747Y0132672D01*
X0284064Y0133271D02*
X0487469Y0133271D01*
X0487469Y0133870D02*
X0284312Y0133870D01*
X0284459Y0134468D02*
X0487469Y0134468D01*
X0487469Y0135067D02*
X0284459Y0135067D01*
X0284459Y0135665D02*
X0487469Y0135665D01*
X0487469Y0136264D02*
X0284257Y0136264D01*
X0284009Y0136862D02*
X0487469Y0136862D01*
X0487469Y0137461D02*
X0283614Y0137461D01*
X0283015Y0138059D02*
X0487469Y0138059D01*
X0487468Y0138658D02*
X0281920Y0138658D01*
X0279198Y0138658D02*
X0271920Y0138658D01*
X0271335Y0138900D02*
X0269783Y0138900D01*
X0268350Y0138306D01*
X0267253Y0137209D01*
X0266659Y0135776D01*
X0266659Y0134224D01*
X0267253Y0132791D01*
X0268350Y0131694D01*
X0269783Y0131100D01*
X0271335Y0131100D01*
X0272768Y0131694D01*
X0273865Y0132791D01*
X0274459Y0134224D01*
X0274459Y0135776D01*
X0273865Y0137209D01*
X0272768Y0138306D01*
X0271335Y0138900D01*
X0273015Y0138059D02*
X0278103Y0138059D01*
X0277504Y0137461D02*
X0273614Y0137461D01*
X0274009Y0136862D02*
X0277109Y0136862D01*
X0276861Y0136264D02*
X0274257Y0136264D01*
X0274459Y0135665D02*
X0276659Y0135665D01*
X0276659Y0135067D02*
X0274459Y0135067D01*
X0274459Y0134468D02*
X0276659Y0134468D01*
X0276806Y0133870D02*
X0274312Y0133870D01*
X0274064Y0133271D02*
X0277054Y0133271D01*
X0277371Y0132672D02*
X0273747Y0132672D01*
X0273148Y0132074D02*
X0277970Y0132074D01*
X0278877Y0131475D02*
X0272241Y0131475D01*
X0268877Y0131475D02*
X0233666Y0131475D01*
X0234193Y0131694D02*
X0235291Y0132791D01*
X0235884Y0134224D01*
X0235884Y0135776D01*
X0235291Y0137209D01*
X0234193Y0138306D01*
X0232760Y0138900D01*
X0231208Y0138900D01*
X0229775Y0138306D01*
X0228678Y0137209D01*
X0228084Y0135776D01*
X0228084Y0134224D01*
X0228678Y0132791D01*
X0229775Y0131694D01*
X0231208Y0131100D01*
X0232760Y0131100D01*
X0234193Y0131694D01*
X0234574Y0132074D02*
X0267970Y0132074D01*
X0267371Y0132672D02*
X0235172Y0132672D01*
X0235489Y0133271D02*
X0267054Y0133271D01*
X0266806Y0133870D02*
X0235737Y0133870D01*
X0235884Y0134468D02*
X0266659Y0134468D01*
X0266659Y0135067D02*
X0235884Y0135067D01*
X0235884Y0135665D02*
X0266659Y0135665D01*
X0266861Y0136264D02*
X0235682Y0136264D01*
X0235434Y0136862D02*
X0267109Y0136862D01*
X0267504Y0137461D02*
X0235039Y0137461D01*
X0234441Y0138059D02*
X0268103Y0138059D01*
X0269198Y0138658D02*
X0233345Y0138658D01*
X0230623Y0138658D02*
X0223345Y0138658D01*
X0222760Y0138900D02*
X0221208Y0138900D01*
X0219775Y0138306D01*
X0218678Y0137209D01*
X0218084Y0135776D01*
X0218084Y0134224D01*
X0218678Y0132791D01*
X0219775Y0131694D01*
X0221208Y0131100D01*
X0222760Y0131100D01*
X0224193Y0131694D01*
X0225291Y0132791D01*
X0225884Y0134224D01*
X0225884Y0135776D01*
X0225291Y0137209D01*
X0224193Y0138306D01*
X0222760Y0138900D01*
X0224441Y0138059D02*
X0229528Y0138059D01*
X0228929Y0137461D02*
X0225039Y0137461D01*
X0225434Y0136862D02*
X0228534Y0136862D01*
X0228286Y0136264D02*
X0225682Y0136264D01*
X0225884Y0135665D02*
X0228084Y0135665D01*
X0228084Y0135067D02*
X0225884Y0135067D01*
X0225884Y0134468D02*
X0228084Y0134468D01*
X0228231Y0133870D02*
X0225737Y0133870D01*
X0225489Y0133271D02*
X0228479Y0133271D01*
X0228796Y0132672D02*
X0225172Y0132672D01*
X0224574Y0132074D02*
X0229395Y0132074D01*
X0230302Y0131475D02*
X0223666Y0131475D01*
X0220302Y0131475D02*
X0176538Y0131475D01*
X0176925Y0132074D02*
X0219395Y0132074D01*
X0218796Y0132672D02*
X0177173Y0132672D01*
X0177368Y0133271D02*
X0218479Y0133271D01*
X0218231Y0133870D02*
X0177368Y0133870D01*
X0177368Y0134468D02*
X0218084Y0134468D01*
X0218084Y0135067D02*
X0177215Y0135067D01*
X0176968Y0135665D02*
X0218084Y0135665D01*
X0218286Y0136264D02*
X0176642Y0136264D01*
X0176043Y0136862D02*
X0218534Y0136862D01*
X0218929Y0137461D02*
X0175115Y0137461D01*
X0171822Y0137461D02*
X0075283Y0137461D01*
X0075283Y0137256D02*
X0073941Y0135914D01*
X0072043Y0135914D01*
X0070702Y0137256D01*
X0070702Y0139153D01*
X0072043Y0140495D01*
X0073941Y0140495D01*
X0075283Y0139153D01*
X0075283Y0137256D01*
X0074889Y0136862D02*
X0170894Y0136862D01*
X0170295Y0136264D02*
X0074290Y0136264D01*
X0075283Y0138059D02*
X0219528Y0138059D01*
X0220623Y0138658D02*
X0075283Y0138658D01*
X0075180Y0139256D02*
X0127717Y0139256D01*
X0128264Y0138709D02*
X0126922Y0140051D01*
X0126922Y0141949D01*
X0128264Y0143291D01*
X0130161Y0143291D01*
X0131503Y0141949D01*
X0131503Y0140051D01*
X0130161Y0138709D01*
X0128264Y0138709D01*
X0127119Y0139855D02*
X0074582Y0139855D01*
X0073983Y0140453D02*
X0126922Y0140453D01*
X0126922Y0141052D02*
X0039525Y0141052D01*
X0039525Y0141650D02*
X0126922Y0141650D01*
X0127222Y0142249D02*
X0039524Y0142249D01*
X0039524Y0142847D02*
X0127820Y0142847D01*
X0130605Y0142847D02*
X0487468Y0142847D01*
X0487468Y0142249D02*
X0131203Y0142249D01*
X0131503Y0141650D02*
X0487468Y0141650D01*
X0487468Y0141052D02*
X0131503Y0141052D01*
X0131503Y0140453D02*
X0487468Y0140453D01*
X0487468Y0139855D02*
X0131307Y0139855D01*
X0130708Y0139256D02*
X0487468Y0139256D01*
X0487468Y0143446D02*
X0039524Y0143446D01*
X0039524Y0144044D02*
X0487468Y0144044D01*
X0487468Y0144643D02*
X0039524Y0144643D01*
X0039524Y0145241D02*
X0487468Y0145241D01*
X0487468Y0145840D02*
X0039524Y0145840D01*
X0039524Y0146438D02*
X0487468Y0146438D01*
X0487468Y0147037D02*
X0039524Y0147037D01*
X0039524Y0147635D02*
X0487467Y0147635D01*
X0487467Y0148234D02*
X0039523Y0148234D01*
X0039523Y0148832D02*
X0487467Y0148832D01*
X0487467Y0149431D02*
X0039523Y0149431D01*
X0039523Y0150029D02*
X0443345Y0150029D01*
X0443389Y0150007D02*
X0444032Y0149798D01*
X0444701Y0149692D01*
X0444739Y0149692D01*
X0444739Y0153692D01*
X0440739Y0153692D01*
X0440739Y0153654D01*
X0440845Y0152985D01*
X0441054Y0152341D01*
X0441362Y0151738D01*
X0441760Y0151191D01*
X0442238Y0150712D01*
X0442786Y0150314D01*
X0443389Y0150007D01*
X0442354Y0150628D02*
X0039523Y0150628D01*
X0039523Y0151226D02*
X0441734Y0151226D01*
X0441318Y0151825D02*
X0039523Y0151825D01*
X0039523Y0152423D02*
X0441028Y0152423D01*
X0440839Y0153022D02*
X0039523Y0153022D01*
X0039523Y0153620D02*
X0440745Y0153620D01*
X0440739Y0154292D02*
X0444739Y0154292D01*
X0444739Y0153692D01*
X0445339Y0153692D01*
X0445339Y0149692D01*
X0445378Y0149692D01*
X0446046Y0149798D01*
X0446690Y0150007D01*
X0447293Y0150314D01*
X0447841Y0150712D01*
X0448319Y0151191D01*
X0448717Y0151738D01*
X0449024Y0152341D01*
X0449233Y0152985D01*
X0449339Y0153654D01*
X0449339Y0153692D01*
X0445339Y0153692D01*
X0445339Y0154292D01*
X0444739Y0154292D01*
X0444739Y0158292D01*
X0444701Y0158292D01*
X0444032Y0158186D01*
X0443389Y0157977D01*
X0442786Y0157670D01*
X0442238Y0157272D01*
X0441760Y0156793D01*
X0441362Y0156246D01*
X0441054Y0155643D01*
X0440845Y0154999D01*
X0440739Y0154331D01*
X0440739Y0154292D01*
X0440816Y0154817D02*
X0039522Y0154817D01*
X0039523Y0154219D02*
X0444739Y0154219D01*
X0444739Y0154817D02*
X0445339Y0154817D01*
X0445339Y0154292D02*
X0445339Y0158292D01*
X0445378Y0158292D01*
X0446046Y0158186D01*
X0446690Y0157977D01*
X0447293Y0157670D01*
X0447841Y0157272D01*
X0448319Y0156793D01*
X0448717Y0156246D01*
X0449024Y0155643D01*
X0449233Y0154999D01*
X0449339Y0154331D01*
X0449339Y0154292D01*
X0445339Y0154292D01*
X0445339Y0154219D02*
X0487467Y0154219D01*
X0487467Y0154817D02*
X0449262Y0154817D01*
X0449098Y0155416D02*
X0487467Y0155416D01*
X0487466Y0156014D02*
X0448835Y0156014D01*
X0448450Y0156613D02*
X0487466Y0156613D01*
X0487466Y0157211D02*
X0447901Y0157211D01*
X0447018Y0157810D02*
X0487466Y0157810D01*
X0487466Y0158408D02*
X0235063Y0158408D01*
X0234560Y0158200D02*
X0235993Y0158794D01*
X0237091Y0159891D01*
X0237684Y0161324D01*
X0237684Y0162876D01*
X0237091Y0164309D01*
X0235993Y0165406D01*
X0234560Y0166000D01*
X0233008Y0166000D01*
X0231575Y0165406D01*
X0230478Y0164309D01*
X0229884Y0162876D01*
X0229884Y0161324D01*
X0230478Y0159891D01*
X0231575Y0158794D01*
X0233008Y0158200D01*
X0234560Y0158200D01*
X0236207Y0159007D02*
X0487466Y0159007D01*
X0487466Y0159605D02*
X0236805Y0159605D01*
X0237220Y0160204D02*
X0487466Y0160204D01*
X0487466Y0160803D02*
X0237468Y0160803D01*
X0237684Y0161401D02*
X0487466Y0161401D01*
X0487466Y0162000D02*
X0237684Y0162000D01*
X0237684Y0162598D02*
X0256383Y0162598D01*
X0256768Y0162213D02*
X0258665Y0162213D01*
X0260007Y0163555D01*
X0260007Y0165453D01*
X0258665Y0166794D01*
X0256768Y0166794D01*
X0255426Y0165453D01*
X0255426Y0163555D01*
X0256768Y0162213D01*
X0255785Y0163197D02*
X0237551Y0163197D01*
X0237303Y0163795D02*
X0255426Y0163795D01*
X0255426Y0164394D02*
X0237006Y0164394D01*
X0236408Y0164992D02*
X0255426Y0164992D01*
X0255564Y0165591D02*
X0235548Y0165591D01*
X0232020Y0165591D02*
X0209948Y0165591D01*
X0210393Y0165406D02*
X0208960Y0166000D01*
X0207408Y0166000D01*
X0205975Y0165406D01*
X0204878Y0164309D01*
X0204284Y0162876D01*
X0204284Y0161324D01*
X0204878Y0159891D01*
X0205975Y0158794D01*
X0207408Y0158200D01*
X0208960Y0158200D01*
X0210393Y0158794D01*
X0211491Y0159891D01*
X0212084Y0161324D01*
X0212084Y0162876D01*
X0211491Y0164309D01*
X0210393Y0165406D01*
X0210808Y0164992D02*
X0231161Y0164992D01*
X0230562Y0164394D02*
X0211406Y0164394D01*
X0211703Y0163795D02*
X0230265Y0163795D01*
X0230017Y0163197D02*
X0211951Y0163197D01*
X0212084Y0162598D02*
X0229884Y0162598D01*
X0229884Y0162000D02*
X0212084Y0162000D01*
X0212084Y0161401D02*
X0229884Y0161401D01*
X0230100Y0160803D02*
X0211868Y0160803D01*
X0211620Y0160204D02*
X0230348Y0160204D01*
X0230763Y0159605D02*
X0211205Y0159605D01*
X0210607Y0159007D02*
X0231362Y0159007D01*
X0232505Y0158408D02*
X0209463Y0158408D01*
X0206905Y0158408D02*
X0039522Y0158408D01*
X0039522Y0157810D02*
X0443061Y0157810D01*
X0442178Y0157211D02*
X0039522Y0157211D01*
X0039522Y0156613D02*
X0441628Y0156613D01*
X0441244Y0156014D02*
X0039522Y0156014D01*
X0039522Y0155416D02*
X0440981Y0155416D01*
X0444739Y0155416D02*
X0445339Y0155416D01*
X0445339Y0156014D02*
X0444739Y0156014D01*
X0444739Y0156613D02*
X0445339Y0156613D01*
X0445339Y0157211D02*
X0444739Y0157211D01*
X0444739Y0157810D02*
X0445339Y0157810D01*
X0445339Y0153620D02*
X0444739Y0153620D01*
X0444739Y0153022D02*
X0445339Y0153022D01*
X0445339Y0152423D02*
X0444739Y0152423D01*
X0444739Y0151825D02*
X0445339Y0151825D01*
X0445339Y0151226D02*
X0444739Y0151226D01*
X0444739Y0150628D02*
X0445339Y0150628D01*
X0445339Y0150029D02*
X0444739Y0150029D01*
X0446733Y0150029D02*
X0487467Y0150029D01*
X0487467Y0150628D02*
X0447724Y0150628D01*
X0448345Y0151226D02*
X0487467Y0151226D01*
X0487467Y0151825D02*
X0448761Y0151825D01*
X0449051Y0152423D02*
X0487467Y0152423D01*
X0487467Y0153022D02*
X0449239Y0153022D01*
X0449334Y0153620D02*
X0487467Y0153620D01*
X0487466Y0162598D02*
X0259050Y0162598D01*
X0259648Y0163197D02*
X0487466Y0163197D01*
X0487466Y0163795D02*
X0260007Y0163795D01*
X0260007Y0164394D02*
X0487465Y0164394D01*
X0487465Y0164992D02*
X0260007Y0164992D01*
X0259869Y0165591D02*
X0487465Y0165591D01*
X0487465Y0166189D02*
X0259271Y0166189D01*
X0258672Y0166788D02*
X0322794Y0166788D01*
X0323262Y0166320D02*
X0325084Y0166320D01*
X0326373Y0167608D01*
X0326373Y0169431D01*
X0325084Y0170720D01*
X0323262Y0170720D01*
X0321973Y0169431D01*
X0321973Y0167608D01*
X0323262Y0166320D01*
X0322195Y0167386D02*
X0178629Y0167386D01*
X0178629Y0167697D02*
X0177287Y0169039D01*
X0175390Y0169039D01*
X0174048Y0167697D01*
X0174048Y0165799D01*
X0175390Y0164457D01*
X0177287Y0164457D01*
X0178629Y0165799D01*
X0178629Y0167697D01*
X0178341Y0167985D02*
X0321973Y0167985D01*
X0321973Y0168583D02*
X0177743Y0168583D01*
X0178629Y0166788D02*
X0256761Y0166788D01*
X0256162Y0166189D02*
X0178629Y0166189D01*
X0178420Y0165591D02*
X0206420Y0165591D01*
X0205561Y0164992D02*
X0177822Y0164992D01*
X0174855Y0164992D02*
X0039521Y0164992D01*
X0039521Y0164394D02*
X0204962Y0164394D01*
X0204665Y0163795D02*
X0039521Y0163795D01*
X0039521Y0163197D02*
X0204417Y0163197D01*
X0204284Y0162598D02*
X0039521Y0162598D01*
X0039521Y0162000D02*
X0204284Y0162000D01*
X0204284Y0161401D02*
X0039521Y0161401D01*
X0039521Y0160803D02*
X0204500Y0160803D01*
X0204748Y0160204D02*
X0039522Y0160204D01*
X0039522Y0159605D02*
X0205163Y0159605D01*
X0205762Y0159007D02*
X0039522Y0159007D01*
X0039521Y0165591D02*
X0174257Y0165591D01*
X0174048Y0166189D02*
X0039521Y0166189D01*
X0039521Y0166788D02*
X0174048Y0166788D01*
X0174048Y0167386D02*
X0039520Y0167386D01*
X0039520Y0167985D02*
X0174336Y0167985D01*
X0174934Y0168583D02*
X0085187Y0168583D01*
X0085028Y0168517D02*
X0086461Y0169111D01*
X0087558Y0170208D01*
X0088152Y0171642D01*
X0088152Y0173193D01*
X0087558Y0174626D01*
X0086461Y0175724D01*
X0085028Y0176317D01*
X0083476Y0176317D01*
X0082043Y0175724D01*
X0080946Y0174626D01*
X0080352Y0173193D01*
X0080352Y0171642D01*
X0080946Y0170208D01*
X0082043Y0169111D01*
X0083476Y0168517D01*
X0085028Y0168517D01*
X0086532Y0169182D02*
X0198225Y0169182D01*
X0198815Y0168591D02*
X0200713Y0168591D01*
X0202054Y0169933D01*
X0202054Y0171831D01*
X0200713Y0173172D01*
X0198815Y0173172D01*
X0197473Y0171831D01*
X0197473Y0169933D01*
X0198815Y0168591D01*
X0197626Y0169780D02*
X0087130Y0169780D01*
X0087629Y0170379D02*
X0189941Y0170379D01*
X0189957Y0170363D02*
X0191854Y0170363D01*
X0193196Y0171705D01*
X0193196Y0173602D01*
X0191854Y0174944D01*
X0189957Y0174944D01*
X0188615Y0173602D01*
X0188615Y0171705D01*
X0189957Y0170363D01*
X0189343Y0170977D02*
X0087877Y0170977D01*
X0088125Y0171576D02*
X0188744Y0171576D01*
X0188615Y0172174D02*
X0088152Y0172174D01*
X0088152Y0172773D02*
X0188615Y0172773D01*
X0188615Y0173371D02*
X0088078Y0173371D01*
X0087830Y0173970D02*
X0188982Y0173970D01*
X0189581Y0174568D02*
X0087582Y0174568D01*
X0087018Y0175167D02*
X0331659Y0175167D01*
X0331923Y0174902D02*
X0333746Y0174902D01*
X0335035Y0176191D01*
X0335035Y0178014D01*
X0333746Y0179302D01*
X0331923Y0179302D01*
X0330635Y0178014D01*
X0330635Y0176191D01*
X0331923Y0174902D01*
X0331060Y0175765D02*
X0149301Y0175765D01*
X0149965Y0176040D02*
X0151062Y0177137D01*
X0151656Y0178571D01*
X0151656Y0180122D01*
X0151062Y0181556D01*
X0149965Y0182653D01*
X0148532Y0183246D01*
X0146980Y0183246D01*
X0145547Y0182653D01*
X0144450Y0181556D01*
X0143856Y0180122D01*
X0143856Y0178571D01*
X0144450Y0177137D01*
X0145547Y0176040D01*
X0146980Y0175446D01*
X0148532Y0175446D01*
X0149965Y0176040D01*
X0150289Y0176364D02*
X0206530Y0176364D01*
X0205975Y0176594D02*
X0207408Y0176000D01*
X0208960Y0176000D01*
X0210393Y0176594D01*
X0211491Y0177691D01*
X0212084Y0179124D01*
X0212084Y0180676D01*
X0211491Y0182109D01*
X0210393Y0183206D01*
X0208960Y0183800D01*
X0207408Y0183800D01*
X0205975Y0183206D01*
X0204878Y0182109D01*
X0204284Y0180676D01*
X0204284Y0179124D01*
X0204878Y0177691D01*
X0205975Y0176594D01*
X0205606Y0176962D02*
X0150887Y0176962D01*
X0151238Y0177561D02*
X0205008Y0177561D01*
X0204684Y0178159D02*
X0151486Y0178159D01*
X0151656Y0178758D02*
X0204436Y0178758D01*
X0204284Y0179356D02*
X0151656Y0179356D01*
X0151656Y0179955D02*
X0204284Y0179955D01*
X0204284Y0180553D02*
X0151477Y0180553D01*
X0151229Y0181152D02*
X0204481Y0181152D01*
X0204729Y0181750D02*
X0150867Y0181750D01*
X0150269Y0182349D02*
X0205118Y0182349D01*
X0205716Y0182947D02*
X0149254Y0182947D01*
X0146258Y0182947D02*
X0039518Y0182947D01*
X0039518Y0182349D02*
X0145243Y0182349D01*
X0144644Y0181750D02*
X0039518Y0181750D01*
X0039518Y0181152D02*
X0144282Y0181152D01*
X0144035Y0180553D02*
X0039518Y0180553D01*
X0039518Y0179955D02*
X0143856Y0179955D01*
X0143856Y0179356D02*
X0039518Y0179356D01*
X0039519Y0178758D02*
X0143856Y0178758D01*
X0144026Y0178159D02*
X0039519Y0178159D01*
X0039519Y0177561D02*
X0144274Y0177561D01*
X0144625Y0176962D02*
X0039519Y0176962D01*
X0039519Y0176364D02*
X0145223Y0176364D01*
X0146210Y0175765D02*
X0086360Y0175765D01*
X0082144Y0175765D02*
X0039519Y0175765D01*
X0039519Y0175167D02*
X0081486Y0175167D01*
X0080922Y0174568D02*
X0039519Y0174568D01*
X0039519Y0173970D02*
X0080674Y0173970D01*
X0080426Y0173371D02*
X0039519Y0173371D01*
X0039520Y0172773D02*
X0080352Y0172773D01*
X0080352Y0172174D02*
X0039520Y0172174D01*
X0039520Y0171576D02*
X0080379Y0171576D01*
X0080627Y0170977D02*
X0039520Y0170977D01*
X0039520Y0170379D02*
X0080875Y0170379D01*
X0081374Y0169780D02*
X0039520Y0169780D01*
X0039520Y0169182D02*
X0081972Y0169182D01*
X0083317Y0168583D02*
X0039520Y0168583D01*
X0039518Y0183546D02*
X0206795Y0183546D01*
X0209573Y0183546D02*
X0232395Y0183546D01*
X0233008Y0183800D02*
X0231575Y0183206D01*
X0230478Y0182109D01*
X0229884Y0180676D01*
X0229884Y0179124D01*
X0230478Y0177691D01*
X0231575Y0176594D01*
X0233008Y0176000D01*
X0234560Y0176000D01*
X0235993Y0176594D01*
X0237091Y0177691D01*
X0237684Y0179124D01*
X0237684Y0180676D01*
X0237091Y0182109D01*
X0235993Y0183206D01*
X0234560Y0183800D01*
X0233008Y0183800D01*
X0231316Y0182947D02*
X0210652Y0182947D01*
X0211251Y0182349D02*
X0230718Y0182349D01*
X0230329Y0181750D02*
X0211639Y0181750D01*
X0211887Y0181152D02*
X0230081Y0181152D01*
X0229884Y0180553D02*
X0212084Y0180553D01*
X0212084Y0179955D02*
X0229884Y0179955D01*
X0229884Y0179356D02*
X0212084Y0179356D01*
X0211932Y0178758D02*
X0230036Y0178758D01*
X0230284Y0178159D02*
X0211685Y0178159D01*
X0211361Y0177561D02*
X0230608Y0177561D01*
X0231206Y0176962D02*
X0210762Y0176962D01*
X0209838Y0176364D02*
X0232130Y0176364D01*
X0235438Y0176364D02*
X0297076Y0176364D01*
X0297278Y0176162D02*
X0299100Y0176162D01*
X0300389Y0177451D01*
X0300389Y0179273D01*
X0299100Y0180562D01*
X0297278Y0180562D01*
X0295989Y0179273D01*
X0295989Y0177451D01*
X0297278Y0176162D01*
X0296478Y0176962D02*
X0236362Y0176962D01*
X0236961Y0177561D02*
X0295989Y0177561D01*
X0295989Y0178159D02*
X0237285Y0178159D01*
X0237532Y0178758D02*
X0295989Y0178758D01*
X0296072Y0179356D02*
X0237684Y0179356D01*
X0237684Y0179955D02*
X0296670Y0179955D01*
X0297269Y0180553D02*
X0237684Y0180553D01*
X0237487Y0181152D02*
X0256451Y0181152D01*
X0256846Y0180757D02*
X0258744Y0180757D01*
X0260086Y0182098D01*
X0260086Y0183996D01*
X0258744Y0185338D01*
X0256846Y0185338D01*
X0255505Y0183996D01*
X0255505Y0182098D01*
X0256846Y0180757D01*
X0255853Y0181750D02*
X0237239Y0181750D01*
X0236851Y0182349D02*
X0255505Y0182349D01*
X0255505Y0182947D02*
X0236252Y0182947D01*
X0235173Y0183546D02*
X0255505Y0183546D01*
X0255653Y0184144D02*
X0039518Y0184144D01*
X0039518Y0184743D02*
X0256252Y0184743D01*
X0259339Y0184743D02*
X0302512Y0184743D01*
X0303059Y0185291D02*
X0301717Y0183949D01*
X0301717Y0182051D01*
X0303059Y0180709D01*
X0304957Y0180709D01*
X0306298Y0182051D01*
X0306298Y0183949D01*
X0304957Y0185291D01*
X0303059Y0185291D01*
X0303431Y0186792D02*
X0304720Y0188081D01*
X0304720Y0189903D01*
X0303431Y0191192D01*
X0301608Y0191192D01*
X0300320Y0189903D01*
X0300320Y0188081D01*
X0301608Y0186792D01*
X0303431Y0186792D01*
X0303776Y0187137D02*
X0487463Y0187137D01*
X0487463Y0186539D02*
X0039517Y0186539D01*
X0039517Y0187137D02*
X0301264Y0187137D01*
X0300665Y0187736D02*
X0039517Y0187736D01*
X0039517Y0188334D02*
X0300320Y0188334D01*
X0300320Y0188933D02*
X0039517Y0188933D01*
X0039517Y0189531D02*
X0300320Y0189531D01*
X0300546Y0190130D02*
X0039517Y0190130D01*
X0039517Y0190728D02*
X0301144Y0190728D01*
X0303895Y0190728D02*
X0326017Y0190728D01*
X0326017Y0190602D02*
X0327358Y0189261D01*
X0329256Y0189261D01*
X0330347Y0190352D01*
X0330347Y0189028D01*
X0331689Y0187686D01*
X0333587Y0187686D01*
X0334928Y0189028D01*
X0334928Y0190925D01*
X0333587Y0192267D01*
X0331689Y0192267D01*
X0330598Y0191176D01*
X0330598Y0192500D01*
X0329256Y0193842D01*
X0327358Y0193842D01*
X0326017Y0192500D01*
X0326017Y0190602D01*
X0326489Y0190130D02*
X0304493Y0190130D01*
X0304720Y0189531D02*
X0327088Y0189531D01*
X0326017Y0191327D02*
X0039517Y0191327D01*
X0039516Y0191925D02*
X0326017Y0191925D01*
X0326040Y0192524D02*
X0039516Y0192524D01*
X0039516Y0193122D02*
X0326639Y0193122D01*
X0326736Y0193670D02*
X0328078Y0195012D01*
X0328078Y0196909D01*
X0327262Y0197725D01*
X0328468Y0197725D01*
X0329810Y0199067D01*
X0329810Y0200965D01*
X0328468Y0202306D01*
X0326571Y0202306D01*
X0325229Y0200965D01*
X0325229Y0199067D01*
X0326045Y0198251D01*
X0324839Y0198251D01*
X0323497Y0196909D01*
X0323497Y0195012D01*
X0324839Y0193670D01*
X0326736Y0193670D01*
X0326787Y0193721D02*
X0327237Y0193721D01*
X0327385Y0194319D02*
X0423363Y0194319D01*
X0423064Y0194618D02*
X0424406Y0193276D01*
X0426303Y0193276D01*
X0427645Y0194618D01*
X0427645Y0196516D01*
X0426303Y0197857D01*
X0424406Y0197857D01*
X0423064Y0196516D01*
X0423064Y0194618D01*
X0423064Y0194918D02*
X0327984Y0194918D01*
X0328078Y0195516D02*
X0423064Y0195516D01*
X0423064Y0196115D02*
X0328078Y0196115D01*
X0328078Y0196713D02*
X0423261Y0196713D01*
X0423860Y0197312D02*
X0327676Y0197312D01*
X0328653Y0197910D02*
X0487462Y0197910D01*
X0487462Y0197312D02*
X0426849Y0197312D01*
X0427447Y0196713D02*
X0487462Y0196713D01*
X0487462Y0196115D02*
X0427645Y0196115D01*
X0427645Y0195516D02*
X0487462Y0195516D01*
X0487462Y0194918D02*
X0427645Y0194918D01*
X0427346Y0194319D02*
X0487462Y0194319D01*
X0487462Y0193721D02*
X0426747Y0193721D01*
X0423961Y0193721D02*
X0329377Y0193721D01*
X0329975Y0193122D02*
X0487462Y0193122D01*
X0487462Y0192524D02*
X0330574Y0192524D01*
X0330598Y0191925D02*
X0331347Y0191925D01*
X0330749Y0191327D02*
X0330598Y0191327D01*
X0330347Y0190130D02*
X0330125Y0190130D01*
X0330347Y0189531D02*
X0329526Y0189531D01*
X0330442Y0188933D02*
X0304720Y0188933D01*
X0304720Y0188334D02*
X0331041Y0188334D01*
X0331639Y0187736D02*
X0304374Y0187736D01*
X0305504Y0184743D02*
X0309136Y0184743D01*
X0308981Y0184588D02*
X0308981Y0182766D01*
X0310235Y0181512D01*
X0309178Y0180455D01*
X0309178Y0178632D01*
X0310467Y0177343D01*
X0312289Y0177343D01*
X0313578Y0178632D01*
X0313578Y0180455D01*
X0312324Y0181709D01*
X0313381Y0182766D01*
X0313381Y0184588D01*
X0312092Y0185877D01*
X0310270Y0185877D01*
X0308981Y0184588D01*
X0308981Y0184144D02*
X0306103Y0184144D01*
X0306298Y0183546D02*
X0308981Y0183546D01*
X0308981Y0182947D02*
X0306298Y0182947D01*
X0306298Y0182349D02*
X0309398Y0182349D01*
X0309997Y0181750D02*
X0305998Y0181750D01*
X0305399Y0181152D02*
X0309875Y0181152D01*
X0309277Y0180553D02*
X0299109Y0180553D01*
X0299708Y0179955D02*
X0309178Y0179955D01*
X0309178Y0179356D02*
X0300306Y0179356D01*
X0300389Y0178758D02*
X0309178Y0178758D01*
X0309651Y0178159D02*
X0300389Y0178159D01*
X0300389Y0177561D02*
X0310249Y0177561D01*
X0312507Y0177561D02*
X0315761Y0177561D01*
X0315978Y0177343D02*
X0317801Y0177343D01*
X0319090Y0178632D01*
X0319090Y0180455D01*
X0317934Y0181610D01*
X0319090Y0182766D01*
X0319090Y0184588D01*
X0317801Y0185877D01*
X0315978Y0185877D01*
X0314690Y0184588D01*
X0314690Y0182766D01*
X0315845Y0181610D01*
X0314690Y0180455D01*
X0314690Y0178632D01*
X0315978Y0177343D01*
X0315162Y0178159D02*
X0313105Y0178159D01*
X0313578Y0178758D02*
X0314690Y0178758D01*
X0314690Y0179356D02*
X0313578Y0179356D01*
X0313578Y0179955D02*
X0314690Y0179955D01*
X0314789Y0180553D02*
X0313479Y0180553D01*
X0312881Y0181152D02*
X0315387Y0181152D01*
X0315705Y0181750D02*
X0312366Y0181750D01*
X0312964Y0182349D02*
X0315107Y0182349D01*
X0314690Y0182947D02*
X0313381Y0182947D01*
X0313381Y0183546D02*
X0314690Y0183546D01*
X0314690Y0184144D02*
X0313381Y0184144D01*
X0313227Y0184743D02*
X0314844Y0184743D01*
X0315443Y0185341D02*
X0312628Y0185341D01*
X0309734Y0185341D02*
X0039518Y0185341D01*
X0039517Y0185940D02*
X0487463Y0185940D01*
X0487463Y0185341D02*
X0318337Y0185341D01*
X0318935Y0184743D02*
X0487463Y0184743D01*
X0487463Y0184144D02*
X0319090Y0184144D01*
X0319090Y0183546D02*
X0487463Y0183546D01*
X0487463Y0182947D02*
X0319090Y0182947D01*
X0318673Y0182349D02*
X0487463Y0182349D01*
X0487463Y0181750D02*
X0318074Y0181750D01*
X0318392Y0181152D02*
X0487463Y0181152D01*
X0487464Y0180553D02*
X0318991Y0180553D01*
X0319090Y0179955D02*
X0487464Y0179955D01*
X0487464Y0179356D02*
X0319090Y0179356D01*
X0319090Y0178758D02*
X0331379Y0178758D01*
X0330780Y0178159D02*
X0318617Y0178159D01*
X0318019Y0177561D02*
X0330635Y0177561D01*
X0330635Y0176962D02*
X0299900Y0176962D01*
X0299302Y0176364D02*
X0330635Y0176364D01*
X0334010Y0175167D02*
X0487464Y0175167D01*
X0487464Y0175765D02*
X0334609Y0175765D01*
X0335035Y0176364D02*
X0487464Y0176364D01*
X0487464Y0176962D02*
X0335035Y0176962D01*
X0335035Y0177561D02*
X0487464Y0177561D01*
X0487464Y0178159D02*
X0334889Y0178159D01*
X0334290Y0178758D02*
X0487464Y0178758D01*
X0487464Y0174568D02*
X0192230Y0174568D01*
X0192829Y0173970D02*
X0487464Y0173970D01*
X0487464Y0173371D02*
X0193196Y0173371D01*
X0193196Y0172773D02*
X0198415Y0172773D01*
X0197817Y0172174D02*
X0193196Y0172174D01*
X0193067Y0171576D02*
X0197473Y0171576D01*
X0197473Y0170977D02*
X0192469Y0170977D01*
X0191870Y0170379D02*
X0197473Y0170379D01*
X0201303Y0169182D02*
X0321973Y0169182D01*
X0322322Y0169780D02*
X0201901Y0169780D01*
X0202054Y0170379D02*
X0322921Y0170379D01*
X0325425Y0170379D02*
X0487465Y0170379D01*
X0487465Y0170977D02*
X0202054Y0170977D01*
X0202054Y0171576D02*
X0487465Y0171576D01*
X0487465Y0172174D02*
X0201711Y0172174D01*
X0201112Y0172773D02*
X0487464Y0172773D01*
X0487465Y0169780D02*
X0326024Y0169780D01*
X0326373Y0169182D02*
X0487465Y0169182D01*
X0487465Y0168583D02*
X0326373Y0168583D01*
X0326373Y0167985D02*
X0487465Y0167985D01*
X0487465Y0167386D02*
X0326151Y0167386D01*
X0325552Y0166788D02*
X0487465Y0166788D01*
X0487463Y0187736D02*
X0333636Y0187736D01*
X0334235Y0188334D02*
X0487463Y0188334D01*
X0487463Y0188933D02*
X0334833Y0188933D01*
X0334928Y0189531D02*
X0487463Y0189531D01*
X0487462Y0190130D02*
X0334928Y0190130D01*
X0334928Y0190728D02*
X0487462Y0190728D01*
X0487462Y0191327D02*
X0334527Y0191327D01*
X0333928Y0191925D02*
X0487462Y0191925D01*
X0487461Y0198509D02*
X0329252Y0198509D01*
X0329810Y0199107D02*
X0487461Y0199107D01*
X0487461Y0199706D02*
X0329810Y0199706D01*
X0329810Y0200304D02*
X0487461Y0200304D01*
X0487461Y0200903D02*
X0329810Y0200903D01*
X0329273Y0201501D02*
X0411889Y0201501D01*
X0412004Y0201387D02*
X0413902Y0201387D01*
X0415243Y0202728D01*
X0415243Y0204626D01*
X0413902Y0205968D01*
X0412004Y0205968D01*
X0410662Y0204626D01*
X0410662Y0202728D01*
X0412004Y0201387D01*
X0411291Y0202100D02*
X0374969Y0202100D01*
X0374925Y0202056D02*
X0376267Y0203398D01*
X0376267Y0205295D01*
X0374925Y0206637D01*
X0373028Y0206637D01*
X0371686Y0205295D01*
X0371686Y0203398D01*
X0373028Y0202056D01*
X0374925Y0202056D01*
X0375568Y0202698D02*
X0410692Y0202698D01*
X0410662Y0203297D02*
X0376166Y0203297D01*
X0376267Y0203895D02*
X0410662Y0203895D01*
X0410662Y0204494D02*
X0376267Y0204494D01*
X0376267Y0205092D02*
X0411129Y0205092D01*
X0411727Y0205691D02*
X0375871Y0205691D01*
X0375273Y0206289D02*
X0418743Y0206289D01*
X0418144Y0205691D02*
X0414178Y0205691D01*
X0414777Y0205092D02*
X0418143Y0205092D01*
X0418143Y0205689D02*
X0418143Y0203791D01*
X0419484Y0202450D01*
X0421382Y0202450D01*
X0422724Y0203791D01*
X0422724Y0205689D01*
X0421382Y0207031D01*
X0419484Y0207031D01*
X0418143Y0205689D01*
X0418143Y0204494D02*
X0415243Y0204494D01*
X0415243Y0203895D02*
X0418143Y0203895D01*
X0418637Y0203297D02*
X0415243Y0203297D01*
X0415213Y0202698D02*
X0419236Y0202698D01*
X0421631Y0202698D02*
X0487461Y0202698D01*
X0487461Y0202100D02*
X0414615Y0202100D01*
X0414016Y0201501D02*
X0487461Y0201501D01*
X0487461Y0203297D02*
X0422229Y0203297D01*
X0422724Y0203895D02*
X0487461Y0203895D01*
X0487461Y0204494D02*
X0422724Y0204494D01*
X0422724Y0205092D02*
X0487461Y0205092D01*
X0487461Y0205691D02*
X0422722Y0205691D01*
X0422123Y0206289D02*
X0427259Y0206289D01*
X0427752Y0205796D02*
X0429650Y0205796D01*
X0430991Y0207138D01*
X0430991Y0209035D01*
X0429650Y0210377D01*
X0427752Y0210377D01*
X0426410Y0209035D01*
X0426410Y0207138D01*
X0427752Y0205796D01*
X0426660Y0206888D02*
X0421525Y0206888D01*
X0419341Y0206888D02*
X0369287Y0206888D01*
X0369287Y0207486D02*
X0426410Y0207486D01*
X0426410Y0208085D02*
X0369018Y0208085D01*
X0369287Y0207817D02*
X0367998Y0209105D01*
X0366175Y0209105D01*
X0364887Y0207817D01*
X0364887Y0205994D01*
X0366175Y0204706D01*
X0367998Y0204706D01*
X0369287Y0205994D01*
X0369287Y0207817D01*
X0368420Y0208683D02*
X0426410Y0208683D01*
X0426657Y0209282D02*
X0088152Y0209282D01*
X0088152Y0209571D02*
X0087558Y0211004D01*
X0086461Y0212102D01*
X0085028Y0212695D01*
X0083476Y0212695D01*
X0082043Y0212102D01*
X0080946Y0211004D01*
X0080352Y0209571D01*
X0080352Y0208020D01*
X0080946Y0206586D01*
X0082043Y0205489D01*
X0083476Y0204895D01*
X0085028Y0204895D01*
X0086461Y0205489D01*
X0087558Y0206586D01*
X0088152Y0208020D01*
X0088152Y0209571D01*
X0088024Y0209880D02*
X0427255Y0209880D01*
X0430146Y0209880D02*
X0487460Y0209880D01*
X0487460Y0209282D02*
X0430745Y0209282D01*
X0430991Y0208683D02*
X0487460Y0208683D01*
X0487460Y0208085D02*
X0430991Y0208085D01*
X0430991Y0207486D02*
X0487460Y0207486D01*
X0487460Y0206888D02*
X0430741Y0206888D01*
X0430143Y0206289D02*
X0487461Y0206289D01*
X0487460Y0210479D02*
X0087776Y0210479D01*
X0087485Y0211077D02*
X0487460Y0211077D01*
X0487460Y0211676D02*
X0086887Y0211676D01*
X0086044Y0212274D02*
X0364118Y0212274D01*
X0364207Y0212186D02*
X0366029Y0212186D01*
X0367318Y0213475D01*
X0367318Y0215297D01*
X0366029Y0216586D01*
X0364207Y0216586D01*
X0362918Y0215297D01*
X0362918Y0213475D01*
X0364207Y0212186D01*
X0363520Y0212873D02*
X0039513Y0212873D01*
X0039513Y0212274D02*
X0082460Y0212274D01*
X0081617Y0211676D02*
X0039513Y0211676D01*
X0039513Y0211077D02*
X0081019Y0211077D01*
X0080728Y0210479D02*
X0039513Y0210479D01*
X0039514Y0209880D02*
X0080480Y0209880D01*
X0080352Y0209282D02*
X0039514Y0209282D01*
X0039514Y0208683D02*
X0080352Y0208683D01*
X0080352Y0208085D02*
X0039514Y0208085D01*
X0039514Y0207486D02*
X0080573Y0207486D01*
X0080821Y0206888D02*
X0039514Y0206888D01*
X0039514Y0206289D02*
X0081242Y0206289D01*
X0081841Y0205691D02*
X0039514Y0205691D01*
X0039514Y0205092D02*
X0083000Y0205092D01*
X0085504Y0205092D02*
X0356619Y0205092D01*
X0356619Y0204616D02*
X0357908Y0203328D01*
X0359730Y0203328D01*
X0361019Y0204616D01*
X0361019Y0206439D01*
X0359730Y0207728D01*
X0357908Y0207728D01*
X0356619Y0206439D01*
X0356619Y0204616D01*
X0356741Y0204494D02*
X0039514Y0204494D01*
X0039515Y0203895D02*
X0357340Y0203895D01*
X0356619Y0205691D02*
X0086663Y0205691D01*
X0087262Y0206289D02*
X0356619Y0206289D01*
X0357068Y0206888D02*
X0087683Y0206888D01*
X0087931Y0207486D02*
X0357666Y0207486D01*
X0359971Y0207486D02*
X0364887Y0207486D01*
X0364887Y0206888D02*
X0360570Y0206888D01*
X0361019Y0206289D02*
X0364887Y0206289D01*
X0365190Y0205691D02*
X0361019Y0205691D01*
X0361019Y0205092D02*
X0365788Y0205092D01*
X0368385Y0205092D02*
X0371686Y0205092D01*
X0371686Y0204494D02*
X0360896Y0204494D01*
X0360298Y0203895D02*
X0371686Y0203895D01*
X0371787Y0203297D02*
X0039515Y0203297D01*
X0039515Y0202698D02*
X0372385Y0202698D01*
X0372984Y0202100D02*
X0328675Y0202100D01*
X0326364Y0202100D02*
X0039515Y0202100D01*
X0039515Y0201501D02*
X0325766Y0201501D01*
X0325229Y0200903D02*
X0039515Y0200903D01*
X0039515Y0200304D02*
X0325229Y0200304D01*
X0325229Y0199706D02*
X0039515Y0199706D01*
X0039515Y0199107D02*
X0325229Y0199107D01*
X0325787Y0198509D02*
X0039515Y0198509D01*
X0039516Y0197910D02*
X0324498Y0197910D01*
X0323899Y0197312D02*
X0039516Y0197312D01*
X0039516Y0196713D02*
X0323497Y0196713D01*
X0323497Y0196115D02*
X0039516Y0196115D01*
X0039516Y0195516D02*
X0323497Y0195516D01*
X0323591Y0194918D02*
X0039516Y0194918D01*
X0039516Y0194319D02*
X0324190Y0194319D01*
X0324788Y0193721D02*
X0039516Y0193721D01*
X0039513Y0213472D02*
X0320205Y0213472D01*
X0320349Y0213328D02*
X0322171Y0213328D01*
X0323460Y0214616D01*
X0323460Y0216439D01*
X0322171Y0217728D01*
X0320349Y0217728D01*
X0319060Y0216439D01*
X0319060Y0214616D01*
X0320349Y0213328D01*
X0319606Y0214070D02*
X0039513Y0214070D01*
X0039513Y0214669D02*
X0319060Y0214669D01*
X0319060Y0215267D02*
X0039513Y0215267D01*
X0039513Y0215866D02*
X0319060Y0215866D01*
X0319085Y0216464D02*
X0039513Y0216464D01*
X0039512Y0217063D02*
X0319684Y0217063D01*
X0320282Y0217661D02*
X0046337Y0217661D01*
X0046651Y0217763D02*
X0047254Y0218070D01*
X0047801Y0218468D01*
X0048280Y0218947D01*
X0048678Y0219494D01*
X0048985Y0220097D01*
X0049194Y0220741D01*
X0049300Y0221410D01*
X0049300Y0221448D01*
X0045300Y0221448D01*
X0045300Y0217448D01*
X0045338Y0217448D01*
X0046007Y0217554D01*
X0046651Y0217763D01*
X0047514Y0218260D02*
X0053231Y0218260D01*
X0052791Y0218442D02*
X0054224Y0217848D01*
X0055776Y0217848D01*
X0057209Y0218442D01*
X0058306Y0219539D01*
X0058900Y0220972D01*
X0058900Y0222524D01*
X0058306Y0223957D01*
X0057209Y0225054D01*
X0055776Y0225648D01*
X0054224Y0225648D01*
X0052791Y0225054D01*
X0051694Y0223957D01*
X0051100Y0222524D01*
X0051100Y0220972D01*
X0051694Y0219539D01*
X0052791Y0218442D01*
X0052374Y0218858D02*
X0048191Y0218858D01*
X0048650Y0219457D02*
X0051776Y0219457D01*
X0051480Y0220055D02*
X0048963Y0220055D01*
X0049166Y0220654D02*
X0051232Y0220654D01*
X0051100Y0221252D02*
X0049275Y0221252D01*
X0049300Y0222048D02*
X0045300Y0222048D01*
X0045300Y0221448D01*
X0044700Y0221448D01*
X0044700Y0217448D01*
X0044662Y0217448D01*
X0043993Y0217554D01*
X0043349Y0217763D01*
X0042746Y0218070D01*
X0042199Y0218468D01*
X0041720Y0218947D01*
X0041322Y0219494D01*
X0041015Y0220097D01*
X0040806Y0220741D01*
X0040700Y0221410D01*
X0040700Y0221448D01*
X0044700Y0221448D01*
X0044700Y0222048D01*
X0040700Y0222048D01*
X0040700Y0222086D01*
X0040806Y0222755D01*
X0041015Y0223399D01*
X0041322Y0224002D01*
X0041720Y0224549D01*
X0042199Y0225028D01*
X0042746Y0225426D01*
X0043349Y0225733D01*
X0043993Y0225942D01*
X0044662Y0226048D01*
X0044700Y0226048D01*
X0044700Y0222048D01*
X0045300Y0222048D01*
X0045300Y0226048D01*
X0045338Y0226048D01*
X0046007Y0225942D01*
X0046651Y0225733D01*
X0047254Y0225426D01*
X0047801Y0225028D01*
X0048280Y0224549D01*
X0048678Y0224002D01*
X0048985Y0223399D01*
X0049194Y0222755D01*
X0049300Y0222086D01*
X0049300Y0222048D01*
X0049243Y0222449D02*
X0051100Y0222449D01*
X0051100Y0221851D02*
X0045300Y0221851D01*
X0045300Y0222449D02*
X0044700Y0222449D01*
X0044700Y0221851D02*
X0039512Y0221851D01*
X0039512Y0222449D02*
X0040757Y0222449D01*
X0040901Y0223048D02*
X0039511Y0223048D01*
X0039511Y0223646D02*
X0041141Y0223646D01*
X0041499Y0224245D02*
X0039511Y0224245D01*
X0039511Y0224843D02*
X0042014Y0224843D01*
X0042778Y0225442D02*
X0039511Y0225442D01*
X0039511Y0226040D02*
X0044613Y0226040D01*
X0044700Y0226040D02*
X0045300Y0226040D01*
X0045387Y0226040D02*
X0487458Y0226040D01*
X0487458Y0225442D02*
X0405205Y0225442D01*
X0405203Y0225444D02*
X0403380Y0225444D01*
X0402091Y0224155D01*
X0402091Y0222333D01*
X0403149Y0221276D01*
X0402091Y0220218D01*
X0402091Y0218396D01*
X0403149Y0217339D01*
X0402091Y0216281D01*
X0402091Y0214459D01*
X0403380Y0213170D01*
X0405203Y0213170D01*
X0406491Y0214459D01*
X0406491Y0216281D01*
X0405434Y0217339D01*
X0406491Y0218396D01*
X0406491Y0220218D01*
X0405434Y0221276D01*
X0406491Y0222333D01*
X0406491Y0224155D01*
X0405203Y0225444D01*
X0405803Y0224843D02*
X0487458Y0224843D01*
X0487458Y0224245D02*
X0406402Y0224245D01*
X0406491Y0223646D02*
X0487459Y0223646D01*
X0487459Y0223048D02*
X0406491Y0223048D01*
X0406491Y0222449D02*
X0487459Y0222449D01*
X0487459Y0221851D02*
X0406009Y0221851D01*
X0405458Y0221252D02*
X0487459Y0221252D01*
X0487459Y0220654D02*
X0406056Y0220654D01*
X0406491Y0220055D02*
X0487459Y0220055D01*
X0487459Y0219457D02*
X0406491Y0219457D01*
X0406491Y0218858D02*
X0408605Y0218858D01*
X0408695Y0218948D02*
X0407406Y0217659D01*
X0407406Y0215837D01*
X0408695Y0214548D01*
X0410518Y0214548D01*
X0411806Y0215837D01*
X0411806Y0217659D01*
X0410518Y0218948D01*
X0408695Y0218948D01*
X0408007Y0218260D02*
X0406355Y0218260D01*
X0405757Y0217661D02*
X0407408Y0217661D01*
X0407406Y0217063D02*
X0405710Y0217063D01*
X0406309Y0216464D02*
X0407406Y0216464D01*
X0407406Y0215866D02*
X0406491Y0215866D01*
X0406491Y0215267D02*
X0407976Y0215267D01*
X0408575Y0214669D02*
X0406491Y0214669D01*
X0406103Y0214070D02*
X0487460Y0214070D01*
X0487460Y0213472D02*
X0405504Y0213472D01*
X0403079Y0213472D02*
X0367315Y0213472D01*
X0367318Y0214070D02*
X0369409Y0214070D01*
X0369719Y0213761D02*
X0371541Y0213761D01*
X0372830Y0215049D01*
X0372830Y0216872D01*
X0372265Y0217437D01*
X0373224Y0218396D01*
X0373224Y0220218D01*
X0371935Y0221507D01*
X0370112Y0221507D01*
X0368824Y0220218D01*
X0368824Y0218396D01*
X0369389Y0217831D01*
X0368430Y0216872D01*
X0368430Y0215049D01*
X0369719Y0213761D01*
X0368811Y0214669D02*
X0367318Y0214669D01*
X0367318Y0215267D02*
X0368430Y0215267D01*
X0368430Y0215866D02*
X0366750Y0215866D01*
X0366151Y0216464D02*
X0368430Y0216464D01*
X0368621Y0217063D02*
X0339259Y0217063D01*
X0339259Y0217500D02*
X0337917Y0218842D01*
X0336020Y0218842D01*
X0334678Y0217500D01*
X0334678Y0215602D01*
X0336020Y0214261D01*
X0337917Y0214261D01*
X0339259Y0215602D01*
X0339259Y0217500D01*
X0339098Y0217661D02*
X0369219Y0217661D01*
X0368960Y0218260D02*
X0338499Y0218260D01*
X0339259Y0216464D02*
X0364085Y0216464D01*
X0363487Y0215866D02*
X0339259Y0215866D01*
X0338924Y0215267D02*
X0362918Y0215267D01*
X0362918Y0214669D02*
X0338325Y0214669D01*
X0335612Y0214669D02*
X0323460Y0214669D01*
X0323460Y0215267D02*
X0335013Y0215267D01*
X0334678Y0215866D02*
X0323460Y0215866D01*
X0323435Y0216464D02*
X0323708Y0216464D01*
X0323774Y0216398D02*
X0325596Y0216398D01*
X0326885Y0217687D01*
X0326885Y0219510D01*
X0325596Y0220798D01*
X0323774Y0220798D01*
X0322485Y0219510D01*
X0322485Y0217687D01*
X0323774Y0216398D01*
X0323110Y0217063D02*
X0322836Y0217063D01*
X0322511Y0217661D02*
X0322238Y0217661D01*
X0322485Y0218260D02*
X0056769Y0218260D01*
X0057626Y0218858D02*
X0113509Y0218858D01*
X0113579Y0218788D02*
X0115476Y0218788D01*
X0116818Y0220130D01*
X0116818Y0222028D01*
X0115476Y0223369D01*
X0113579Y0223369D01*
X0112237Y0222028D01*
X0112237Y0220130D01*
X0113579Y0218788D01*
X0112910Y0219457D02*
X0058224Y0219457D01*
X0058520Y0220055D02*
X0112312Y0220055D01*
X0112237Y0220654D02*
X0058768Y0220654D01*
X0058900Y0221252D02*
X0112237Y0221252D01*
X0112237Y0221851D02*
X0058900Y0221851D01*
X0058900Y0222449D02*
X0112659Y0222449D01*
X0113257Y0223048D02*
X0058683Y0223048D01*
X0058435Y0223646D02*
X0317158Y0223646D01*
X0317158Y0223369D02*
X0315941Y0223369D01*
X0314599Y0222028D01*
X0314599Y0220130D01*
X0315941Y0218788D01*
X0317839Y0218788D01*
X0319180Y0220130D01*
X0319180Y0221347D01*
X0320398Y0221347D01*
X0321739Y0222689D01*
X0321739Y0224587D01*
X0320398Y0225928D01*
X0318500Y0225928D01*
X0317158Y0224587D01*
X0317158Y0223369D01*
X0317158Y0224245D02*
X0058019Y0224245D01*
X0057420Y0224843D02*
X0317415Y0224843D01*
X0318013Y0225442D02*
X0056274Y0225442D01*
X0055776Y0227848D02*
X0057209Y0228442D01*
X0058306Y0229539D01*
X0058900Y0230972D01*
X0058900Y0232524D01*
X0058306Y0233957D01*
X0057209Y0235054D01*
X0055776Y0235648D01*
X0054224Y0235648D01*
X0052791Y0235054D01*
X0051694Y0233957D01*
X0051100Y0232524D01*
X0051100Y0230972D01*
X0051694Y0229539D01*
X0052791Y0228442D01*
X0054224Y0227848D01*
X0055776Y0227848D01*
X0057191Y0228434D02*
X0487458Y0228434D01*
X0487458Y0227836D02*
X0039511Y0227836D01*
X0039511Y0228434D02*
X0042809Y0228434D01*
X0042791Y0228442D02*
X0044224Y0227848D01*
X0045776Y0227848D01*
X0047209Y0228442D01*
X0048306Y0229539D01*
X0048900Y0230972D01*
X0048900Y0232524D01*
X0048306Y0233957D01*
X0047209Y0235054D01*
X0045776Y0235648D01*
X0044224Y0235648D01*
X0042791Y0235054D01*
X0041694Y0233957D01*
X0041100Y0232524D01*
X0041100Y0230972D01*
X0041694Y0229539D01*
X0042791Y0228442D01*
X0042200Y0229033D02*
X0039510Y0229033D01*
X0039510Y0229631D02*
X0041655Y0229631D01*
X0041408Y0230230D02*
X0039510Y0230230D01*
X0039510Y0230828D02*
X0041160Y0230828D01*
X0041100Y0231427D02*
X0039510Y0231427D01*
X0039510Y0232025D02*
X0041100Y0232025D01*
X0041141Y0232624D02*
X0039510Y0232624D01*
X0039510Y0233222D02*
X0041389Y0233222D01*
X0041637Y0233821D02*
X0039510Y0233821D01*
X0039510Y0234419D02*
X0042156Y0234419D01*
X0042754Y0235018D02*
X0039510Y0235018D01*
X0039509Y0235616D02*
X0044148Y0235616D01*
X0045852Y0235616D02*
X0054148Y0235616D01*
X0052754Y0235018D02*
X0047246Y0235018D01*
X0047844Y0234419D02*
X0052156Y0234419D01*
X0051637Y0233821D02*
X0048363Y0233821D01*
X0048611Y0233222D02*
X0051389Y0233222D01*
X0051141Y0232624D02*
X0048859Y0232624D01*
X0048900Y0232025D02*
X0051100Y0232025D01*
X0051100Y0231427D02*
X0048900Y0231427D01*
X0048840Y0230828D02*
X0051160Y0230828D01*
X0051408Y0230230D02*
X0048592Y0230230D01*
X0048345Y0229631D02*
X0051655Y0229631D01*
X0052200Y0229033D02*
X0047800Y0229033D01*
X0047191Y0228434D02*
X0052809Y0228434D01*
X0053726Y0225442D02*
X0047222Y0225442D01*
X0047986Y0224843D02*
X0052580Y0224843D01*
X0051981Y0224245D02*
X0048501Y0224245D01*
X0048859Y0223646D02*
X0051565Y0223646D01*
X0051317Y0223048D02*
X0049099Y0223048D01*
X0045300Y0223048D02*
X0044700Y0223048D01*
X0044700Y0223646D02*
X0045300Y0223646D01*
X0045300Y0224245D02*
X0044700Y0224245D01*
X0044700Y0224843D02*
X0045300Y0224843D01*
X0045300Y0225442D02*
X0044700Y0225442D01*
X0044700Y0221252D02*
X0045300Y0221252D01*
X0045300Y0220654D02*
X0044700Y0220654D01*
X0044700Y0220055D02*
X0045300Y0220055D01*
X0045300Y0219457D02*
X0044700Y0219457D01*
X0044700Y0218858D02*
X0045300Y0218858D01*
X0045300Y0218260D02*
X0044700Y0218260D01*
X0044700Y0217661D02*
X0045300Y0217661D01*
X0043663Y0217661D02*
X0039512Y0217661D01*
X0039512Y0218260D02*
X0042486Y0218260D01*
X0041809Y0218858D02*
X0039512Y0218858D01*
X0039512Y0219457D02*
X0041350Y0219457D01*
X0041037Y0220055D02*
X0039512Y0220055D01*
X0039512Y0220654D02*
X0040834Y0220654D01*
X0040725Y0221252D02*
X0039512Y0221252D01*
X0039511Y0226639D02*
X0487458Y0226639D01*
X0487458Y0227237D02*
X0039511Y0227237D01*
X0039509Y0236215D02*
X0142545Y0236215D01*
X0142984Y0235776D02*
X0141887Y0236873D01*
X0141293Y0238307D01*
X0141293Y0239858D01*
X0141887Y0241292D01*
X0142984Y0242389D01*
X0144417Y0242983D01*
X0145969Y0242983D01*
X0147402Y0242389D01*
X0148499Y0241292D01*
X0149093Y0239858D01*
X0149093Y0238307D01*
X0148499Y0236873D01*
X0147402Y0235776D01*
X0145969Y0235183D01*
X0144417Y0235183D01*
X0142984Y0235776D01*
X0143370Y0235616D02*
X0055852Y0235616D01*
X0057246Y0235018D02*
X0204653Y0235018D01*
X0204731Y0234780D02*
X0205038Y0234177D01*
X0205436Y0233629D01*
X0205914Y0233151D01*
X0206462Y0232753D01*
X0207065Y0232446D01*
X0207709Y0232237D01*
X0208377Y0232131D01*
X0208416Y0232131D01*
X0208416Y0236131D01*
X0204416Y0236131D01*
X0204416Y0236092D01*
X0204522Y0235424D01*
X0204731Y0234780D01*
X0204915Y0234419D02*
X0057844Y0234419D01*
X0058363Y0233821D02*
X0205297Y0233821D01*
X0205843Y0233222D02*
X0058611Y0233222D01*
X0058859Y0232624D02*
X0206715Y0232624D01*
X0208416Y0232624D02*
X0209016Y0232624D01*
X0209016Y0232131D02*
X0209054Y0232131D01*
X0209723Y0232237D01*
X0210366Y0232446D01*
X0210969Y0232753D01*
X0211517Y0233151D01*
X0211996Y0233629D01*
X0212393Y0234177D01*
X0212701Y0234780D01*
X0212910Y0235424D01*
X0213016Y0236092D01*
X0213016Y0236131D01*
X0209016Y0236131D01*
X0209016Y0236731D01*
X0208416Y0236731D01*
X0208416Y0240731D01*
X0208377Y0240731D01*
X0207709Y0240625D01*
X0207065Y0240416D01*
X0206462Y0240108D01*
X0205914Y0239711D01*
X0205436Y0239232D01*
X0205038Y0238684D01*
X0204731Y0238081D01*
X0204522Y0237438D01*
X0204416Y0236769D01*
X0204416Y0236731D01*
X0208416Y0236731D01*
X0208416Y0236131D01*
X0209016Y0236131D01*
X0209016Y0232131D01*
X0209016Y0233222D02*
X0208416Y0233222D01*
X0208416Y0233821D02*
X0209016Y0233821D01*
X0209016Y0234419D02*
X0208416Y0234419D01*
X0208416Y0235018D02*
X0209016Y0235018D01*
X0209016Y0235616D02*
X0208416Y0235616D01*
X0208416Y0236215D02*
X0147841Y0236215D01*
X0148439Y0236813D02*
X0204423Y0236813D01*
X0204518Y0237412D02*
X0148722Y0237412D01*
X0148970Y0238010D02*
X0204708Y0238010D01*
X0205000Y0238609D02*
X0149093Y0238609D01*
X0149093Y0239208D02*
X0205418Y0239208D01*
X0206046Y0239806D02*
X0149093Y0239806D01*
X0148867Y0240405D02*
X0207043Y0240405D01*
X0208416Y0240405D02*
X0209016Y0240405D01*
X0209016Y0240731D02*
X0209054Y0240731D01*
X0209723Y0240625D01*
X0210366Y0240416D01*
X0210969Y0240108D01*
X0211517Y0239711D01*
X0211996Y0239232D01*
X0212393Y0238684D01*
X0212701Y0238081D01*
X0212910Y0237438D01*
X0213016Y0236769D01*
X0213016Y0236731D01*
X0209016Y0236731D01*
X0209016Y0240731D01*
X0209016Y0239806D02*
X0208416Y0239806D01*
X0208416Y0239208D02*
X0209016Y0239208D01*
X0209016Y0238609D02*
X0208416Y0238609D01*
X0208416Y0238010D02*
X0209016Y0238010D01*
X0209016Y0237412D02*
X0208416Y0237412D01*
X0208416Y0236813D02*
X0209016Y0236813D01*
X0209016Y0236215D02*
X0230416Y0236215D01*
X0230416Y0235655D02*
X0231009Y0234222D01*
X0232107Y0233124D01*
X0233540Y0232531D01*
X0235091Y0232531D01*
X0236525Y0233124D01*
X0237622Y0234222D01*
X0238216Y0235655D01*
X0238216Y0237206D01*
X0237622Y0238640D01*
X0236525Y0239737D01*
X0235091Y0240331D01*
X0233540Y0240331D01*
X0232107Y0239737D01*
X0231009Y0238640D01*
X0230416Y0237206D01*
X0230416Y0235655D01*
X0230432Y0235616D02*
X0212940Y0235616D01*
X0212778Y0235018D02*
X0230680Y0235018D01*
X0230928Y0234419D02*
X0212517Y0234419D01*
X0212135Y0233821D02*
X0231410Y0233821D01*
X0232009Y0233222D02*
X0211589Y0233222D01*
X0210716Y0232624D02*
X0233315Y0232624D01*
X0235316Y0232624D02*
X0346666Y0232624D01*
X0347122Y0232168D02*
X0347450Y0232168D01*
X0346876Y0231594D01*
X0346876Y0229855D01*
X0348107Y0228624D01*
X0349846Y0228624D01*
X0351076Y0229855D01*
X0351076Y0231183D01*
X0351207Y0231183D01*
X0351207Y0230051D01*
X0352437Y0228821D01*
X0354177Y0228821D01*
X0355407Y0230051D01*
X0355407Y0231774D01*
X0357130Y0231774D01*
X0357835Y0232479D01*
X0358540Y0231774D01*
X0360279Y0231774D01*
X0360984Y0232479D01*
X0361164Y0232299D01*
X0360459Y0231594D01*
X0360459Y0229855D01*
X0361689Y0228624D01*
X0363429Y0228624D01*
X0364134Y0229329D01*
X0364839Y0228624D01*
X0366579Y0228624D01*
X0367809Y0229855D01*
X0367809Y0231594D01*
X0367104Y0232299D01*
X0367809Y0233004D01*
X0367809Y0234744D01*
X0366579Y0235974D01*
X0364839Y0235974D01*
X0364134Y0235269D01*
X0363429Y0235974D01*
X0361689Y0235974D01*
X0360984Y0235269D01*
X0360279Y0235974D01*
X0358540Y0235974D01*
X0357835Y0235269D01*
X0357130Y0235974D01*
X0355390Y0235974D01*
X0354160Y0234744D01*
X0354160Y0233021D01*
X0353242Y0233021D01*
X0353242Y0234153D01*
X0352012Y0235383D01*
X0351881Y0235383D01*
X0352454Y0235957D01*
X0352454Y0237697D01*
X0351224Y0238927D01*
X0349895Y0238927D01*
X0349895Y0240059D01*
X0349289Y0240665D01*
X0350092Y0241469D01*
X0350092Y0242207D01*
X0351224Y0242207D01*
X0352454Y0243437D01*
X0352454Y0245177D01*
X0351224Y0246407D01*
X0349484Y0246407D01*
X0348254Y0245177D01*
X0348254Y0244439D01*
X0347122Y0244439D01*
X0345892Y0243208D01*
X0345892Y0241469D01*
X0346499Y0240862D01*
X0345695Y0240059D01*
X0345695Y0238319D01*
X0346925Y0237089D01*
X0348254Y0237089D01*
X0348254Y0236368D01*
X0347122Y0236368D01*
X0345892Y0235138D01*
X0345892Y0233398D01*
X0347122Y0232168D01*
X0347308Y0232025D02*
X0058900Y0232025D01*
X0058900Y0231427D02*
X0346876Y0231427D01*
X0346876Y0230828D02*
X0058840Y0230828D01*
X0058592Y0230230D02*
X0346876Y0230230D01*
X0347100Y0229631D02*
X0058345Y0229631D01*
X0057800Y0229033D02*
X0347698Y0229033D01*
X0350255Y0229033D02*
X0352226Y0229033D01*
X0351627Y0229631D02*
X0350853Y0229631D01*
X0351076Y0230230D02*
X0351207Y0230230D01*
X0351207Y0230828D02*
X0351076Y0230828D01*
X0353242Y0233222D02*
X0354160Y0233222D01*
X0354160Y0233821D02*
X0353242Y0233821D01*
X0352976Y0234419D02*
X0354160Y0234419D01*
X0354434Y0235018D02*
X0352377Y0235018D01*
X0352114Y0235616D02*
X0355032Y0235616D01*
X0354799Y0236695D02*
X0356539Y0236695D01*
X0357769Y0237925D01*
X0357769Y0239665D01*
X0356539Y0240895D01*
X0354799Y0240895D01*
X0353569Y0239665D01*
X0353569Y0237925D01*
X0354799Y0236695D01*
X0354681Y0236813D02*
X0352454Y0236813D01*
X0352454Y0236215D02*
X0487457Y0236215D01*
X0487457Y0236813D02*
X0356657Y0236813D01*
X0357256Y0237412D02*
X0487457Y0237412D01*
X0487457Y0238010D02*
X0357769Y0238010D01*
X0357769Y0238609D02*
X0487457Y0238609D01*
X0487457Y0239208D02*
X0384390Y0239208D01*
X0384336Y0239154D02*
X0385625Y0240443D01*
X0385625Y0242266D01*
X0384336Y0243554D01*
X0382514Y0243554D01*
X0381225Y0242266D01*
X0381225Y0240443D01*
X0382514Y0239154D01*
X0384336Y0239154D01*
X0384988Y0239806D02*
X0487457Y0239806D01*
X0487457Y0240405D02*
X0385587Y0240405D01*
X0385625Y0241003D02*
X0487456Y0241003D01*
X0487456Y0241602D02*
X0385625Y0241602D01*
X0385625Y0242200D02*
X0487456Y0242200D01*
X0487456Y0242799D02*
X0385092Y0242799D01*
X0384494Y0243397D02*
X0487456Y0243397D01*
X0487456Y0243996D02*
X0352454Y0243996D01*
X0352454Y0244594D02*
X0487456Y0244594D01*
X0487456Y0245193D02*
X0352439Y0245193D01*
X0351840Y0245791D02*
X0487456Y0245791D01*
X0487456Y0246390D02*
X0366824Y0246390D01*
X0366579Y0246144D02*
X0367809Y0247374D01*
X0367809Y0249114D01*
X0366579Y0250344D01*
X0364839Y0250344D01*
X0364134Y0249639D01*
X0363429Y0250344D01*
X0361689Y0250344D01*
X0360984Y0249639D01*
X0360279Y0250344D01*
X0358540Y0250344D01*
X0357835Y0249639D01*
X0357130Y0250344D01*
X0355390Y0250344D01*
X0354160Y0249114D01*
X0354160Y0247374D01*
X0355390Y0246144D01*
X0357130Y0246144D01*
X0357835Y0246849D01*
X0358540Y0246144D01*
X0360279Y0246144D01*
X0360984Y0246849D01*
X0361689Y0246144D01*
X0363429Y0246144D01*
X0364134Y0246849D01*
X0364839Y0246144D01*
X0366579Y0246144D01*
X0367423Y0246988D02*
X0487456Y0246988D01*
X0487456Y0247587D02*
X0367809Y0247587D01*
X0367809Y0248185D02*
X0487456Y0248185D01*
X0487456Y0248784D02*
X0367809Y0248784D01*
X0367540Y0249382D02*
X0487455Y0249382D01*
X0487455Y0249981D02*
X0366942Y0249981D01*
X0364475Y0249981D02*
X0363792Y0249981D01*
X0361326Y0249981D02*
X0360643Y0249981D01*
X0358176Y0249981D02*
X0357493Y0249981D01*
X0355027Y0249981D02*
X0338865Y0249981D01*
X0338508Y0250338D02*
X0336610Y0250338D01*
X0335269Y0248996D01*
X0335269Y0247098D01*
X0336610Y0245757D01*
X0338508Y0245757D01*
X0339850Y0247098D01*
X0339850Y0248996D01*
X0338508Y0250338D01*
X0339463Y0249382D02*
X0346357Y0249382D01*
X0346729Y0249754D02*
X0345498Y0248523D01*
X0345498Y0246784D01*
X0346729Y0245554D01*
X0348468Y0245554D01*
X0349698Y0246784D01*
X0349698Y0248523D01*
X0348468Y0249754D01*
X0346729Y0249754D01*
X0345759Y0248784D02*
X0339850Y0248784D01*
X0339850Y0248185D02*
X0345498Y0248185D01*
X0345498Y0247587D02*
X0339850Y0247587D01*
X0339739Y0246988D02*
X0345498Y0246988D01*
X0345892Y0246390D02*
X0339141Y0246390D01*
X0338542Y0245791D02*
X0346491Y0245791D01*
X0346679Y0243996D02*
X0058268Y0243996D01*
X0058306Y0243957D02*
X0057209Y0245054D01*
X0055776Y0245648D01*
X0054224Y0245648D01*
X0052791Y0245054D01*
X0051694Y0243957D01*
X0051100Y0242524D01*
X0051100Y0240972D01*
X0051694Y0239539D01*
X0052791Y0238442D01*
X0054224Y0237848D01*
X0055776Y0237848D01*
X0057209Y0238442D01*
X0058306Y0239539D01*
X0058900Y0240972D01*
X0058900Y0242524D01*
X0058306Y0243957D01*
X0058538Y0243397D02*
X0346081Y0243397D01*
X0345892Y0242799D02*
X0146413Y0242799D01*
X0147591Y0242200D02*
X0345892Y0242200D01*
X0345892Y0241602D02*
X0333465Y0241602D01*
X0332996Y0242070D02*
X0331098Y0242070D01*
X0329757Y0240728D01*
X0329757Y0238831D01*
X0330678Y0237909D01*
X0329757Y0236988D01*
X0329757Y0235091D01*
X0331098Y0233749D01*
X0332996Y0233749D01*
X0334338Y0235091D01*
X0334338Y0236988D01*
X0333416Y0237909D01*
X0334338Y0238831D01*
X0334338Y0240728D01*
X0332996Y0242070D01*
X0334063Y0241003D02*
X0346358Y0241003D01*
X0346041Y0240405D02*
X0334338Y0240405D01*
X0334338Y0239806D02*
X0345695Y0239806D01*
X0345695Y0239208D02*
X0334338Y0239208D01*
X0334116Y0238609D02*
X0345695Y0238609D01*
X0346004Y0238010D02*
X0333518Y0238010D01*
X0333914Y0237412D02*
X0346602Y0237412D01*
X0346970Y0236215D02*
X0334338Y0236215D01*
X0334338Y0236813D02*
X0348254Y0236813D01*
X0346371Y0235616D02*
X0334338Y0235616D01*
X0334265Y0235018D02*
X0345892Y0235018D01*
X0345892Y0234419D02*
X0333667Y0234419D01*
X0333068Y0233821D02*
X0345892Y0233821D01*
X0346068Y0233222D02*
X0236623Y0233222D01*
X0237221Y0233821D02*
X0331026Y0233821D01*
X0330428Y0234419D02*
X0237704Y0234419D01*
X0237952Y0235018D02*
X0329829Y0235018D01*
X0329757Y0235616D02*
X0238200Y0235616D01*
X0238216Y0236215D02*
X0329757Y0236215D01*
X0329757Y0236813D02*
X0238216Y0236813D01*
X0238131Y0237412D02*
X0330181Y0237412D01*
X0330577Y0238010D02*
X0237883Y0238010D01*
X0237635Y0238609D02*
X0329978Y0238609D01*
X0329757Y0239208D02*
X0237054Y0239208D01*
X0236358Y0239806D02*
X0329757Y0239806D01*
X0329757Y0240405D02*
X0210388Y0240405D01*
X0211386Y0239806D02*
X0232273Y0239806D01*
X0231577Y0239208D02*
X0212013Y0239208D01*
X0212432Y0238609D02*
X0230997Y0238609D01*
X0230749Y0238010D02*
X0212724Y0238010D01*
X0212914Y0237412D02*
X0230501Y0237412D01*
X0230416Y0236813D02*
X0213009Y0236813D01*
X0204491Y0235616D02*
X0147016Y0235616D01*
X0141947Y0236813D02*
X0039509Y0236813D01*
X0039509Y0237412D02*
X0141664Y0237412D01*
X0141416Y0238010D02*
X0056168Y0238010D01*
X0057376Y0238609D02*
X0141293Y0238609D01*
X0141293Y0239208D02*
X0057975Y0239208D01*
X0058417Y0239806D02*
X0141293Y0239806D01*
X0141519Y0240405D02*
X0058665Y0240405D01*
X0058900Y0241003D02*
X0141767Y0241003D01*
X0142196Y0241602D02*
X0058900Y0241602D01*
X0058900Y0242200D02*
X0142795Y0242200D01*
X0143973Y0242799D02*
X0058786Y0242799D01*
X0057669Y0244594D02*
X0348254Y0244594D01*
X0348270Y0245193D02*
X0056875Y0245193D01*
X0055776Y0247848D02*
X0057209Y0248442D01*
X0058306Y0249539D01*
X0058900Y0250972D01*
X0058900Y0252524D01*
X0058306Y0253957D01*
X0057209Y0255054D01*
X0055776Y0255648D01*
X0054224Y0255648D01*
X0052791Y0255054D01*
X0051694Y0253957D01*
X0051100Y0252524D01*
X0051100Y0250972D01*
X0051694Y0249539D01*
X0052791Y0248442D01*
X0054224Y0247848D01*
X0055776Y0247848D01*
X0056590Y0248185D02*
X0335269Y0248185D01*
X0335269Y0247587D02*
X0039508Y0247587D01*
X0039507Y0248185D02*
X0043410Y0248185D01*
X0042791Y0248442D02*
X0044224Y0247848D01*
X0045776Y0247848D01*
X0047209Y0248442D01*
X0048306Y0249539D01*
X0048900Y0250972D01*
X0048900Y0252524D01*
X0048306Y0253957D01*
X0047209Y0255054D01*
X0045776Y0255648D01*
X0044224Y0255648D01*
X0042791Y0255054D01*
X0041694Y0253957D01*
X0041100Y0252524D01*
X0041100Y0250972D01*
X0041694Y0249539D01*
X0042791Y0248442D01*
X0042449Y0248784D02*
X0039507Y0248784D01*
X0039507Y0249382D02*
X0041850Y0249382D01*
X0041511Y0249981D02*
X0039507Y0249981D01*
X0039507Y0250579D02*
X0041263Y0250579D01*
X0041100Y0251178D02*
X0039507Y0251178D01*
X0039507Y0251776D02*
X0041100Y0251776D01*
X0041100Y0252375D02*
X0039507Y0252375D01*
X0039507Y0252973D02*
X0041286Y0252973D01*
X0041534Y0253572D02*
X0039507Y0253572D01*
X0039506Y0254170D02*
X0041907Y0254170D01*
X0042505Y0254769D02*
X0039506Y0254769D01*
X0039506Y0255367D02*
X0043547Y0255367D01*
X0046453Y0255367D02*
X0053547Y0255367D01*
X0052505Y0254769D02*
X0047495Y0254769D01*
X0048093Y0254170D02*
X0051907Y0254170D01*
X0051534Y0253572D02*
X0048466Y0253572D01*
X0048714Y0252973D02*
X0051286Y0252973D01*
X0051100Y0252375D02*
X0048900Y0252375D01*
X0048900Y0251776D02*
X0051100Y0251776D01*
X0051100Y0251178D02*
X0048900Y0251178D01*
X0048737Y0250579D02*
X0051263Y0250579D01*
X0051511Y0249981D02*
X0048489Y0249981D01*
X0048150Y0249382D02*
X0051850Y0249382D01*
X0052449Y0248784D02*
X0047551Y0248784D01*
X0046590Y0248185D02*
X0053410Y0248185D01*
X0053125Y0245193D02*
X0046875Y0245193D01*
X0047209Y0245054D02*
X0045776Y0245648D01*
X0044224Y0245648D01*
X0042791Y0245054D01*
X0041694Y0243957D01*
X0041100Y0242524D01*
X0041100Y0240972D01*
X0041694Y0239539D01*
X0042791Y0238442D01*
X0044224Y0237848D01*
X0045776Y0237848D01*
X0047209Y0238442D01*
X0048306Y0239539D01*
X0048900Y0240972D01*
X0048900Y0242524D01*
X0048306Y0243957D01*
X0047209Y0245054D01*
X0047669Y0244594D02*
X0052331Y0244594D01*
X0051732Y0243996D02*
X0048268Y0243996D01*
X0048538Y0243397D02*
X0051462Y0243397D01*
X0051214Y0242799D02*
X0048786Y0242799D01*
X0048900Y0242200D02*
X0051100Y0242200D01*
X0051100Y0241602D02*
X0048900Y0241602D01*
X0048900Y0241003D02*
X0051100Y0241003D01*
X0051335Y0240405D02*
X0048665Y0240405D01*
X0048417Y0239806D02*
X0051583Y0239806D01*
X0052025Y0239208D02*
X0047975Y0239208D01*
X0047376Y0238609D02*
X0052624Y0238609D01*
X0053832Y0238010D02*
X0046168Y0238010D01*
X0043832Y0238010D02*
X0039509Y0238010D01*
X0039509Y0238609D02*
X0042624Y0238609D01*
X0042025Y0239208D02*
X0039509Y0239208D01*
X0039509Y0239806D02*
X0041583Y0239806D01*
X0041335Y0240405D02*
X0039509Y0240405D01*
X0039509Y0241003D02*
X0041100Y0241003D01*
X0041100Y0241602D02*
X0039508Y0241602D01*
X0039508Y0242200D02*
X0041100Y0242200D01*
X0041214Y0242799D02*
X0039508Y0242799D01*
X0039508Y0243397D02*
X0041462Y0243397D01*
X0041732Y0243996D02*
X0039508Y0243996D01*
X0039508Y0244594D02*
X0042331Y0244594D01*
X0043125Y0245193D02*
X0039508Y0245193D01*
X0039508Y0245791D02*
X0336576Y0245791D01*
X0335977Y0246390D02*
X0039508Y0246390D01*
X0039508Y0246988D02*
X0335379Y0246988D01*
X0335269Y0248784D02*
X0057551Y0248784D01*
X0058150Y0249382D02*
X0335655Y0249382D01*
X0336253Y0249981D02*
X0058489Y0249981D01*
X0058737Y0250579D02*
X0207340Y0250579D01*
X0207940Y0250331D02*
X0209491Y0250331D01*
X0210925Y0250924D01*
X0212022Y0252022D01*
X0212616Y0253455D01*
X0212616Y0255006D01*
X0212022Y0256440D01*
X0210925Y0257537D01*
X0209491Y0258131D01*
X0207940Y0258131D01*
X0206507Y0257537D01*
X0205409Y0256440D01*
X0204816Y0255006D01*
X0204816Y0253455D01*
X0205409Y0252022D01*
X0206507Y0250924D01*
X0207940Y0250331D01*
X0206253Y0251178D02*
X0058900Y0251178D01*
X0058900Y0251776D02*
X0205655Y0251776D01*
X0205263Y0252375D02*
X0196898Y0252375D01*
X0196382Y0251859D02*
X0197724Y0253201D01*
X0197724Y0255098D01*
X0196382Y0256440D01*
X0194484Y0256440D01*
X0193143Y0255098D01*
X0193143Y0253201D01*
X0194484Y0251859D01*
X0196382Y0251859D01*
X0197496Y0252973D02*
X0205015Y0252973D01*
X0204816Y0253572D02*
X0197724Y0253572D01*
X0197724Y0254170D02*
X0204816Y0254170D01*
X0204816Y0254769D02*
X0197724Y0254769D01*
X0197455Y0255367D02*
X0204965Y0255367D01*
X0205213Y0255966D02*
X0196856Y0255966D01*
X0194010Y0255966D02*
X0039506Y0255966D01*
X0039506Y0256564D02*
X0205534Y0256564D01*
X0206132Y0257163D02*
X0039506Y0257163D01*
X0039506Y0257761D02*
X0207048Y0257761D01*
X0210383Y0257761D02*
X0232648Y0257761D01*
X0232107Y0257537D02*
X0231009Y0256440D01*
X0230416Y0255006D01*
X0230416Y0253455D01*
X0231009Y0252022D01*
X0232107Y0250924D01*
X0233540Y0250331D01*
X0235091Y0250331D01*
X0236525Y0250924D01*
X0237622Y0252022D01*
X0238216Y0253455D01*
X0238216Y0255006D01*
X0237622Y0256440D01*
X0236525Y0257537D01*
X0235091Y0258131D01*
X0233540Y0258131D01*
X0232107Y0257537D01*
X0231732Y0257163D02*
X0211299Y0257163D01*
X0211898Y0256564D02*
X0231134Y0256564D01*
X0230813Y0255966D02*
X0212218Y0255966D01*
X0212466Y0255367D02*
X0230565Y0255367D01*
X0230416Y0254769D02*
X0212616Y0254769D01*
X0212616Y0254170D02*
X0230416Y0254170D01*
X0230416Y0253572D02*
X0212616Y0253572D01*
X0212416Y0252973D02*
X0230615Y0252973D01*
X0230863Y0252375D02*
X0212168Y0252375D01*
X0211777Y0251776D02*
X0231255Y0251776D01*
X0231853Y0251178D02*
X0211178Y0251178D01*
X0210091Y0250579D02*
X0232940Y0250579D01*
X0235691Y0250579D02*
X0487455Y0250579D01*
X0487455Y0251178D02*
X0236778Y0251178D01*
X0237377Y0251776D02*
X0487455Y0251776D01*
X0487455Y0252375D02*
X0237768Y0252375D01*
X0238016Y0252973D02*
X0487455Y0252973D01*
X0487455Y0253572D02*
X0403675Y0253572D01*
X0403628Y0253524D02*
X0404917Y0254813D01*
X0404917Y0256636D01*
X0403628Y0257924D01*
X0401805Y0257924D01*
X0401373Y0257492D01*
X0401373Y0257620D01*
X0400084Y0258909D01*
X0398262Y0258909D01*
X0396973Y0257620D01*
X0396973Y0255797D01*
X0398262Y0254509D01*
X0400084Y0254509D01*
X0400517Y0254941D01*
X0400517Y0254813D01*
X0401805Y0253524D01*
X0403628Y0253524D01*
X0404274Y0254170D02*
X0487455Y0254170D01*
X0487455Y0254769D02*
X0404872Y0254769D01*
X0404917Y0255367D02*
X0487455Y0255367D01*
X0487455Y0255966D02*
X0404917Y0255966D01*
X0404917Y0256564D02*
X0487455Y0256564D01*
X0487455Y0257163D02*
X0404389Y0257163D01*
X0403791Y0257761D02*
X0487455Y0257761D01*
X0487454Y0258360D02*
X0400633Y0258360D01*
X0401232Y0257761D02*
X0401642Y0257761D01*
X0400084Y0260217D02*
X0401373Y0261506D01*
X0401373Y0263329D01*
X0400084Y0264617D01*
X0398262Y0264617D01*
X0396973Y0263329D01*
X0396973Y0261506D01*
X0398262Y0260217D01*
X0400084Y0260217D01*
X0400621Y0260754D02*
X0406062Y0260754D01*
X0406492Y0260324D02*
X0408390Y0260324D01*
X0409731Y0261665D01*
X0409731Y0263563D01*
X0408390Y0264905D01*
X0406492Y0264905D01*
X0405150Y0263563D01*
X0405150Y0261665D01*
X0406492Y0260324D01*
X0405463Y0261352D02*
X0401220Y0261352D01*
X0401373Y0261951D02*
X0405150Y0261951D01*
X0405150Y0262549D02*
X0401373Y0262549D01*
X0401373Y0263148D02*
X0405150Y0263148D01*
X0405334Y0263746D02*
X0400955Y0263746D01*
X0400357Y0264345D02*
X0405932Y0264345D01*
X0408949Y0264345D02*
X0417355Y0264345D01*
X0417355Y0264224D02*
X0418697Y0262883D01*
X0420594Y0262883D01*
X0421936Y0264224D01*
X0421936Y0266122D01*
X0420594Y0267464D01*
X0418697Y0267464D01*
X0417355Y0266122D01*
X0417355Y0264224D01*
X0417833Y0263746D02*
X0409548Y0263746D01*
X0409731Y0263148D02*
X0418432Y0263148D01*
X0417355Y0264943D02*
X0332172Y0264943D01*
X0332172Y0264345D02*
X0397990Y0264345D01*
X0397391Y0263746D02*
X0332088Y0263746D01*
X0332172Y0263831D02*
X0330831Y0262489D01*
X0328933Y0262489D01*
X0327591Y0263831D01*
X0327591Y0265728D01*
X0328933Y0267070D01*
X0330831Y0267070D01*
X0332172Y0265728D01*
X0332172Y0263831D01*
X0331490Y0263148D02*
X0396973Y0263148D01*
X0396973Y0262549D02*
X0330891Y0262549D01*
X0328873Y0262549D02*
X0039505Y0262549D01*
X0039505Y0261951D02*
X0396973Y0261951D01*
X0397127Y0261352D02*
X0039505Y0261352D01*
X0039505Y0260754D02*
X0342499Y0260754D01*
X0342909Y0261165D02*
X0341568Y0259823D01*
X0341568Y0257925D01*
X0342909Y0256583D01*
X0344807Y0256583D01*
X0346149Y0257925D01*
X0346149Y0259823D01*
X0344807Y0261165D01*
X0342909Y0261165D01*
X0341900Y0260155D02*
X0039505Y0260155D01*
X0039506Y0259557D02*
X0341568Y0259557D01*
X0341568Y0258958D02*
X0039506Y0258958D01*
X0039506Y0258360D02*
X0341568Y0258360D01*
X0341732Y0257761D02*
X0235983Y0257761D01*
X0236899Y0257163D02*
X0342330Y0257163D01*
X0345386Y0257163D02*
X0396973Y0257163D01*
X0396973Y0256564D02*
X0237498Y0256564D01*
X0237818Y0255966D02*
X0396973Y0255966D01*
X0397403Y0255367D02*
X0238066Y0255367D01*
X0238216Y0254769D02*
X0398002Y0254769D01*
X0400345Y0254769D02*
X0400561Y0254769D01*
X0401159Y0254170D02*
X0238216Y0254170D01*
X0238216Y0253572D02*
X0401758Y0253572D01*
X0397115Y0257761D02*
X0345985Y0257761D01*
X0346149Y0258360D02*
X0397713Y0258360D01*
X0397725Y0260754D02*
X0345218Y0260754D01*
X0345816Y0260155D02*
X0487454Y0260155D01*
X0487454Y0259557D02*
X0346149Y0259557D01*
X0346149Y0258958D02*
X0487454Y0258958D01*
X0487454Y0260754D02*
X0408820Y0260754D01*
X0409419Y0261352D02*
X0487454Y0261352D01*
X0487454Y0261951D02*
X0409731Y0261951D01*
X0409731Y0262549D02*
X0487454Y0262549D01*
X0487454Y0263148D02*
X0420860Y0263148D01*
X0421458Y0263746D02*
X0487454Y0263746D01*
X0487454Y0264345D02*
X0472351Y0264345D01*
X0471760Y0264100D02*
X0473193Y0264694D01*
X0474291Y0265791D01*
X0474884Y0267224D01*
X0474884Y0268776D01*
X0474291Y0270209D01*
X0473193Y0271306D01*
X0471760Y0271900D01*
X0470208Y0271900D01*
X0468775Y0271306D01*
X0467678Y0270209D01*
X0467084Y0268776D01*
X0467084Y0267224D01*
X0467678Y0265791D01*
X0468775Y0264694D01*
X0470208Y0264100D01*
X0471760Y0264100D01*
X0473443Y0264943D02*
X0487454Y0264943D01*
X0487454Y0265542D02*
X0474042Y0265542D01*
X0474435Y0266141D02*
X0487454Y0266141D01*
X0487453Y0266739D02*
X0474683Y0266739D01*
X0474884Y0267338D02*
X0487453Y0267338D01*
X0487453Y0267936D02*
X0474884Y0267936D01*
X0474884Y0268535D02*
X0487453Y0268535D01*
X0487453Y0269133D02*
X0474736Y0269133D01*
X0474488Y0269732D02*
X0487453Y0269732D01*
X0487453Y0270330D02*
X0474170Y0270330D01*
X0473571Y0270929D02*
X0487453Y0270929D01*
X0487453Y0271527D02*
X0472660Y0271527D01*
X0471760Y0274100D02*
X0473193Y0274694D01*
X0474291Y0275791D01*
X0474884Y0277224D01*
X0474884Y0278776D01*
X0474291Y0280209D01*
X0473193Y0281306D01*
X0471760Y0281900D01*
X0470208Y0281900D01*
X0468775Y0281306D01*
X0467678Y0280209D01*
X0467084Y0278776D01*
X0467084Y0277224D01*
X0467678Y0275791D01*
X0468775Y0274694D01*
X0470208Y0274100D01*
X0471760Y0274100D01*
X0472773Y0274520D02*
X0487453Y0274520D01*
X0487452Y0275118D02*
X0473618Y0275118D01*
X0474216Y0275717D02*
X0487452Y0275717D01*
X0487452Y0276315D02*
X0474508Y0276315D01*
X0474756Y0276914D02*
X0487452Y0276914D01*
X0487452Y0277512D02*
X0474884Y0277512D01*
X0474884Y0278111D02*
X0487452Y0278111D01*
X0487452Y0278709D02*
X0474884Y0278709D01*
X0474664Y0279308D02*
X0487452Y0279308D01*
X0487452Y0279906D02*
X0474416Y0279906D01*
X0473995Y0280505D02*
X0487452Y0280505D01*
X0487452Y0281103D02*
X0473396Y0281103D01*
X0472238Y0281702D02*
X0487452Y0281702D01*
X0487452Y0282300D02*
X0081068Y0282300D01*
X0080556Y0281788D02*
X0081653Y0282885D01*
X0082246Y0284319D01*
X0082246Y0285870D01*
X0081653Y0287304D01*
X0080556Y0288401D01*
X0079122Y0288994D01*
X0077571Y0288994D01*
X0076137Y0288401D01*
X0075040Y0287304D01*
X0074446Y0285870D01*
X0074446Y0284319D01*
X0075040Y0282885D01*
X0076137Y0281788D01*
X0077571Y0281194D01*
X0079122Y0281194D01*
X0080556Y0281788D01*
X0080347Y0281702D02*
X0459730Y0281702D01*
X0460208Y0281900D02*
X0458775Y0281306D01*
X0457678Y0280209D01*
X0457084Y0278776D01*
X0457084Y0277224D01*
X0457678Y0275791D01*
X0458775Y0274694D01*
X0460208Y0274100D01*
X0461760Y0274100D01*
X0463193Y0274694D01*
X0464291Y0275791D01*
X0464884Y0277224D01*
X0464884Y0278776D01*
X0464291Y0280209D01*
X0463193Y0281306D01*
X0461760Y0281900D01*
X0460208Y0281900D01*
X0458572Y0281103D02*
X0039502Y0281103D01*
X0039502Y0280505D02*
X0457974Y0280505D01*
X0457553Y0279906D02*
X0039502Y0279906D01*
X0039502Y0279308D02*
X0344675Y0279308D01*
X0344957Y0279590D02*
X0343615Y0278248D01*
X0343615Y0276350D01*
X0344957Y0275009D01*
X0346854Y0275009D01*
X0348196Y0276350D01*
X0348196Y0278248D01*
X0346854Y0279590D01*
X0344957Y0279590D01*
X0344076Y0278709D02*
X0039502Y0278709D01*
X0039503Y0278111D02*
X0343615Y0278111D01*
X0343615Y0277512D02*
X0039503Y0277512D01*
X0039503Y0276914D02*
X0343615Y0276914D01*
X0343650Y0276315D02*
X0039503Y0276315D01*
X0039503Y0275717D02*
X0314824Y0275717D01*
X0314996Y0275889D02*
X0313654Y0274547D01*
X0313654Y0272650D01*
X0314996Y0271308D01*
X0316894Y0271308D01*
X0318235Y0272650D01*
X0318235Y0274547D01*
X0316894Y0275889D01*
X0314996Y0275889D01*
X0314225Y0275118D02*
X0039503Y0275118D01*
X0039503Y0274520D02*
X0313654Y0274520D01*
X0313654Y0273921D02*
X0039503Y0273921D01*
X0039503Y0273323D02*
X0313654Y0273323D01*
X0313654Y0272724D02*
X0039503Y0272724D01*
X0039504Y0272126D02*
X0314178Y0272126D01*
X0314777Y0271527D02*
X0039504Y0271527D01*
X0039504Y0270929D02*
X0331056Y0270929D01*
X0331056Y0271527D02*
X0317113Y0271527D01*
X0317711Y0272126D02*
X0331390Y0272126D01*
X0331056Y0271791D02*
X0331056Y0269894D01*
X0332398Y0268552D01*
X0334295Y0268552D01*
X0335637Y0269894D01*
X0335637Y0271791D01*
X0334295Y0273133D01*
X0332398Y0273133D01*
X0331056Y0271791D01*
X0331989Y0272724D02*
X0318235Y0272724D01*
X0318235Y0273323D02*
X0418296Y0273323D01*
X0418500Y0273119D02*
X0420398Y0273119D01*
X0421739Y0274461D01*
X0421739Y0276358D01*
X0420398Y0277700D01*
X0418500Y0277700D01*
X0417158Y0276358D01*
X0417158Y0274461D01*
X0418500Y0273119D01*
X0417698Y0273921D02*
X0318235Y0273921D01*
X0318235Y0274520D02*
X0417158Y0274520D01*
X0417158Y0275118D02*
X0346964Y0275118D01*
X0347562Y0275717D02*
X0417158Y0275717D01*
X0417158Y0276315D02*
X0348161Y0276315D01*
X0348196Y0276914D02*
X0417714Y0276914D01*
X0418312Y0277512D02*
X0348196Y0277512D01*
X0348196Y0278111D02*
X0457084Y0278111D01*
X0457084Y0278709D02*
X0347735Y0278709D01*
X0347136Y0279308D02*
X0457305Y0279308D01*
X0457084Y0277512D02*
X0420585Y0277512D01*
X0421184Y0276914D02*
X0457213Y0276914D01*
X0457461Y0276315D02*
X0421739Y0276315D01*
X0421739Y0275717D02*
X0457752Y0275717D01*
X0458351Y0275118D02*
X0421739Y0275118D01*
X0421739Y0274520D02*
X0459195Y0274520D01*
X0460208Y0271900D02*
X0458775Y0271306D01*
X0457678Y0270209D01*
X0457084Y0268776D01*
X0457084Y0267224D01*
X0457678Y0265791D01*
X0458775Y0264694D01*
X0460208Y0264100D01*
X0461760Y0264100D01*
X0463193Y0264694D01*
X0464291Y0265791D01*
X0464884Y0267224D01*
X0464884Y0268776D01*
X0464291Y0270209D01*
X0463193Y0271306D01*
X0461760Y0271900D01*
X0460208Y0271900D01*
X0459308Y0271527D02*
X0430991Y0271527D01*
X0430991Y0270929D02*
X0458397Y0270929D01*
X0457799Y0270330D02*
X0430404Y0270330D01*
X0430991Y0270917D02*
X0429650Y0269576D01*
X0427752Y0269576D01*
X0426410Y0270917D01*
X0426410Y0272815D01*
X0427752Y0274157D01*
X0429650Y0274157D01*
X0430991Y0272815D01*
X0430991Y0270917D01*
X0430991Y0272126D02*
X0487453Y0272126D01*
X0487453Y0272724D02*
X0430991Y0272724D01*
X0430484Y0273323D02*
X0487453Y0273323D01*
X0487453Y0273921D02*
X0429885Y0273921D01*
X0427516Y0273921D02*
X0421200Y0273921D01*
X0420601Y0273323D02*
X0426918Y0273323D01*
X0426410Y0272724D02*
X0334704Y0272724D01*
X0335303Y0272126D02*
X0426410Y0272126D01*
X0426410Y0271527D02*
X0335637Y0271527D01*
X0335637Y0270929D02*
X0397683Y0270929D01*
X0398262Y0271507D02*
X0396973Y0270218D01*
X0396973Y0268396D01*
X0398262Y0267107D01*
X0400084Y0267107D01*
X0401373Y0268396D01*
X0401373Y0270218D01*
X0400084Y0271507D01*
X0398262Y0271507D01*
X0397085Y0270330D02*
X0335637Y0270330D01*
X0335475Y0269732D02*
X0396973Y0269732D01*
X0396973Y0269133D02*
X0334876Y0269133D01*
X0331817Y0269133D02*
X0039504Y0269133D01*
X0039504Y0268535D02*
X0396973Y0268535D01*
X0397433Y0267936D02*
X0039504Y0267936D01*
X0039504Y0267338D02*
X0398031Y0267338D01*
X0400315Y0267338D02*
X0418571Y0267338D01*
X0417972Y0266739D02*
X0331162Y0266739D01*
X0331760Y0266141D02*
X0417374Y0266141D01*
X0417355Y0265542D02*
X0332172Y0265542D01*
X0328602Y0266739D02*
X0039504Y0266739D01*
X0039505Y0266141D02*
X0328004Y0266141D01*
X0327591Y0265542D02*
X0039505Y0265542D01*
X0039505Y0264943D02*
X0327591Y0264943D01*
X0327591Y0264345D02*
X0039505Y0264345D01*
X0039505Y0263746D02*
X0327676Y0263746D01*
X0328274Y0263148D02*
X0039505Y0263148D01*
X0039504Y0269732D02*
X0331218Y0269732D01*
X0331056Y0270330D02*
X0039504Y0270330D01*
X0039502Y0281702D02*
X0076346Y0281702D01*
X0075625Y0282300D02*
X0039502Y0282300D01*
X0039502Y0282899D02*
X0075035Y0282899D01*
X0074787Y0283497D02*
X0039502Y0283497D01*
X0039502Y0284096D02*
X0074539Y0284096D01*
X0074446Y0284694D02*
X0039502Y0284694D01*
X0039501Y0285293D02*
X0074446Y0285293D01*
X0074455Y0285891D02*
X0039501Y0285891D01*
X0039501Y0286490D02*
X0074703Y0286490D01*
X0074951Y0287088D02*
X0039501Y0287088D01*
X0039501Y0287687D02*
X0075423Y0287687D01*
X0076022Y0288285D02*
X0039501Y0288285D01*
X0039501Y0288884D02*
X0077304Y0288884D01*
X0079389Y0288884D02*
X0137089Y0288884D01*
X0137507Y0288467D02*
X0136640Y0289333D01*
X0136171Y0290466D01*
X0136171Y0291692D01*
X0136640Y0292824D01*
X0137507Y0293691D01*
X0138639Y0294160D01*
X0139865Y0294160D01*
X0140997Y0293691D01*
X0141864Y0292824D01*
X0142333Y0291692D01*
X0142333Y0290466D01*
X0141864Y0289333D01*
X0140997Y0288467D01*
X0139865Y0287998D01*
X0138639Y0287998D01*
X0137507Y0288467D01*
X0137944Y0288285D02*
X0080671Y0288285D01*
X0081269Y0287687D02*
X0365692Y0287687D01*
X0365190Y0287185D02*
X0365190Y0285287D01*
X0366532Y0283946D01*
X0368429Y0283946D01*
X0369771Y0285287D01*
X0369771Y0287185D01*
X0368429Y0288527D01*
X0366532Y0288527D01*
X0365190Y0287185D01*
X0365190Y0287088D02*
X0081742Y0287088D01*
X0081990Y0286490D02*
X0365190Y0286490D01*
X0365190Y0285891D02*
X0082238Y0285891D01*
X0082246Y0285293D02*
X0365190Y0285293D01*
X0365783Y0284694D02*
X0082246Y0284694D01*
X0082154Y0284096D02*
X0366381Y0284096D01*
X0368579Y0284096D02*
X0415594Y0284096D01*
X0414995Y0284694D02*
X0369178Y0284694D01*
X0369771Y0285293D02*
X0414993Y0285293D01*
X0414993Y0284697D02*
X0414993Y0286594D01*
X0416335Y0287936D01*
X0418232Y0287936D01*
X0419574Y0286594D01*
X0419574Y0284697D01*
X0418232Y0283355D01*
X0416335Y0283355D01*
X0414993Y0284697D01*
X0414993Y0285891D02*
X0369771Y0285891D01*
X0369771Y0286490D02*
X0414993Y0286490D01*
X0415487Y0287088D02*
X0369771Y0287088D01*
X0369269Y0287687D02*
X0375782Y0287687D01*
X0376374Y0287095D02*
X0378272Y0287095D01*
X0379613Y0288437D01*
X0379613Y0290335D01*
X0378272Y0291676D01*
X0377538Y0291676D01*
X0378432Y0292571D01*
X0378432Y0294468D01*
X0377609Y0295291D01*
X0378826Y0296508D01*
X0378826Y0298405D01*
X0377484Y0299747D01*
X0375587Y0299747D01*
X0374245Y0298405D01*
X0374245Y0296508D01*
X0375068Y0295685D01*
X0373851Y0294468D01*
X0373851Y0292571D01*
X0375193Y0291229D01*
X0375927Y0291229D01*
X0375032Y0290335D01*
X0375032Y0288437D01*
X0376374Y0287095D01*
X0375184Y0288285D02*
X0368670Y0288285D01*
X0366290Y0288285D02*
X0150560Y0288285D01*
X0150997Y0288467D02*
X0151864Y0289333D01*
X0152333Y0290466D01*
X0152333Y0291692D01*
X0151864Y0292824D01*
X0150997Y0293691D01*
X0149865Y0294160D01*
X0148639Y0294160D01*
X0147507Y0293691D01*
X0146640Y0292824D01*
X0146171Y0291692D01*
X0146171Y0290466D01*
X0146640Y0289333D01*
X0147507Y0288467D01*
X0148639Y0287998D01*
X0149865Y0287998D01*
X0150997Y0288467D01*
X0151415Y0288884D02*
X0375032Y0288884D01*
X0375032Y0289482D02*
X0151926Y0289482D01*
X0152174Y0290081D02*
X0375032Y0290081D01*
X0375377Y0290679D02*
X0152333Y0290679D01*
X0152333Y0291278D02*
X0375144Y0291278D01*
X0374546Y0291877D02*
X0152256Y0291877D01*
X0152009Y0292475D02*
X0373947Y0292475D01*
X0373851Y0293074D02*
X0170746Y0293074D01*
X0170161Y0292489D02*
X0171503Y0293831D01*
X0171503Y0295728D01*
X0170161Y0297070D01*
X0168264Y0297070D01*
X0166922Y0295728D01*
X0166922Y0293831D01*
X0168264Y0292489D01*
X0170161Y0292489D01*
X0171344Y0293672D02*
X0373851Y0293672D01*
X0373851Y0294271D02*
X0171503Y0294271D01*
X0171503Y0294869D02*
X0374252Y0294869D01*
X0374850Y0295468D02*
X0171503Y0295468D01*
X0171165Y0296066D02*
X0374687Y0296066D01*
X0374245Y0296665D02*
X0170567Y0296665D01*
X0167858Y0296665D02*
X0039500Y0296665D01*
X0039500Y0297263D02*
X0199145Y0297263D01*
X0199539Y0297100D02*
X0201091Y0297100D01*
X0202524Y0297694D01*
X0203621Y0298791D01*
X0204215Y0300224D01*
X0204215Y0301776D01*
X0203621Y0303209D01*
X0202524Y0304306D01*
X0201091Y0304900D01*
X0199539Y0304900D01*
X0198106Y0304306D01*
X0197009Y0303209D01*
X0196415Y0301776D01*
X0196415Y0300224D01*
X0197009Y0298791D01*
X0198106Y0297694D01*
X0199539Y0297100D01*
X0197938Y0297862D02*
X0039499Y0297862D01*
X0039499Y0298460D02*
X0137523Y0298460D01*
X0137507Y0298467D02*
X0138639Y0297998D01*
X0139865Y0297998D01*
X0140997Y0298467D01*
X0141864Y0299333D01*
X0142333Y0300466D01*
X0142333Y0301692D01*
X0141864Y0302824D01*
X0140997Y0303691D01*
X0139865Y0304160D01*
X0138639Y0304160D01*
X0137507Y0303691D01*
X0136640Y0302824D01*
X0136171Y0301692D01*
X0136171Y0300466D01*
X0136640Y0299333D01*
X0137507Y0298467D01*
X0136915Y0299059D02*
X0106967Y0299059D01*
X0106421Y0298513D02*
X0107763Y0299854D01*
X0107763Y0301752D01*
X0106421Y0303094D01*
X0104524Y0303094D01*
X0103182Y0301752D01*
X0103182Y0299854D01*
X0104524Y0298513D01*
X0106421Y0298513D01*
X0107566Y0299657D02*
X0136506Y0299657D01*
X0136258Y0300256D02*
X0107763Y0300256D01*
X0107763Y0300854D02*
X0136171Y0300854D01*
X0136171Y0301453D02*
X0107763Y0301453D01*
X0107464Y0302051D02*
X0136320Y0302051D01*
X0136568Y0302650D02*
X0106865Y0302650D01*
X0104080Y0302650D02*
X0039499Y0302650D01*
X0039499Y0303248D02*
X0137064Y0303248D01*
X0137883Y0303847D02*
X0039498Y0303847D01*
X0039498Y0304445D02*
X0198441Y0304445D01*
X0197646Y0303847D02*
X0150621Y0303847D01*
X0150997Y0303691D02*
X0149865Y0304160D01*
X0148639Y0304160D01*
X0147507Y0303691D01*
X0146640Y0302824D01*
X0146171Y0301692D01*
X0146171Y0300466D01*
X0146640Y0299333D01*
X0147507Y0298467D01*
X0148639Y0297998D01*
X0149865Y0297998D01*
X0150997Y0298467D01*
X0151864Y0299333D01*
X0152333Y0300466D01*
X0152333Y0301692D01*
X0151864Y0302824D01*
X0150997Y0303691D01*
X0151440Y0303248D02*
X0197048Y0303248D01*
X0196777Y0302650D02*
X0151936Y0302650D01*
X0152184Y0302051D02*
X0196529Y0302051D01*
X0196415Y0301453D02*
X0152333Y0301453D01*
X0152333Y0300854D02*
X0196415Y0300854D01*
X0196415Y0300256D02*
X0152246Y0300256D01*
X0151998Y0299657D02*
X0196650Y0299657D01*
X0196898Y0299059D02*
X0151589Y0299059D01*
X0150981Y0298460D02*
X0197339Y0298460D01*
X0201484Y0297263D02*
X0209145Y0297263D01*
X0209539Y0297100D02*
X0211091Y0297100D01*
X0212524Y0297694D01*
X0213621Y0298791D01*
X0214215Y0300224D01*
X0214215Y0301776D01*
X0213621Y0303209D01*
X0212524Y0304306D01*
X0211091Y0304900D01*
X0209539Y0304900D01*
X0208106Y0304306D01*
X0207009Y0303209D01*
X0206415Y0301776D01*
X0206415Y0300224D01*
X0207009Y0298791D01*
X0208106Y0297694D01*
X0209539Y0297100D01*
X0207938Y0297862D02*
X0202692Y0297862D01*
X0203291Y0298460D02*
X0207339Y0298460D01*
X0206898Y0299059D02*
X0203732Y0299059D01*
X0203980Y0299657D02*
X0206650Y0299657D01*
X0206415Y0300256D02*
X0204215Y0300256D01*
X0204215Y0300854D02*
X0206415Y0300854D01*
X0206415Y0301453D02*
X0204215Y0301453D01*
X0204101Y0302051D02*
X0206529Y0302051D01*
X0206777Y0302650D02*
X0203853Y0302650D01*
X0203582Y0303248D02*
X0207048Y0303248D01*
X0207646Y0303847D02*
X0202984Y0303847D01*
X0202189Y0304445D02*
X0208441Y0304445D01*
X0212189Y0304445D02*
X0393277Y0304445D01*
X0393500Y0304668D02*
X0392158Y0303327D01*
X0392158Y0302109D01*
X0390350Y0302109D01*
X0389009Y0300768D01*
X0389009Y0298870D01*
X0390350Y0297528D01*
X0392248Y0297528D01*
X0393590Y0298870D01*
X0393590Y0300087D01*
X0395398Y0300087D01*
X0396739Y0301429D01*
X0396739Y0303327D01*
X0395398Y0304668D01*
X0393500Y0304668D01*
X0392678Y0303847D02*
X0212984Y0303847D01*
X0213582Y0303248D02*
X0392158Y0303248D01*
X0392158Y0302650D02*
X0213853Y0302650D01*
X0214101Y0302051D02*
X0390292Y0302051D01*
X0389694Y0301453D02*
X0214215Y0301453D01*
X0214215Y0300854D02*
X0389095Y0300854D01*
X0389009Y0300256D02*
X0214215Y0300256D01*
X0213980Y0299657D02*
X0375497Y0299657D01*
X0374898Y0299059D02*
X0213732Y0299059D01*
X0213291Y0298460D02*
X0374300Y0298460D01*
X0374245Y0297862D02*
X0212692Y0297862D01*
X0211484Y0297263D02*
X0374245Y0297263D01*
X0377786Y0295468D02*
X0458001Y0295468D01*
X0457678Y0295791D02*
X0458775Y0294694D01*
X0460208Y0294100D01*
X0461760Y0294100D01*
X0463193Y0294694D01*
X0464291Y0295791D01*
X0464884Y0297224D01*
X0464884Y0298776D01*
X0464291Y0300209D01*
X0463193Y0301306D01*
X0461760Y0301900D01*
X0460208Y0301900D01*
X0458775Y0301306D01*
X0457678Y0300209D01*
X0457084Y0298776D01*
X0457084Y0297224D01*
X0457678Y0295791D01*
X0457564Y0296066D02*
X0378384Y0296066D01*
X0378826Y0296665D02*
X0457316Y0296665D01*
X0457084Y0297263D02*
X0378826Y0297263D01*
X0378826Y0297862D02*
X0390017Y0297862D01*
X0389419Y0298460D02*
X0378771Y0298460D01*
X0378173Y0299059D02*
X0389009Y0299059D01*
X0389009Y0299657D02*
X0377574Y0299657D01*
X0378032Y0294869D02*
X0458600Y0294869D01*
X0459797Y0294271D02*
X0378432Y0294271D01*
X0378432Y0293672D02*
X0487450Y0293672D01*
X0487450Y0293074D02*
X0378432Y0293074D01*
X0378336Y0292475D02*
X0487450Y0292475D01*
X0487450Y0291877D02*
X0471817Y0291877D01*
X0471760Y0291900D02*
X0470208Y0291900D01*
X0468775Y0291306D01*
X0467678Y0290209D01*
X0467084Y0288776D01*
X0467084Y0287224D01*
X0467678Y0285791D01*
X0468775Y0284694D01*
X0470208Y0284100D01*
X0471760Y0284100D01*
X0473193Y0284694D01*
X0474291Y0285791D01*
X0474884Y0287224D01*
X0474884Y0288776D01*
X0474291Y0290209D01*
X0473193Y0291306D01*
X0471760Y0291900D01*
X0473222Y0291278D02*
X0487451Y0291278D01*
X0487451Y0290679D02*
X0473820Y0290679D01*
X0474344Y0290081D02*
X0487451Y0290081D01*
X0487451Y0289482D02*
X0474592Y0289482D01*
X0474839Y0288884D02*
X0487451Y0288884D01*
X0487451Y0288285D02*
X0474884Y0288285D01*
X0474884Y0287687D02*
X0487451Y0287687D01*
X0487451Y0287088D02*
X0474828Y0287088D01*
X0474580Y0286490D02*
X0487451Y0286490D01*
X0487451Y0285891D02*
X0474332Y0285891D01*
X0473793Y0285293D02*
X0487451Y0285293D01*
X0487451Y0284694D02*
X0473194Y0284694D01*
X0468774Y0284694D02*
X0463194Y0284694D01*
X0463193Y0284694D02*
X0464291Y0285791D01*
X0464884Y0287224D01*
X0464884Y0288776D01*
X0464291Y0290209D01*
X0463193Y0291306D01*
X0461760Y0291900D01*
X0460208Y0291900D01*
X0458775Y0291306D01*
X0457678Y0290209D01*
X0457084Y0288776D01*
X0457084Y0287224D01*
X0457678Y0285791D01*
X0458775Y0284694D01*
X0460208Y0284100D01*
X0461760Y0284100D01*
X0463193Y0284694D01*
X0463793Y0285293D02*
X0468176Y0285293D01*
X0467636Y0285891D02*
X0464332Y0285891D01*
X0464580Y0286490D02*
X0467388Y0286490D01*
X0467141Y0287088D02*
X0464828Y0287088D01*
X0464884Y0287687D02*
X0467084Y0287687D01*
X0467084Y0288285D02*
X0464884Y0288285D01*
X0464839Y0288884D02*
X0467129Y0288884D01*
X0467377Y0289482D02*
X0464592Y0289482D01*
X0464344Y0290081D02*
X0467625Y0290081D01*
X0468148Y0290679D02*
X0463820Y0290679D01*
X0463222Y0291278D02*
X0468747Y0291278D01*
X0470152Y0291877D02*
X0461817Y0291877D01*
X0460152Y0291877D02*
X0377738Y0291877D01*
X0378670Y0291278D02*
X0458747Y0291278D01*
X0458148Y0290679D02*
X0379268Y0290679D01*
X0379613Y0290081D02*
X0457625Y0290081D01*
X0457377Y0289482D02*
X0379613Y0289482D01*
X0379613Y0288884D02*
X0457129Y0288884D01*
X0457084Y0288285D02*
X0379462Y0288285D01*
X0378863Y0287687D02*
X0416085Y0287687D01*
X0418482Y0287687D02*
X0457084Y0287687D01*
X0457141Y0287088D02*
X0419080Y0287088D01*
X0419574Y0286490D02*
X0457388Y0286490D01*
X0457636Y0285891D02*
X0419574Y0285891D01*
X0419574Y0285293D02*
X0458176Y0285293D01*
X0458774Y0284694D02*
X0419571Y0284694D01*
X0418973Y0284096D02*
X0487451Y0284096D01*
X0487451Y0283497D02*
X0418374Y0283497D01*
X0416192Y0283497D02*
X0081906Y0283497D01*
X0081658Y0282899D02*
X0487452Y0282899D01*
X0487450Y0294271D02*
X0472172Y0294271D01*
X0471760Y0294100D02*
X0473193Y0294694D01*
X0474291Y0295791D01*
X0474884Y0297224D01*
X0474884Y0298776D01*
X0474291Y0300209D01*
X0473193Y0301306D01*
X0471760Y0301900D01*
X0470208Y0301900D01*
X0468775Y0301306D01*
X0467678Y0300209D01*
X0467084Y0298776D01*
X0467084Y0297224D01*
X0467678Y0295791D01*
X0468775Y0294694D01*
X0470208Y0294100D01*
X0471760Y0294100D01*
X0473369Y0294869D02*
X0487450Y0294869D01*
X0487450Y0295468D02*
X0473967Y0295468D01*
X0474405Y0296066D02*
X0487450Y0296066D01*
X0487450Y0296665D02*
X0474652Y0296665D01*
X0474884Y0297263D02*
X0487450Y0297263D01*
X0487450Y0297862D02*
X0474884Y0297862D01*
X0474884Y0298460D02*
X0487450Y0298460D01*
X0487450Y0299059D02*
X0474767Y0299059D01*
X0474519Y0299657D02*
X0487450Y0299657D01*
X0487450Y0300256D02*
X0474244Y0300256D01*
X0473645Y0300854D02*
X0487449Y0300854D01*
X0487449Y0301453D02*
X0472840Y0301453D01*
X0469129Y0301453D02*
X0462840Y0301453D01*
X0463645Y0300854D02*
X0468323Y0300854D01*
X0467724Y0300256D02*
X0464244Y0300256D01*
X0464519Y0299657D02*
X0467449Y0299657D01*
X0467201Y0299059D02*
X0464767Y0299059D01*
X0464884Y0298460D02*
X0467084Y0298460D01*
X0467084Y0297862D02*
X0464884Y0297862D01*
X0464884Y0297263D02*
X0467084Y0297263D01*
X0467316Y0296665D02*
X0464652Y0296665D01*
X0464405Y0296066D02*
X0467564Y0296066D01*
X0468001Y0295468D02*
X0463967Y0295468D01*
X0463369Y0294869D02*
X0468600Y0294869D01*
X0469797Y0294271D02*
X0462172Y0294271D01*
X0457084Y0297862D02*
X0392581Y0297862D01*
X0393180Y0298460D02*
X0457084Y0298460D01*
X0457201Y0299059D02*
X0393590Y0299059D01*
X0393590Y0299657D02*
X0457449Y0299657D01*
X0457724Y0300256D02*
X0395566Y0300256D01*
X0396164Y0300854D02*
X0458323Y0300854D01*
X0459129Y0301453D02*
X0417038Y0301453D01*
X0416657Y0301072D02*
X0417999Y0302413D01*
X0417999Y0304311D01*
X0416657Y0305653D01*
X0414760Y0305653D01*
X0413418Y0304311D01*
X0413418Y0302413D01*
X0414760Y0301072D01*
X0416657Y0301072D01*
X0417637Y0302051D02*
X0487449Y0302051D01*
X0487449Y0302650D02*
X0417999Y0302650D01*
X0417999Y0303248D02*
X0487449Y0303248D01*
X0487449Y0303847D02*
X0417999Y0303847D01*
X0417865Y0304445D02*
X0487449Y0304445D01*
X0487449Y0305044D02*
X0417266Y0305044D01*
X0416668Y0305642D02*
X0487449Y0305642D01*
X0487449Y0306241D02*
X0039498Y0306241D01*
X0039498Y0306839D02*
X0487449Y0306839D01*
X0487449Y0307438D02*
X0039498Y0307438D01*
X0039498Y0308036D02*
X0077021Y0308036D01*
X0077571Y0307809D02*
X0079122Y0307809D01*
X0080556Y0308402D01*
X0081653Y0309499D01*
X0082246Y0310933D01*
X0082246Y0312484D01*
X0081653Y0313918D01*
X0080556Y0315015D01*
X0079122Y0315609D01*
X0077571Y0315609D01*
X0076137Y0315015D01*
X0075040Y0313918D01*
X0074446Y0312484D01*
X0074446Y0310933D01*
X0075040Y0309499D01*
X0076137Y0308402D01*
X0077571Y0307809D01*
X0075905Y0308635D02*
X0039498Y0308635D01*
X0039498Y0309233D02*
X0075306Y0309233D01*
X0074903Y0309832D02*
X0039497Y0309832D01*
X0039497Y0310430D02*
X0074655Y0310430D01*
X0074446Y0311029D02*
X0039497Y0311029D01*
X0039497Y0311627D02*
X0074446Y0311627D01*
X0074446Y0312226D02*
X0039497Y0312226D01*
X0039497Y0312824D02*
X0074587Y0312824D01*
X0074835Y0313423D02*
X0039497Y0313423D01*
X0039497Y0314021D02*
X0075144Y0314021D01*
X0075742Y0314620D02*
X0039497Y0314620D01*
X0039497Y0315218D02*
X0076629Y0315218D01*
X0080064Y0315218D02*
X0333344Y0315218D01*
X0333344Y0315398D02*
X0333344Y0313846D01*
X0333938Y0312413D01*
X0335035Y0311316D01*
X0336468Y0310722D01*
X0338020Y0310722D01*
X0339453Y0311316D01*
X0340550Y0312413D01*
X0341144Y0313846D01*
X0341144Y0315398D01*
X0340550Y0316831D01*
X0339453Y0317928D01*
X0338020Y0318522D01*
X0336468Y0318522D01*
X0335035Y0317928D01*
X0333938Y0316831D01*
X0333344Y0315398D01*
X0333518Y0315817D02*
X0039497Y0315817D01*
X0039496Y0316415D02*
X0333766Y0316415D01*
X0334121Y0317014D02*
X0039496Y0317014D01*
X0039496Y0317612D02*
X0334719Y0317612D01*
X0335717Y0318211D02*
X0039496Y0318211D01*
X0039496Y0318810D02*
X0487447Y0318810D01*
X0487447Y0319408D02*
X0039496Y0319408D01*
X0039496Y0320007D02*
X0487447Y0320007D01*
X0487447Y0320605D02*
X0039496Y0320605D01*
X0039496Y0321204D02*
X0487447Y0321204D01*
X0487447Y0321802D02*
X0039496Y0321802D01*
X0039495Y0322401D02*
X0487447Y0322401D01*
X0487447Y0322999D02*
X0039495Y0322999D01*
X0039495Y0323598D02*
X0404636Y0323598D01*
X0404917Y0323316D02*
X0406815Y0323316D01*
X0408157Y0324658D01*
X0408157Y0326555D01*
X0406815Y0327897D01*
X0404917Y0327897D01*
X0403576Y0326555D01*
X0403576Y0324658D01*
X0404917Y0323316D01*
X0404037Y0324196D02*
X0039495Y0324196D01*
X0039495Y0324795D02*
X0167015Y0324795D01*
X0166747Y0324905D02*
X0167734Y0324497D01*
X0168802Y0324497D01*
X0169788Y0324905D01*
X0170543Y0325661D01*
X0170952Y0326647D01*
X0170952Y0327715D01*
X0170543Y0328702D01*
X0169788Y0329457D01*
X0168802Y0329865D01*
X0167734Y0329865D01*
X0166747Y0329457D01*
X0165992Y0328702D01*
X0165583Y0327715D01*
X0165583Y0326647D01*
X0165992Y0325661D01*
X0166747Y0324905D01*
X0166260Y0325393D02*
X0039495Y0325393D01*
X0039495Y0325992D02*
X0165855Y0325992D01*
X0165607Y0326590D02*
X0039495Y0326590D01*
X0039495Y0327189D02*
X0165583Y0327189D01*
X0165613Y0327787D02*
X0039495Y0327787D01*
X0039495Y0328386D02*
X0165861Y0328386D01*
X0166275Y0328984D02*
X0039494Y0328984D01*
X0039494Y0329583D02*
X0167051Y0329583D01*
X0169484Y0329583D02*
X0382902Y0329583D01*
X0383067Y0329418D02*
X0384965Y0329418D01*
X0386306Y0330760D01*
X0386306Y0332657D01*
X0384965Y0333999D01*
X0383067Y0333999D01*
X0381725Y0332657D01*
X0381725Y0330760D01*
X0383067Y0329418D01*
X0382304Y0330181D02*
X0039494Y0330181D01*
X0039494Y0330780D02*
X0381725Y0330780D01*
X0381725Y0331378D02*
X0039494Y0331378D01*
X0039494Y0331977D02*
X0381725Y0331977D01*
X0381725Y0332575D02*
X0039494Y0332575D01*
X0039494Y0333174D02*
X0382242Y0333174D01*
X0382840Y0333772D02*
X0039494Y0333772D01*
X0039494Y0334371D02*
X0402591Y0334371D01*
X0402591Y0334969D02*
X0380280Y0334969D01*
X0380240Y0334930D02*
X0381582Y0336272D01*
X0381582Y0338169D01*
X0380240Y0339511D01*
X0378343Y0339511D01*
X0377001Y0338169D01*
X0377001Y0336272D01*
X0378343Y0334930D01*
X0380240Y0334930D01*
X0380878Y0335568D02*
X0402591Y0335568D01*
X0402591Y0335610D02*
X0402591Y0333713D01*
X0403933Y0332371D01*
X0405831Y0332371D01*
X0407172Y0333713D01*
X0407172Y0335610D01*
X0405831Y0336952D01*
X0403933Y0336952D01*
X0402591Y0335610D01*
X0403147Y0336166D02*
X0381477Y0336166D01*
X0381582Y0336765D02*
X0403746Y0336765D01*
X0406018Y0336765D02*
X0487445Y0336765D01*
X0487445Y0337363D02*
X0381582Y0337363D01*
X0381582Y0337962D02*
X0390271Y0337962D01*
X0390547Y0337686D02*
X0392445Y0337686D01*
X0393787Y0339028D01*
X0393787Y0340925D01*
X0392767Y0341945D01*
X0393787Y0342965D01*
X0393787Y0344862D01*
X0392445Y0346204D01*
X0390547Y0346204D01*
X0389206Y0344862D01*
X0389206Y0342965D01*
X0390225Y0341945D01*
X0389206Y0340925D01*
X0389206Y0339028D01*
X0390547Y0337686D01*
X0389673Y0338560D02*
X0381191Y0338560D01*
X0380592Y0339159D02*
X0389206Y0339159D01*
X0389206Y0339757D02*
X0251822Y0339757D01*
X0251791Y0339681D02*
X0252384Y0341114D01*
X0252384Y0342666D01*
X0251791Y0344099D01*
X0250693Y0345196D01*
X0249260Y0345790D01*
X0247708Y0345790D01*
X0246275Y0345196D01*
X0245178Y0344099D01*
X0244584Y0342666D01*
X0244584Y0341114D01*
X0245178Y0339681D01*
X0246275Y0338584D01*
X0247708Y0337990D01*
X0249260Y0337990D01*
X0250693Y0338584D01*
X0251791Y0339681D01*
X0252070Y0340356D02*
X0389206Y0340356D01*
X0389235Y0340954D02*
X0252318Y0340954D01*
X0252384Y0341553D02*
X0389833Y0341553D01*
X0390019Y0342151D02*
X0252384Y0342151D01*
X0252349Y0342750D02*
X0389420Y0342750D01*
X0389206Y0343348D02*
X0252101Y0343348D01*
X0251853Y0343947D02*
X0389206Y0343947D01*
X0389206Y0344545D02*
X0251344Y0344545D01*
X0250745Y0345144D02*
X0389487Y0345144D01*
X0390086Y0345743D02*
X0249374Y0345743D01*
X0247594Y0345743D02*
X0233966Y0345743D01*
X0233745Y0345521D02*
X0235033Y0346809D01*
X0235033Y0348632D01*
X0233745Y0349921D01*
X0231922Y0349921D01*
X0230633Y0348632D01*
X0230633Y0346809D01*
X0231922Y0345521D01*
X0233745Y0345521D01*
X0234565Y0346341D02*
X0414206Y0346341D01*
X0414206Y0345743D02*
X0392906Y0345743D01*
X0393505Y0345144D02*
X0414585Y0345144D01*
X0414206Y0345524D02*
X0415127Y0344602D01*
X0414206Y0343681D01*
X0414206Y0341784D01*
X0415547Y0340442D01*
X0417445Y0340442D01*
X0418787Y0341784D01*
X0418787Y0343681D01*
X0417865Y0344602D01*
X0418787Y0345524D01*
X0418787Y0347421D01*
X0417445Y0348763D01*
X0415547Y0348763D01*
X0414206Y0347421D01*
X0414206Y0345524D01*
X0415070Y0344545D02*
X0393787Y0344545D01*
X0393787Y0343947D02*
X0414471Y0343947D01*
X0414206Y0343348D02*
X0393787Y0343348D01*
X0393572Y0342750D02*
X0414206Y0342750D01*
X0414206Y0342151D02*
X0392973Y0342151D01*
X0393159Y0341553D02*
X0414436Y0341553D01*
X0415035Y0340954D02*
X0393757Y0340954D01*
X0393787Y0340356D02*
X0487445Y0340356D01*
X0487445Y0340954D02*
X0417958Y0340954D01*
X0418556Y0341553D02*
X0487445Y0341553D01*
X0487445Y0342151D02*
X0418787Y0342151D01*
X0418787Y0342750D02*
X0487445Y0342750D01*
X0487444Y0343348D02*
X0418787Y0343348D01*
X0418521Y0343947D02*
X0487444Y0343947D01*
X0487444Y0344545D02*
X0417922Y0344545D01*
X0418407Y0345144D02*
X0487444Y0345144D01*
X0487444Y0345743D02*
X0418787Y0345743D01*
X0418787Y0346341D02*
X0487444Y0346341D01*
X0487444Y0346940D02*
X0418787Y0346940D01*
X0418670Y0347538D02*
X0487444Y0347538D01*
X0487444Y0348137D02*
X0418071Y0348137D01*
X0417473Y0348735D02*
X0487444Y0348735D01*
X0487444Y0349334D02*
X0234332Y0349334D01*
X0234930Y0348735D02*
X0415519Y0348735D01*
X0414921Y0348137D02*
X0235033Y0348137D01*
X0235033Y0347538D02*
X0414322Y0347538D01*
X0414206Y0346940D02*
X0235033Y0346940D01*
X0231700Y0345743D02*
X0219387Y0345743D01*
X0218954Y0346175D02*
X0217521Y0346769D01*
X0215969Y0346769D01*
X0214536Y0346175D01*
X0213439Y0345078D01*
X0212845Y0343645D01*
X0212845Y0342093D01*
X0213439Y0340660D01*
X0214536Y0339563D01*
X0215969Y0338969D01*
X0217521Y0338969D01*
X0218954Y0339563D01*
X0220051Y0340660D01*
X0220645Y0342093D01*
X0220645Y0343645D01*
X0220051Y0345078D01*
X0218954Y0346175D01*
X0218555Y0346341D02*
X0231102Y0346341D01*
X0230633Y0346940D02*
X0101389Y0346940D01*
X0101569Y0346504D02*
X0100976Y0347938D01*
X0099878Y0349035D01*
X0098445Y0349628D01*
X0096894Y0349628D01*
X0095460Y0349035D01*
X0094363Y0347938D01*
X0093769Y0346504D01*
X0093769Y0344953D01*
X0094363Y0343519D01*
X0095460Y0342422D01*
X0096894Y0341828D01*
X0098445Y0341828D01*
X0099878Y0342422D01*
X0100976Y0343519D01*
X0101569Y0344953D01*
X0101569Y0346504D01*
X0101569Y0346341D02*
X0214935Y0346341D01*
X0214103Y0345743D02*
X0101569Y0345743D01*
X0101569Y0345144D02*
X0213504Y0345144D01*
X0213218Y0344545D02*
X0101401Y0344545D01*
X0101153Y0343947D02*
X0212970Y0343947D01*
X0212845Y0343348D02*
X0100805Y0343348D01*
X0100206Y0342750D02*
X0212845Y0342750D01*
X0212845Y0342151D02*
X0099225Y0342151D01*
X0096113Y0342151D02*
X0089225Y0342151D01*
X0089878Y0342422D02*
X0090976Y0343519D01*
X0091569Y0344953D01*
X0091569Y0346504D01*
X0090976Y0347938D01*
X0089878Y0349035D01*
X0088445Y0349628D01*
X0086894Y0349628D01*
X0085460Y0349035D01*
X0084363Y0347938D01*
X0083769Y0346504D01*
X0083769Y0344953D01*
X0084363Y0343519D01*
X0085460Y0342422D01*
X0086894Y0341828D01*
X0088445Y0341828D01*
X0089878Y0342422D01*
X0090206Y0342750D02*
X0095132Y0342750D01*
X0094534Y0343348D02*
X0090805Y0343348D01*
X0091153Y0343947D02*
X0094186Y0343947D01*
X0093938Y0344545D02*
X0091401Y0344545D01*
X0091569Y0345144D02*
X0093769Y0345144D01*
X0093769Y0345743D02*
X0091569Y0345743D01*
X0091569Y0346341D02*
X0093769Y0346341D01*
X0093950Y0346940D02*
X0091389Y0346940D01*
X0091141Y0347538D02*
X0094198Y0347538D01*
X0094562Y0348137D02*
X0090776Y0348137D01*
X0090178Y0348735D02*
X0095161Y0348735D01*
X0096182Y0349334D02*
X0089157Y0349334D01*
X0086182Y0349334D02*
X0039491Y0349334D01*
X0039491Y0349932D02*
X0487444Y0349932D01*
X0487444Y0350531D02*
X0039491Y0350531D01*
X0039491Y0351129D02*
X0487444Y0351129D01*
X0487443Y0351728D02*
X0039491Y0351728D01*
X0039491Y0352326D02*
X0487443Y0352326D01*
X0487443Y0352925D02*
X0039491Y0352925D01*
X0039490Y0353523D02*
X0487443Y0353523D01*
X0487443Y0354122D02*
X0039490Y0354122D01*
X0039490Y0354720D02*
X0487443Y0354720D01*
X0487443Y0355319D02*
X0039490Y0355319D01*
X0039490Y0355917D02*
X0487443Y0355917D01*
X0487443Y0356516D02*
X0039490Y0356516D01*
X0039490Y0357114D02*
X0487443Y0357114D01*
X0487443Y0357713D02*
X0039490Y0357713D01*
X0039490Y0358311D02*
X0487443Y0358311D01*
X0487443Y0358910D02*
X0039490Y0358910D01*
X0039489Y0359508D02*
X0487443Y0359508D01*
X0487442Y0360107D02*
X0363513Y0360107D01*
X0363496Y0360100D02*
X0364930Y0360694D01*
X0366027Y0361791D01*
X0366620Y0363224D01*
X0366620Y0364776D01*
X0366027Y0366209D01*
X0364930Y0367306D01*
X0363496Y0367900D01*
X0361945Y0367900D01*
X0360511Y0367306D01*
X0359414Y0366209D01*
X0358820Y0364776D01*
X0358820Y0363224D01*
X0359414Y0361791D01*
X0360511Y0360694D01*
X0361945Y0360100D01*
X0363496Y0360100D01*
X0364941Y0360705D02*
X0487442Y0360705D01*
X0487442Y0361304D02*
X0365540Y0361304D01*
X0366073Y0361902D02*
X0487442Y0361902D01*
X0487442Y0362501D02*
X0366321Y0362501D01*
X0366569Y0363099D02*
X0487442Y0363099D01*
X0487442Y0363698D02*
X0366620Y0363698D01*
X0366620Y0364296D02*
X0487442Y0364296D01*
X0487442Y0364895D02*
X0467461Y0364895D01*
X0467219Y0364794D02*
X0469499Y0365739D01*
X0471245Y0367485D01*
X0472190Y0369766D01*
X0472190Y0372234D01*
X0471245Y0374515D01*
X0469499Y0376261D01*
X0467219Y0377205D01*
X0464750Y0377205D01*
X0462469Y0376261D01*
X0460723Y0374515D01*
X0459779Y0372234D01*
X0459779Y0369766D01*
X0460723Y0367485D01*
X0462469Y0365739D01*
X0464750Y0364794D01*
X0467219Y0364794D01*
X0468906Y0365493D02*
X0487442Y0365493D01*
X0487442Y0366092D02*
X0469852Y0366092D01*
X0470451Y0366690D02*
X0487442Y0366690D01*
X0487442Y0367289D02*
X0471049Y0367289D01*
X0471412Y0367887D02*
X0487442Y0367887D01*
X0487441Y0368486D02*
X0471660Y0368486D01*
X0471908Y0369084D02*
X0487441Y0369084D01*
X0487441Y0369683D02*
X0472155Y0369683D01*
X0472190Y0370281D02*
X0487441Y0370281D01*
X0487441Y0370880D02*
X0472190Y0370880D01*
X0472190Y0371479D02*
X0487441Y0371479D01*
X0487441Y0372077D02*
X0472190Y0372077D01*
X0472007Y0372676D02*
X0487441Y0372676D01*
X0487441Y0373274D02*
X0471759Y0373274D01*
X0471511Y0373873D02*
X0487441Y0373873D01*
X0487441Y0374471D02*
X0471263Y0374471D01*
X0470691Y0375070D02*
X0487441Y0375070D01*
X0487441Y0375668D02*
X0470092Y0375668D01*
X0469485Y0376267D02*
X0487441Y0376267D01*
X0487441Y0376865D02*
X0468040Y0376865D01*
X0463928Y0376865D02*
X0365371Y0376865D01*
X0364930Y0377306D02*
X0363496Y0377900D01*
X0361945Y0377900D01*
X0360511Y0377306D01*
X0359414Y0376209D01*
X0358820Y0374776D01*
X0358820Y0373224D01*
X0359414Y0371791D01*
X0360511Y0370694D01*
X0361945Y0370100D01*
X0363496Y0370100D01*
X0364930Y0370694D01*
X0366027Y0371791D01*
X0366620Y0373224D01*
X0366620Y0374776D01*
X0366027Y0376209D01*
X0364930Y0377306D01*
X0364550Y0377464D02*
X0487440Y0377464D01*
X0487440Y0378062D02*
X0039487Y0378062D01*
X0039487Y0377464D02*
X0330891Y0377464D01*
X0330511Y0377306D02*
X0329414Y0376209D01*
X0328820Y0374776D01*
X0328820Y0373224D01*
X0329414Y0371791D01*
X0330511Y0370694D01*
X0331945Y0370100D01*
X0333496Y0370100D01*
X0334930Y0370694D01*
X0336027Y0371791D01*
X0336620Y0373224D01*
X0336620Y0374776D01*
X0336027Y0376209D01*
X0334930Y0377306D01*
X0333496Y0377900D01*
X0331945Y0377900D01*
X0330511Y0377306D01*
X0330070Y0376865D02*
X0063040Y0376865D01*
X0062219Y0377205D02*
X0059750Y0377205D01*
X0057469Y0376261D01*
X0055723Y0374515D01*
X0054779Y0372234D01*
X0054779Y0369766D01*
X0055723Y0367485D01*
X0057469Y0365739D01*
X0059750Y0364794D01*
X0062219Y0364794D01*
X0064499Y0365739D01*
X0066245Y0367485D01*
X0067190Y0369766D01*
X0067190Y0372234D01*
X0066245Y0374515D01*
X0064499Y0376261D01*
X0062219Y0377205D01*
X0064485Y0376267D02*
X0329472Y0376267D01*
X0329190Y0375668D02*
X0065092Y0375668D01*
X0065691Y0375070D02*
X0328942Y0375070D01*
X0328820Y0374471D02*
X0066263Y0374471D01*
X0066511Y0373873D02*
X0328820Y0373873D01*
X0328820Y0373274D02*
X0066759Y0373274D01*
X0067007Y0372676D02*
X0329048Y0372676D01*
X0329296Y0372077D02*
X0067190Y0372077D01*
X0067190Y0371479D02*
X0329727Y0371479D01*
X0330325Y0370880D02*
X0067190Y0370880D01*
X0067190Y0370281D02*
X0331507Y0370281D01*
X0331945Y0367900D02*
X0330511Y0367306D01*
X0329414Y0366209D01*
X0328820Y0364776D01*
X0328820Y0363224D01*
X0329414Y0361791D01*
X0330511Y0360694D01*
X0331945Y0360100D01*
X0333496Y0360100D01*
X0334930Y0360694D01*
X0336027Y0361791D01*
X0336620Y0363224D01*
X0336620Y0364776D01*
X0336027Y0366209D01*
X0334930Y0367306D01*
X0333496Y0367900D01*
X0331945Y0367900D01*
X0331914Y0367887D02*
X0066412Y0367887D01*
X0066660Y0368486D02*
X0460309Y0368486D01*
X0460557Y0367887D02*
X0363527Y0367887D01*
X0364947Y0367289D02*
X0460919Y0367289D01*
X0461518Y0366690D02*
X0365545Y0366690D01*
X0366075Y0366092D02*
X0462116Y0366092D01*
X0463063Y0365493D02*
X0366323Y0365493D01*
X0366571Y0364895D02*
X0464508Y0364895D01*
X0460061Y0369084D02*
X0066908Y0369084D01*
X0067155Y0369683D02*
X0459813Y0369683D01*
X0459779Y0370281D02*
X0363934Y0370281D01*
X0365116Y0370880D02*
X0459779Y0370880D01*
X0459779Y0371479D02*
X0365714Y0371479D01*
X0366145Y0372077D02*
X0459779Y0372077D01*
X0459961Y0372676D02*
X0366393Y0372676D01*
X0366620Y0373274D02*
X0460209Y0373274D01*
X0460457Y0373873D02*
X0366620Y0373873D01*
X0366620Y0374471D02*
X0460705Y0374471D01*
X0461278Y0375070D02*
X0366499Y0375070D01*
X0366251Y0375668D02*
X0461876Y0375668D01*
X0462483Y0376267D02*
X0365969Y0376267D01*
X0360891Y0377464D02*
X0354550Y0377464D01*
X0354930Y0377306D02*
X0353496Y0377900D01*
X0351945Y0377900D01*
X0350511Y0377306D01*
X0349414Y0376209D01*
X0348820Y0374776D01*
X0348820Y0373224D01*
X0349414Y0371791D01*
X0350511Y0370694D01*
X0351945Y0370100D01*
X0353496Y0370100D01*
X0354930Y0370694D01*
X0356027Y0371791D01*
X0356620Y0373224D01*
X0356620Y0374776D01*
X0356027Y0376209D01*
X0354930Y0377306D01*
X0355371Y0376865D02*
X0360070Y0376865D01*
X0359472Y0376267D02*
X0355969Y0376267D01*
X0356251Y0375668D02*
X0359190Y0375668D01*
X0358942Y0375070D02*
X0356499Y0375070D01*
X0356620Y0374471D02*
X0358820Y0374471D01*
X0358820Y0373873D02*
X0356620Y0373873D01*
X0356620Y0373274D02*
X0358820Y0373274D01*
X0359048Y0372676D02*
X0356393Y0372676D01*
X0356145Y0372077D02*
X0359296Y0372077D01*
X0359727Y0371479D02*
X0355714Y0371479D01*
X0355116Y0370880D02*
X0360325Y0370880D01*
X0361507Y0370281D02*
X0353934Y0370281D01*
X0353496Y0367900D02*
X0351945Y0367900D01*
X0350511Y0367306D01*
X0349414Y0366209D01*
X0348820Y0364776D01*
X0348820Y0363224D01*
X0349414Y0361791D01*
X0350511Y0360694D01*
X0351945Y0360100D01*
X0353496Y0360100D01*
X0354930Y0360694D01*
X0356027Y0361791D01*
X0356620Y0363224D01*
X0356620Y0364776D01*
X0356027Y0366209D01*
X0354930Y0367306D01*
X0353496Y0367900D01*
X0353527Y0367887D02*
X0361914Y0367887D01*
X0360494Y0367289D02*
X0354947Y0367289D01*
X0355545Y0366690D02*
X0359895Y0366690D01*
X0359366Y0366092D02*
X0356075Y0366092D01*
X0356323Y0365493D02*
X0359118Y0365493D01*
X0358870Y0364895D02*
X0356571Y0364895D01*
X0356620Y0364296D02*
X0358820Y0364296D01*
X0358820Y0363698D02*
X0356620Y0363698D01*
X0356569Y0363099D02*
X0358872Y0363099D01*
X0359120Y0362501D02*
X0356321Y0362501D01*
X0356073Y0361902D02*
X0359368Y0361902D01*
X0359901Y0361304D02*
X0355540Y0361304D01*
X0354941Y0360705D02*
X0360500Y0360705D01*
X0361928Y0360107D02*
X0353513Y0360107D01*
X0351928Y0360107D02*
X0343513Y0360107D01*
X0343496Y0360100D02*
X0344930Y0360694D01*
X0346027Y0361791D01*
X0346620Y0363224D01*
X0346620Y0364776D01*
X0346027Y0366209D01*
X0344930Y0367306D01*
X0343496Y0367900D01*
X0341945Y0367900D01*
X0340511Y0367306D01*
X0339414Y0366209D01*
X0338820Y0364776D01*
X0338820Y0363224D01*
X0339414Y0361791D01*
X0340511Y0360694D01*
X0341945Y0360100D01*
X0343496Y0360100D01*
X0344941Y0360705D02*
X0350500Y0360705D01*
X0349901Y0361304D02*
X0345540Y0361304D01*
X0346073Y0361902D02*
X0349368Y0361902D01*
X0349120Y0362501D02*
X0346321Y0362501D01*
X0346569Y0363099D02*
X0348872Y0363099D01*
X0348820Y0363698D02*
X0346620Y0363698D01*
X0346620Y0364296D02*
X0348820Y0364296D01*
X0348870Y0364895D02*
X0346571Y0364895D01*
X0346323Y0365493D02*
X0349118Y0365493D01*
X0349366Y0366092D02*
X0346075Y0366092D01*
X0345545Y0366690D02*
X0349895Y0366690D01*
X0350494Y0367289D02*
X0344947Y0367289D01*
X0343527Y0367887D02*
X0351914Y0367887D01*
X0351507Y0370281D02*
X0343934Y0370281D01*
X0343496Y0370100D02*
X0344930Y0370694D01*
X0346027Y0371791D01*
X0346620Y0373224D01*
X0346620Y0374776D01*
X0346027Y0376209D01*
X0344930Y0377306D01*
X0343496Y0377900D01*
X0341945Y0377900D01*
X0340511Y0377306D01*
X0339414Y0376209D01*
X0338820Y0374776D01*
X0338820Y0373224D01*
X0339414Y0371791D01*
X0340511Y0370694D01*
X0341945Y0370100D01*
X0343496Y0370100D01*
X0345116Y0370880D02*
X0350325Y0370880D01*
X0349727Y0371479D02*
X0345714Y0371479D01*
X0346145Y0372077D02*
X0349296Y0372077D01*
X0349048Y0372676D02*
X0346393Y0372676D01*
X0346620Y0373274D02*
X0348820Y0373274D01*
X0348820Y0373873D02*
X0346620Y0373873D01*
X0346620Y0374471D02*
X0348820Y0374471D01*
X0348942Y0375070D02*
X0346499Y0375070D01*
X0346251Y0375668D02*
X0349190Y0375668D01*
X0349472Y0376267D02*
X0345969Y0376267D01*
X0345371Y0376865D02*
X0350070Y0376865D01*
X0350891Y0377464D02*
X0344550Y0377464D01*
X0340891Y0377464D02*
X0334550Y0377464D01*
X0335371Y0376865D02*
X0340070Y0376865D01*
X0339472Y0376267D02*
X0335969Y0376267D01*
X0336251Y0375668D02*
X0339190Y0375668D01*
X0338942Y0375070D02*
X0336499Y0375070D01*
X0336620Y0374471D02*
X0338820Y0374471D01*
X0338820Y0373873D02*
X0336620Y0373873D01*
X0336620Y0373274D02*
X0338820Y0373274D01*
X0339048Y0372676D02*
X0336393Y0372676D01*
X0336145Y0372077D02*
X0339296Y0372077D01*
X0339727Y0371479D02*
X0335714Y0371479D01*
X0335116Y0370880D02*
X0340325Y0370880D01*
X0341507Y0370281D02*
X0333934Y0370281D01*
X0333527Y0367887D02*
X0341914Y0367887D01*
X0340494Y0367289D02*
X0334947Y0367289D01*
X0335545Y0366690D02*
X0339895Y0366690D01*
X0339366Y0366092D02*
X0336075Y0366092D01*
X0336323Y0365493D02*
X0339118Y0365493D01*
X0338870Y0364895D02*
X0336571Y0364895D01*
X0336620Y0364296D02*
X0338820Y0364296D01*
X0338820Y0363698D02*
X0336620Y0363698D01*
X0336569Y0363099D02*
X0338872Y0363099D01*
X0339120Y0362501D02*
X0336321Y0362501D01*
X0336073Y0361902D02*
X0339368Y0361902D01*
X0339901Y0361304D02*
X0335540Y0361304D01*
X0334941Y0360705D02*
X0340500Y0360705D01*
X0341928Y0360107D02*
X0333513Y0360107D01*
X0331928Y0360107D02*
X0039489Y0360107D01*
X0039489Y0360705D02*
X0330500Y0360705D01*
X0329901Y0361304D02*
X0039489Y0361304D01*
X0039489Y0361902D02*
X0329368Y0361902D01*
X0329120Y0362501D02*
X0039489Y0362501D01*
X0039489Y0363099D02*
X0328872Y0363099D01*
X0328820Y0363698D02*
X0039489Y0363698D01*
X0039489Y0364296D02*
X0328820Y0364296D01*
X0328870Y0364895D02*
X0062461Y0364895D01*
X0063906Y0365493D02*
X0329118Y0365493D01*
X0329366Y0366092D02*
X0064852Y0366092D01*
X0065451Y0366690D02*
X0329895Y0366690D01*
X0330494Y0367289D02*
X0066049Y0367289D01*
X0059508Y0364895D02*
X0039489Y0364895D01*
X0039489Y0365493D02*
X0058063Y0365493D01*
X0057116Y0366092D02*
X0039488Y0366092D01*
X0039488Y0366690D02*
X0056518Y0366690D01*
X0055919Y0367289D02*
X0039488Y0367289D01*
X0039488Y0367887D02*
X0055557Y0367887D01*
X0055309Y0368486D02*
X0039488Y0368486D01*
X0039488Y0369084D02*
X0055061Y0369084D01*
X0054813Y0369683D02*
X0039488Y0369683D01*
X0039488Y0370281D02*
X0054779Y0370281D01*
X0054779Y0370880D02*
X0039488Y0370880D01*
X0039488Y0371479D02*
X0054779Y0371479D01*
X0054779Y0372077D02*
X0039487Y0372077D01*
X0039487Y0372676D02*
X0054961Y0372676D01*
X0055209Y0373274D02*
X0039487Y0373274D01*
X0039487Y0373873D02*
X0055457Y0373873D01*
X0055705Y0374471D02*
X0039487Y0374471D01*
X0039487Y0375070D02*
X0056278Y0375070D01*
X0056876Y0375668D02*
X0039487Y0375668D01*
X0039487Y0376267D02*
X0057483Y0376267D01*
X0058928Y0376865D02*
X0039487Y0376865D01*
X0039486Y0378661D02*
X0178903Y0378661D01*
X0179130Y0378434D02*
X0181028Y0378434D01*
X0182369Y0379776D01*
X0182369Y0381673D01*
X0181028Y0383015D01*
X0179130Y0383015D01*
X0177788Y0381673D01*
X0177788Y0379776D01*
X0179130Y0378434D01*
X0178305Y0379259D02*
X0039486Y0379259D01*
X0039486Y0379858D02*
X0177788Y0379858D01*
X0177788Y0380456D02*
X0039486Y0380456D01*
X0039486Y0381055D02*
X0177788Y0381055D01*
X0177788Y0381653D02*
X0039486Y0381653D01*
X0039486Y0382252D02*
X0178367Y0382252D01*
X0178965Y0382850D02*
X0039486Y0382850D01*
X0039486Y0383449D02*
X0182777Y0383449D01*
X0182709Y0383516D02*
X0184051Y0382174D01*
X0185949Y0382174D01*
X0187291Y0383516D01*
X0187291Y0385413D01*
X0185949Y0386755D01*
X0184051Y0386755D01*
X0182709Y0385413D01*
X0182709Y0383516D01*
X0182709Y0384047D02*
X0039486Y0384047D01*
X0039485Y0384646D02*
X0182709Y0384646D01*
X0182709Y0385244D02*
X0039485Y0385244D01*
X0039485Y0385843D02*
X0183139Y0385843D01*
X0183737Y0386441D02*
X0039485Y0386441D01*
X0039485Y0387040D02*
X0487439Y0387040D01*
X0487439Y0387638D02*
X0039485Y0387638D01*
X0039485Y0388237D02*
X0487439Y0388237D01*
X0487439Y0388835D02*
X0039485Y0388835D01*
X0039485Y0389434D02*
X0487439Y0389434D01*
X0487439Y0390032D02*
X0039485Y0390032D01*
X0039484Y0390631D02*
X0487439Y0390631D01*
X0487439Y0391229D02*
X0039484Y0391229D01*
X0039484Y0391828D02*
X0487439Y0391828D01*
X0487439Y0386441D02*
X0186263Y0386441D01*
X0186861Y0385843D02*
X0487439Y0385843D01*
X0487440Y0385244D02*
X0187291Y0385244D01*
X0187291Y0384646D02*
X0487440Y0384646D01*
X0487440Y0384047D02*
X0187291Y0384047D01*
X0187223Y0383449D02*
X0487440Y0383449D01*
X0487440Y0382850D02*
X0186625Y0382850D01*
X0186026Y0382252D02*
X0487440Y0382252D01*
X0487440Y0381653D02*
X0182369Y0381653D01*
X0182369Y0381055D02*
X0487440Y0381055D01*
X0487440Y0380456D02*
X0182369Y0380456D01*
X0182369Y0379858D02*
X0487440Y0379858D01*
X0487440Y0379259D02*
X0181853Y0379259D01*
X0181254Y0378661D02*
X0487440Y0378661D01*
X0487445Y0339757D02*
X0393787Y0339757D01*
X0393787Y0339159D02*
X0487445Y0339159D01*
X0487445Y0338560D02*
X0393319Y0338560D01*
X0392721Y0337962D02*
X0487445Y0337962D01*
X0487445Y0336166D02*
X0406616Y0336166D01*
X0407172Y0335568D02*
X0487445Y0335568D01*
X0487445Y0334969D02*
X0407172Y0334969D01*
X0407172Y0334371D02*
X0487446Y0334371D01*
X0487446Y0333772D02*
X0407172Y0333772D01*
X0406634Y0333174D02*
X0487446Y0333174D01*
X0487446Y0332575D02*
X0406035Y0332575D01*
X0403729Y0332575D02*
X0386306Y0332575D01*
X0386306Y0331977D02*
X0487446Y0331977D01*
X0487446Y0331378D02*
X0386306Y0331378D01*
X0386306Y0330780D02*
X0487446Y0330780D01*
X0487446Y0330181D02*
X0385728Y0330181D01*
X0385129Y0329583D02*
X0487446Y0329583D01*
X0487446Y0328984D02*
X0170261Y0328984D01*
X0170674Y0328386D02*
X0487446Y0328386D01*
X0487446Y0327787D02*
X0406925Y0327787D01*
X0407523Y0327189D02*
X0487446Y0327189D01*
X0487446Y0326590D02*
X0408122Y0326590D01*
X0408157Y0325992D02*
X0487446Y0325992D01*
X0487447Y0325393D02*
X0408157Y0325393D01*
X0408157Y0324795D02*
X0487447Y0324795D01*
X0487447Y0324196D02*
X0407695Y0324196D01*
X0407097Y0323598D02*
X0487447Y0323598D01*
X0487447Y0318211D02*
X0358771Y0318211D01*
X0359453Y0317928D02*
X0358020Y0318522D01*
X0356468Y0318522D01*
X0355035Y0317928D01*
X0353938Y0316831D01*
X0353344Y0315398D01*
X0353344Y0313846D01*
X0353938Y0312413D01*
X0355035Y0311316D01*
X0356468Y0310722D01*
X0358020Y0310722D01*
X0359453Y0311316D01*
X0360550Y0312413D01*
X0361144Y0313846D01*
X0361144Y0315398D01*
X0360550Y0316831D01*
X0359453Y0317928D01*
X0359769Y0317612D02*
X0487447Y0317612D01*
X0487448Y0317014D02*
X0360368Y0317014D01*
X0360723Y0316415D02*
X0487448Y0316415D01*
X0487448Y0315817D02*
X0416729Y0315817D01*
X0416461Y0316086D02*
X0414563Y0316086D01*
X0413221Y0314744D01*
X0413221Y0312846D01*
X0414143Y0311925D01*
X0413221Y0311004D01*
X0413221Y0309106D01*
X0414563Y0307765D01*
X0416461Y0307765D01*
X0417802Y0309106D01*
X0417802Y0311004D01*
X0416881Y0311925D01*
X0417802Y0312846D01*
X0417802Y0314744D01*
X0416461Y0316086D01*
X0417328Y0315218D02*
X0487448Y0315218D01*
X0487448Y0314620D02*
X0417802Y0314620D01*
X0417802Y0314021D02*
X0487448Y0314021D01*
X0487448Y0313423D02*
X0417802Y0313423D01*
X0417780Y0312824D02*
X0487448Y0312824D01*
X0487448Y0312226D02*
X0417182Y0312226D01*
X0417179Y0311627D02*
X0487448Y0311627D01*
X0487448Y0311029D02*
X0417777Y0311029D01*
X0417802Y0310430D02*
X0487448Y0310430D01*
X0487448Y0309832D02*
X0417802Y0309832D01*
X0417802Y0309233D02*
X0487448Y0309233D01*
X0487449Y0308635D02*
X0417331Y0308635D01*
X0416732Y0308036D02*
X0487449Y0308036D01*
X0469730Y0281702D02*
X0462238Y0281702D01*
X0463396Y0281103D02*
X0468572Y0281103D01*
X0467974Y0280505D02*
X0463995Y0280505D01*
X0464416Y0279906D02*
X0467553Y0279906D01*
X0467305Y0279308D02*
X0464664Y0279308D01*
X0464884Y0278709D02*
X0467084Y0278709D01*
X0467084Y0278111D02*
X0464884Y0278111D01*
X0464884Y0277512D02*
X0467084Y0277512D01*
X0467213Y0276914D02*
X0464756Y0276914D01*
X0464508Y0276315D02*
X0467461Y0276315D01*
X0467752Y0275717D02*
X0464216Y0275717D01*
X0463618Y0275118D02*
X0468351Y0275118D01*
X0469195Y0274520D02*
X0462773Y0274520D01*
X0462660Y0271527D02*
X0469308Y0271527D01*
X0468397Y0270929D02*
X0463571Y0270929D01*
X0464170Y0270330D02*
X0467799Y0270330D01*
X0467480Y0269732D02*
X0464488Y0269732D01*
X0464736Y0269133D02*
X0467232Y0269133D01*
X0467084Y0268535D02*
X0464884Y0268535D01*
X0464884Y0267936D02*
X0467084Y0267936D01*
X0467084Y0267338D02*
X0464884Y0267338D01*
X0464683Y0266739D02*
X0467285Y0266739D01*
X0467533Y0266141D02*
X0464435Y0266141D01*
X0464042Y0265542D02*
X0467927Y0265542D01*
X0468525Y0264943D02*
X0463443Y0264943D01*
X0462351Y0264345D02*
X0469617Y0264345D01*
X0459617Y0264345D02*
X0421936Y0264345D01*
X0421936Y0264943D02*
X0458525Y0264943D01*
X0457927Y0265542D02*
X0421936Y0265542D01*
X0421918Y0266141D02*
X0457533Y0266141D01*
X0457285Y0266739D02*
X0421319Y0266739D01*
X0420721Y0267338D02*
X0457084Y0267338D01*
X0457084Y0267936D02*
X0400913Y0267936D01*
X0401373Y0268535D02*
X0457084Y0268535D01*
X0457232Y0269133D02*
X0401373Y0269133D01*
X0401373Y0269732D02*
X0427596Y0269732D01*
X0426998Y0270330D02*
X0401261Y0270330D01*
X0400663Y0270929D02*
X0426410Y0270929D01*
X0429806Y0269732D02*
X0457480Y0269732D01*
X0487457Y0235616D02*
X0366936Y0235616D01*
X0367535Y0235018D02*
X0487457Y0235018D01*
X0487457Y0234419D02*
X0367809Y0234419D01*
X0367809Y0233821D02*
X0487457Y0233821D01*
X0487457Y0233222D02*
X0367809Y0233222D01*
X0367428Y0232624D02*
X0487457Y0232624D01*
X0487458Y0232025D02*
X0367378Y0232025D01*
X0367809Y0231427D02*
X0487458Y0231427D01*
X0487458Y0230828D02*
X0367809Y0230828D01*
X0367809Y0230230D02*
X0487458Y0230230D01*
X0487458Y0229631D02*
X0367585Y0229631D01*
X0366987Y0229033D02*
X0487458Y0229033D01*
X0487459Y0218858D02*
X0410607Y0218858D01*
X0411206Y0218260D02*
X0487459Y0218260D01*
X0487459Y0217661D02*
X0411804Y0217661D01*
X0411806Y0217063D02*
X0487459Y0217063D01*
X0487459Y0216464D02*
X0411806Y0216464D01*
X0411806Y0215866D02*
X0487459Y0215866D01*
X0487459Y0215267D02*
X0411237Y0215267D01*
X0410638Y0214669D02*
X0487460Y0214669D01*
X0487460Y0212873D02*
X0366717Y0212873D01*
X0366118Y0212274D02*
X0487460Y0212274D01*
X0403378Y0225442D02*
X0320884Y0225442D01*
X0321483Y0224843D02*
X0402779Y0224843D01*
X0402181Y0224245D02*
X0382711Y0224245D01*
X0382602Y0224354D02*
X0383883Y0223073D01*
X0384876Y0224066D01*
X0386699Y0224066D01*
X0387987Y0222777D01*
X0387987Y0220955D01*
X0386699Y0219666D01*
X0384876Y0219666D01*
X0383686Y0220856D01*
X0382602Y0219772D01*
X0380705Y0219772D01*
X0379363Y0221114D01*
X0379363Y0223012D01*
X0380705Y0224354D01*
X0382602Y0224354D01*
X0383310Y0223646D02*
X0384456Y0223646D01*
X0387119Y0223646D02*
X0402091Y0223646D01*
X0402091Y0223048D02*
X0387717Y0223048D01*
X0387987Y0222449D02*
X0402091Y0222449D01*
X0402573Y0221851D02*
X0387987Y0221851D01*
X0387987Y0221252D02*
X0403125Y0221252D01*
X0402527Y0220654D02*
X0387686Y0220654D01*
X0387088Y0220055D02*
X0402091Y0220055D01*
X0402091Y0219457D02*
X0373224Y0219457D01*
X0373224Y0220055D02*
X0380422Y0220055D01*
X0379824Y0220654D02*
X0372788Y0220654D01*
X0372190Y0221252D02*
X0379363Y0221252D01*
X0379363Y0221851D02*
X0364456Y0221851D01*
X0364456Y0221508D02*
X0364456Y0223405D01*
X0363114Y0224747D01*
X0361217Y0224747D01*
X0359875Y0223405D01*
X0359875Y0222937D01*
X0359730Y0223082D01*
X0357908Y0223082D01*
X0356619Y0221793D01*
X0356619Y0219971D01*
X0357908Y0218682D01*
X0359730Y0218682D01*
X0361019Y0219971D01*
X0361019Y0220364D01*
X0361217Y0220166D01*
X0363114Y0220166D01*
X0364456Y0221508D01*
X0364200Y0221252D02*
X0369857Y0221252D01*
X0369259Y0220654D02*
X0363602Y0220654D01*
X0364456Y0222449D02*
X0379363Y0222449D01*
X0379399Y0223048D02*
X0364456Y0223048D01*
X0364215Y0223646D02*
X0379997Y0223646D01*
X0380596Y0224245D02*
X0363617Y0224245D01*
X0360714Y0224245D02*
X0321739Y0224245D01*
X0321739Y0223646D02*
X0360116Y0223646D01*
X0359875Y0223048D02*
X0359764Y0223048D01*
X0357873Y0223048D02*
X0321739Y0223048D01*
X0321500Y0222449D02*
X0357275Y0222449D01*
X0356676Y0221851D02*
X0320901Y0221851D01*
X0319180Y0221252D02*
X0356619Y0221252D01*
X0356619Y0220654D02*
X0325741Y0220654D01*
X0326340Y0220055D02*
X0356619Y0220055D01*
X0357133Y0219457D02*
X0326885Y0219457D01*
X0326885Y0218858D02*
X0357731Y0218858D01*
X0359906Y0218858D02*
X0368824Y0218858D01*
X0368824Y0219457D02*
X0360505Y0219457D01*
X0361019Y0220055D02*
X0368824Y0220055D01*
X0372489Y0217661D02*
X0402826Y0217661D01*
X0402873Y0217063D02*
X0372639Y0217063D01*
X0372830Y0216464D02*
X0402274Y0216464D01*
X0402091Y0215866D02*
X0372830Y0215866D01*
X0372830Y0215267D02*
X0402091Y0215267D01*
X0402091Y0214669D02*
X0372449Y0214669D01*
X0371851Y0214070D02*
X0402480Y0214070D01*
X0402228Y0218260D02*
X0373087Y0218260D01*
X0373224Y0218858D02*
X0402091Y0218858D01*
X0384487Y0220055D02*
X0382885Y0220055D01*
X0383484Y0220654D02*
X0383889Y0220654D01*
X0372680Y0206289D02*
X0369287Y0206289D01*
X0368983Y0205691D02*
X0372081Y0205691D01*
X0365753Y0208683D02*
X0088152Y0208683D01*
X0088152Y0208085D02*
X0365155Y0208085D01*
X0362921Y0213472D02*
X0322315Y0213472D01*
X0322914Y0214070D02*
X0362918Y0214070D01*
X0363837Y0229033D02*
X0364430Y0229033D01*
X0361281Y0229033D02*
X0354388Y0229033D01*
X0354987Y0229631D02*
X0360682Y0229631D01*
X0360459Y0230230D02*
X0355407Y0230230D01*
X0355407Y0230828D02*
X0360459Y0230828D01*
X0360459Y0231427D02*
X0355407Y0231427D01*
X0357381Y0232025D02*
X0358288Y0232025D01*
X0360531Y0232025D02*
X0360890Y0232025D01*
X0360637Y0235616D02*
X0361332Y0235616D01*
X0363786Y0235616D02*
X0364481Y0235616D01*
X0357628Y0239806D02*
X0373270Y0239806D01*
X0373868Y0239208D02*
X0357769Y0239208D01*
X0357030Y0240405D02*
X0372671Y0240405D01*
X0372670Y0240406D02*
X0374012Y0239064D01*
X0375909Y0239064D01*
X0377251Y0240406D01*
X0377251Y0242303D01*
X0375909Y0243645D01*
X0374012Y0243645D01*
X0372670Y0242303D01*
X0372670Y0240406D01*
X0372670Y0241003D02*
X0349626Y0241003D01*
X0349550Y0240405D02*
X0354309Y0240405D01*
X0353710Y0239806D02*
X0349895Y0239806D01*
X0349895Y0239208D02*
X0353569Y0239208D01*
X0353569Y0238609D02*
X0351542Y0238609D01*
X0352140Y0238010D02*
X0353569Y0238010D01*
X0354083Y0237412D02*
X0352454Y0237412D01*
X0357487Y0235616D02*
X0358182Y0235616D01*
X0351816Y0242799D02*
X0373166Y0242799D01*
X0372670Y0242200D02*
X0350092Y0242200D01*
X0350092Y0241602D02*
X0372670Y0241602D01*
X0373764Y0243397D02*
X0352414Y0243397D01*
X0351242Y0246390D02*
X0355144Y0246390D01*
X0354546Y0246988D02*
X0349698Y0246988D01*
X0349698Y0247587D02*
X0354160Y0247587D01*
X0354160Y0248185D02*
X0349698Y0248185D01*
X0349438Y0248784D02*
X0354160Y0248784D01*
X0354428Y0249382D02*
X0348840Y0249382D01*
X0349304Y0246390D02*
X0349467Y0246390D01*
X0348869Y0245791D02*
X0348706Y0245791D01*
X0357375Y0246390D02*
X0358294Y0246390D01*
X0360525Y0246390D02*
X0361444Y0246390D01*
X0363674Y0246390D02*
X0364593Y0246390D01*
X0376157Y0243397D02*
X0382357Y0243397D01*
X0381758Y0242799D02*
X0376756Y0242799D01*
X0377251Y0242200D02*
X0381225Y0242200D01*
X0381225Y0241602D02*
X0377251Y0241602D01*
X0377251Y0241003D02*
X0381225Y0241003D01*
X0381264Y0240405D02*
X0377250Y0240405D01*
X0376652Y0239806D02*
X0381862Y0239806D01*
X0382461Y0239208D02*
X0376053Y0239208D01*
X0335438Y0218260D02*
X0326885Y0218260D01*
X0326859Y0217661D02*
X0334839Y0217661D01*
X0334678Y0217063D02*
X0326260Y0217063D01*
X0325662Y0216464D02*
X0334678Y0216464D01*
X0323629Y0220654D02*
X0319180Y0220654D01*
X0319105Y0220055D02*
X0323030Y0220055D01*
X0322485Y0219457D02*
X0318507Y0219457D01*
X0317908Y0218858D02*
X0322485Y0218858D01*
X0315871Y0218858D02*
X0115546Y0218858D01*
X0116145Y0219457D02*
X0315273Y0219457D01*
X0314674Y0220055D02*
X0116743Y0220055D01*
X0116818Y0220654D02*
X0314599Y0220654D01*
X0314599Y0221252D02*
X0116818Y0221252D01*
X0116818Y0221851D02*
X0314599Y0221851D01*
X0315021Y0222449D02*
X0116396Y0222449D01*
X0115798Y0223048D02*
X0315619Y0223048D01*
X0330031Y0241003D02*
X0148619Y0241003D01*
X0148189Y0241602D02*
X0330630Y0241602D01*
X0317664Y0275118D02*
X0344847Y0275118D01*
X0344249Y0275717D02*
X0317066Y0275717D01*
X0335728Y0311029D02*
X0152333Y0311029D01*
X0152333Y0310466D02*
X0151864Y0309333D01*
X0150997Y0308467D01*
X0149865Y0307998D01*
X0148639Y0307998D01*
X0147507Y0308467D01*
X0146640Y0309333D01*
X0146171Y0310466D01*
X0146171Y0311692D01*
X0146640Y0312824D01*
X0147507Y0313691D01*
X0148639Y0314160D01*
X0149865Y0314160D01*
X0150997Y0313691D01*
X0151864Y0312824D01*
X0152333Y0311692D01*
X0152333Y0310466D01*
X0152318Y0310430D02*
X0391031Y0310430D01*
X0390977Y0310484D02*
X0392319Y0309143D01*
X0394216Y0309143D01*
X0395558Y0310484D01*
X0395558Y0312382D01*
X0394216Y0313724D01*
X0392319Y0313724D01*
X0390977Y0312382D01*
X0390977Y0310484D01*
X0390977Y0311029D02*
X0358761Y0311029D01*
X0359765Y0311627D02*
X0390977Y0311627D01*
X0390977Y0312226D02*
X0360363Y0312226D01*
X0360721Y0312824D02*
X0391420Y0312824D01*
X0392018Y0313423D02*
X0360969Y0313423D01*
X0361144Y0314021D02*
X0413221Y0314021D01*
X0413221Y0313423D02*
X0394517Y0313423D01*
X0395116Y0312824D02*
X0413243Y0312824D01*
X0413842Y0312226D02*
X0395558Y0312226D01*
X0395558Y0311627D02*
X0413845Y0311627D01*
X0413246Y0311029D02*
X0395558Y0311029D01*
X0395504Y0310430D02*
X0413221Y0310430D01*
X0413221Y0309832D02*
X0394906Y0309832D01*
X0394307Y0309233D02*
X0413221Y0309233D01*
X0413693Y0308635D02*
X0151165Y0308635D01*
X0151764Y0309233D02*
X0392228Y0309233D01*
X0391630Y0309832D02*
X0152070Y0309832D01*
X0152333Y0311627D02*
X0334723Y0311627D01*
X0334125Y0312226D02*
X0152112Y0312226D01*
X0151864Y0312824D02*
X0333767Y0312824D01*
X0333519Y0313423D02*
X0151265Y0313423D01*
X0150199Y0314021D02*
X0333344Y0314021D01*
X0333344Y0314620D02*
X0080951Y0314620D01*
X0081549Y0314021D02*
X0138305Y0314021D01*
X0138639Y0314160D02*
X0137507Y0313691D01*
X0136640Y0312824D01*
X0136171Y0311692D01*
X0136171Y0310466D01*
X0136640Y0309333D01*
X0137507Y0308467D01*
X0138639Y0307998D01*
X0139865Y0307998D01*
X0140997Y0308467D01*
X0141864Y0309333D01*
X0142333Y0310466D01*
X0142333Y0311692D01*
X0141864Y0312824D01*
X0140997Y0313691D01*
X0139865Y0314160D01*
X0138639Y0314160D01*
X0140199Y0314021D02*
X0148305Y0314021D01*
X0147239Y0313423D02*
X0141265Y0313423D01*
X0141864Y0312824D02*
X0146640Y0312824D01*
X0146392Y0312226D02*
X0142112Y0312226D01*
X0142333Y0311627D02*
X0146171Y0311627D01*
X0146171Y0311029D02*
X0142333Y0311029D01*
X0142318Y0310430D02*
X0146186Y0310430D01*
X0146433Y0309832D02*
X0142070Y0309832D01*
X0141764Y0309233D02*
X0146740Y0309233D01*
X0147339Y0308635D02*
X0141165Y0308635D01*
X0139958Y0308036D02*
X0148546Y0308036D01*
X0149958Y0308036D02*
X0414291Y0308036D01*
X0414749Y0305642D02*
X0039498Y0305642D01*
X0039498Y0305044D02*
X0414151Y0305044D01*
X0413552Y0304445D02*
X0395621Y0304445D01*
X0396219Y0303847D02*
X0413418Y0303847D01*
X0413418Y0303248D02*
X0396739Y0303248D01*
X0396739Y0302650D02*
X0413418Y0302650D01*
X0413780Y0302051D02*
X0396739Y0302051D01*
X0396739Y0301453D02*
X0414379Y0301453D01*
X0413221Y0314620D02*
X0361144Y0314620D01*
X0361144Y0315218D02*
X0413696Y0315218D01*
X0414294Y0315817D02*
X0360970Y0315817D01*
X0355717Y0318211D02*
X0348771Y0318211D01*
X0349453Y0317928D02*
X0348020Y0318522D01*
X0346468Y0318522D01*
X0345035Y0317928D01*
X0343938Y0316831D01*
X0343344Y0315398D01*
X0343344Y0313846D01*
X0343938Y0312413D01*
X0345035Y0311316D01*
X0346468Y0310722D01*
X0348020Y0310722D01*
X0349453Y0311316D01*
X0350550Y0312413D01*
X0351144Y0313846D01*
X0351144Y0315398D01*
X0350550Y0316831D01*
X0349453Y0317928D01*
X0349769Y0317612D02*
X0354719Y0317612D01*
X0354121Y0317014D02*
X0350368Y0317014D01*
X0350723Y0316415D02*
X0353766Y0316415D01*
X0353518Y0315817D02*
X0350970Y0315817D01*
X0351144Y0315218D02*
X0353344Y0315218D01*
X0353344Y0314620D02*
X0351144Y0314620D01*
X0351144Y0314021D02*
X0353344Y0314021D01*
X0353519Y0313423D02*
X0350969Y0313423D01*
X0350721Y0312824D02*
X0353767Y0312824D01*
X0354125Y0312226D02*
X0350363Y0312226D01*
X0349765Y0311627D02*
X0354723Y0311627D01*
X0355728Y0311029D02*
X0348761Y0311029D01*
X0345728Y0311029D02*
X0338761Y0311029D01*
X0339765Y0311627D02*
X0344723Y0311627D01*
X0344125Y0312226D02*
X0340363Y0312226D01*
X0340721Y0312824D02*
X0343767Y0312824D01*
X0343519Y0313423D02*
X0340969Y0313423D01*
X0341144Y0314021D02*
X0343344Y0314021D01*
X0343344Y0314620D02*
X0341144Y0314620D01*
X0341144Y0315218D02*
X0343344Y0315218D01*
X0343518Y0315817D02*
X0340970Y0315817D01*
X0340723Y0316415D02*
X0343766Y0316415D01*
X0344121Y0317014D02*
X0340368Y0317014D01*
X0339769Y0317612D02*
X0344719Y0317612D01*
X0345717Y0318211D02*
X0338771Y0318211D01*
X0377106Y0336166D02*
X0039493Y0336166D01*
X0039493Y0335568D02*
X0377705Y0335568D01*
X0378303Y0334969D02*
X0039493Y0334969D01*
X0039493Y0336765D02*
X0377001Y0336765D01*
X0377001Y0337363D02*
X0039493Y0337363D01*
X0039493Y0337962D02*
X0377001Y0337962D01*
X0377392Y0338560D02*
X0250638Y0338560D01*
X0251269Y0339159D02*
X0377990Y0339159D01*
X0385191Y0333772D02*
X0402591Y0333772D01*
X0403130Y0333174D02*
X0385790Y0333174D01*
X0403611Y0326590D02*
X0170928Y0326590D01*
X0170952Y0327189D02*
X0404209Y0327189D01*
X0404808Y0327787D02*
X0170922Y0327787D01*
X0170680Y0325992D02*
X0403576Y0325992D01*
X0403576Y0325393D02*
X0170276Y0325393D01*
X0169521Y0324795D02*
X0403576Y0324795D01*
X0246331Y0338560D02*
X0039493Y0338560D01*
X0039493Y0339159D02*
X0215511Y0339159D01*
X0214341Y0339757D02*
X0039493Y0339757D01*
X0039493Y0340356D02*
X0213743Y0340356D01*
X0213317Y0340954D02*
X0039492Y0340954D01*
X0039492Y0341553D02*
X0213069Y0341553D01*
X0217979Y0339159D02*
X0245700Y0339159D01*
X0245146Y0339757D02*
X0219149Y0339757D01*
X0219747Y0340356D02*
X0244898Y0340356D01*
X0244650Y0340954D02*
X0220173Y0340954D01*
X0220421Y0341553D02*
X0244584Y0341553D01*
X0244584Y0342151D02*
X0220645Y0342151D01*
X0220645Y0342750D02*
X0244619Y0342750D01*
X0244867Y0343348D02*
X0220645Y0343348D01*
X0220520Y0343947D02*
X0245115Y0343947D01*
X0245625Y0344545D02*
X0220272Y0344545D01*
X0219986Y0345144D02*
X0246223Y0345144D01*
X0231335Y0349334D02*
X0099157Y0349334D01*
X0100178Y0348735D02*
X0230736Y0348735D01*
X0230633Y0348137D02*
X0100776Y0348137D01*
X0101141Y0347538D02*
X0230633Y0347538D01*
X0183974Y0382252D02*
X0181791Y0382252D01*
X0181192Y0382850D02*
X0183375Y0382850D01*
X0137239Y0313423D02*
X0081858Y0313423D01*
X0082106Y0312824D02*
X0136640Y0312824D01*
X0136392Y0312226D02*
X0082246Y0312226D01*
X0082246Y0311627D02*
X0136171Y0311627D01*
X0136171Y0311029D02*
X0082246Y0311029D01*
X0082038Y0310430D02*
X0136186Y0310430D01*
X0136433Y0309832D02*
X0081790Y0309832D01*
X0081387Y0309233D02*
X0136740Y0309233D01*
X0137339Y0308635D02*
X0080788Y0308635D01*
X0079672Y0308036D02*
X0138546Y0308036D01*
X0140621Y0303847D02*
X0147883Y0303847D01*
X0147064Y0303248D02*
X0141440Y0303248D01*
X0141936Y0302650D02*
X0146568Y0302650D01*
X0146320Y0302051D02*
X0142184Y0302051D01*
X0142333Y0301453D02*
X0146171Y0301453D01*
X0146171Y0300854D02*
X0142333Y0300854D01*
X0142246Y0300256D02*
X0146258Y0300256D01*
X0146506Y0299657D02*
X0141998Y0299657D01*
X0141589Y0299059D02*
X0146915Y0299059D01*
X0147523Y0298460D02*
X0140981Y0298460D01*
X0141016Y0293672D02*
X0147488Y0293672D01*
X0146889Y0293074D02*
X0141615Y0293074D01*
X0142009Y0292475D02*
X0146495Y0292475D01*
X0146247Y0291877D02*
X0142256Y0291877D01*
X0142333Y0291278D02*
X0146171Y0291278D01*
X0146171Y0290679D02*
X0142333Y0290679D01*
X0142174Y0290081D02*
X0146330Y0290081D01*
X0146578Y0289482D02*
X0141926Y0289482D01*
X0141415Y0288884D02*
X0147089Y0288884D01*
X0147944Y0288285D02*
X0140560Y0288285D01*
X0136578Y0289482D02*
X0039501Y0289482D01*
X0039501Y0290081D02*
X0136330Y0290081D01*
X0136171Y0290679D02*
X0039501Y0290679D01*
X0039500Y0291278D02*
X0136171Y0291278D01*
X0136247Y0291877D02*
X0039500Y0291877D01*
X0039500Y0292475D02*
X0136495Y0292475D01*
X0136889Y0293074D02*
X0039500Y0293074D01*
X0039500Y0293672D02*
X0137488Y0293672D01*
X0151016Y0293672D02*
X0167081Y0293672D01*
X0166922Y0294271D02*
X0039500Y0294271D01*
X0039500Y0294869D02*
X0166922Y0294869D01*
X0166922Y0295468D02*
X0039500Y0295468D01*
X0039500Y0296066D02*
X0167260Y0296066D01*
X0167679Y0293074D02*
X0151615Y0293074D01*
X0103978Y0299059D02*
X0039499Y0299059D01*
X0039499Y0299657D02*
X0103379Y0299657D01*
X0103182Y0300256D02*
X0039499Y0300256D01*
X0039499Y0300854D02*
X0103182Y0300854D01*
X0103182Y0301453D02*
X0039499Y0301453D01*
X0039499Y0302051D02*
X0103481Y0302051D01*
X0086113Y0342151D02*
X0039492Y0342151D01*
X0039492Y0342750D02*
X0085132Y0342750D01*
X0084534Y0343348D02*
X0039492Y0343348D01*
X0039492Y0343947D02*
X0084186Y0343947D01*
X0083938Y0344545D02*
X0039492Y0344545D01*
X0039492Y0345144D02*
X0083769Y0345144D01*
X0083769Y0345743D02*
X0039492Y0345743D01*
X0039492Y0346341D02*
X0083769Y0346341D01*
X0083950Y0346940D02*
X0039492Y0346940D01*
X0039491Y0347538D02*
X0084198Y0347538D01*
X0084562Y0348137D02*
X0039491Y0348137D01*
X0039491Y0348735D02*
X0085161Y0348735D01*
X0056453Y0255367D02*
X0193411Y0255367D01*
X0193143Y0254769D02*
X0057495Y0254769D01*
X0058093Y0254170D02*
X0193143Y0254170D01*
X0193143Y0253572D02*
X0058466Y0253572D01*
X0058714Y0252973D02*
X0193370Y0252973D01*
X0193969Y0252375D02*
X0058900Y0252375D01*
X0072001Y0140453D02*
X0039525Y0140453D01*
X0039525Y0139855D02*
X0071403Y0139855D01*
X0070804Y0139256D02*
X0039525Y0139256D01*
X0039525Y0138658D02*
X0070702Y0138658D01*
X0070702Y0138059D02*
X0039525Y0138059D01*
X0039525Y0137461D02*
X0070702Y0137461D01*
X0071095Y0136862D02*
X0039525Y0136862D01*
X0039525Y0136264D02*
X0071694Y0136264D01*
X0060809Y0129081D02*
X0487470Y0129081D01*
X0487470Y0128483D02*
X0060210Y0128483D01*
X0039526Y0132672D02*
X0169764Y0132672D01*
X0169569Y0133271D02*
X0039526Y0133271D01*
X0039526Y0133870D02*
X0169569Y0133870D01*
X0169569Y0134468D02*
X0039526Y0134468D01*
X0039526Y0135067D02*
X0169722Y0135067D01*
X0169969Y0135665D02*
X0039526Y0135665D01*
X0039532Y0097360D02*
X0346406Y0097360D01*
X0345731Y0096762D02*
X0039532Y0096762D01*
X0039532Y0096163D02*
X0345159Y0096163D01*
X0344911Y0095565D02*
X0039532Y0095565D01*
X0039532Y0094966D02*
X0344663Y0094966D01*
X0344584Y0094368D02*
X0039532Y0094368D01*
X0039532Y0093769D02*
X0344584Y0093769D01*
X0344606Y0093171D02*
X0039532Y0093171D01*
X0039532Y0092572D02*
X0344854Y0092572D01*
X0345102Y0091974D02*
X0039533Y0091974D01*
X0039533Y0091375D02*
X0345594Y0091375D01*
X0346192Y0090777D02*
X0039533Y0090777D01*
X0039533Y0090178D02*
X0347520Y0090178D01*
X0349449Y0090178D02*
X0416317Y0090178D01*
X0416317Y0089580D02*
X0039533Y0089580D01*
X0039533Y0088981D02*
X0416317Y0088981D01*
X0416484Y0088383D02*
X0039533Y0088383D01*
X0039533Y0087784D02*
X0416732Y0087784D01*
X0417078Y0087186D02*
X0039533Y0087186D01*
X0039533Y0086587D02*
X0417677Y0086587D01*
X0418655Y0085989D02*
X0381666Y0085989D01*
X0379279Y0085989D02*
X0371627Y0085989D01*
X0371344Y0086271D02*
X0369522Y0086271D01*
X0368233Y0084982D01*
X0368233Y0083160D01*
X0369522Y0081871D01*
X0371344Y0081871D01*
X0372633Y0083160D01*
X0372633Y0084982D01*
X0371344Y0086271D01*
X0372225Y0085390D02*
X0378680Y0085390D01*
X0378272Y0084792D02*
X0372633Y0084792D01*
X0372633Y0084193D02*
X0378272Y0084193D01*
X0378272Y0083595D02*
X0372633Y0083595D01*
X0372470Y0082996D02*
X0378436Y0082996D01*
X0379034Y0082398D02*
X0371871Y0082398D01*
X0368995Y0082398D02*
X0039534Y0082398D01*
X0039534Y0082996D02*
X0368397Y0082996D01*
X0368233Y0083595D02*
X0039534Y0083595D01*
X0039534Y0084193D02*
X0368233Y0084193D01*
X0368233Y0084792D02*
X0039534Y0084792D01*
X0039534Y0085390D02*
X0368641Y0085390D01*
X0369240Y0085989D02*
X0039534Y0085989D01*
X0039542Y0031524D02*
X0058105Y0031524D01*
X0057134Y0030926D02*
X0039542Y0030926D01*
X0039542Y0030327D02*
X0056535Y0030327D01*
X0055937Y0029729D02*
X0039543Y0029729D01*
X0039543Y0029130D02*
X0055564Y0029130D01*
X0055316Y0028532D02*
X0039543Y0028532D01*
X0039543Y0027933D02*
X0055068Y0027933D01*
X0054820Y0027334D02*
X0039543Y0027334D01*
X0039543Y0026736D02*
X0054779Y0026736D01*
X0054779Y0026137D02*
X0039543Y0026137D01*
X0039543Y0025539D02*
X0054779Y0025539D01*
X0054779Y0024940D02*
X0039543Y0024940D01*
X0039543Y0024342D02*
X0054954Y0024342D01*
X0055202Y0023743D02*
X0039544Y0023743D01*
X0039544Y0023145D02*
X0055450Y0023145D01*
X0055698Y0022546D02*
X0039544Y0022546D01*
X0039544Y0021948D02*
X0056260Y0021948D01*
X0056859Y0021349D02*
X0039544Y0021349D01*
X0039544Y0020751D02*
X0057457Y0020751D01*
X0058886Y0020152D02*
X0039544Y0020152D01*
X0125807Y0114119D02*
X0487471Y0114119D01*
X0487471Y0114717D02*
X0126405Y0114717D01*
X0126739Y0115316D02*
X0487471Y0115316D01*
X0487471Y0115914D02*
X0126739Y0115914D01*
X0259139Y0181152D02*
X0302617Y0181152D01*
X0302018Y0181750D02*
X0259738Y0181750D01*
X0260086Y0182349D02*
X0301717Y0182349D01*
X0301717Y0182947D02*
X0260086Y0182947D01*
X0260086Y0183546D02*
X0301717Y0183546D01*
X0301913Y0184144D02*
X0259937Y0184144D01*
X0323518Y0124293D02*
X0487470Y0124293D01*
X0487470Y0123695D02*
X0324494Y0123695D01*
X0351810Y0096163D02*
X0395674Y0096163D01*
X0395076Y0095565D02*
X0352057Y0095565D01*
X0352305Y0094966D02*
X0394477Y0094966D01*
X0394414Y0094368D02*
X0352384Y0094368D01*
X0352384Y0093769D02*
X0394414Y0093769D01*
X0394414Y0093171D02*
X0352362Y0093171D01*
X0352114Y0092572D02*
X0394923Y0092572D01*
X0395521Y0091974D02*
X0351866Y0091974D01*
X0351375Y0091375D02*
X0416746Y0091375D01*
X0416498Y0090777D02*
X0350776Y0090777D01*
X0371549Y0077011D02*
X0379553Y0077011D01*
X0378955Y0076412D02*
X0372148Y0076412D01*
X0372633Y0075814D02*
X0378469Y0075814D01*
X0378469Y0075215D02*
X0372633Y0075215D01*
X0372633Y0074617D02*
X0378469Y0074617D01*
X0378555Y0074018D02*
X0372547Y0074018D01*
X0371948Y0073420D02*
X0379154Y0073420D01*
X0379752Y0072821D02*
X0371350Y0072821D01*
X0397707Y0091974D02*
X0417112Y0091974D01*
X0417710Y0092572D02*
X0398306Y0092572D01*
X0411971Y0034517D02*
X0272827Y0034517D01*
X0273522Y0033918D02*
X0411954Y0033918D01*
X0411954Y0033320D02*
X0274103Y0033320D01*
X0274351Y0032721D02*
X0411992Y0032721D01*
X0341672Y0004591D02*
X0487484Y0004591D01*
X0487476Y0071026D02*
X0284040Y0071026D01*
X0283311Y0071624D02*
X0487476Y0071624D01*
D14*
X0414054Y0033629D03*
X0365562Y0050307D03*
X0355670Y0050053D03*
X0348484Y0068701D03*
X0348976Y0230724D03*
X0351142Y0233283D03*
X0353307Y0230921D03*
X0356260Y0233874D03*
X0359409Y0233874D03*
X0362559Y0233874D03*
X0362559Y0230724D03*
X0365709Y0230724D03*
X0365709Y0233874D03*
X0365709Y0240173D03*
X0365709Y0248244D03*
X0362559Y0248244D03*
X0359409Y0248244D03*
X0356260Y0248244D03*
X0350354Y0244307D03*
X0347992Y0242339D03*
X0347795Y0239189D03*
X0350354Y0236827D03*
X0347992Y0234268D03*
X0355669Y0238795D03*
X0347598Y0247654D03*
D15*
X0337559Y0248047D03*
X0332047Y0239780D03*
X0332047Y0236039D03*
X0319449Y0223638D03*
X0316890Y0221079D03*
X0336969Y0216551D03*
X0327520Y0200016D03*
X0325787Y0195961D03*
X0328307Y0191551D03*
X0332638Y0189976D03*
X0304008Y0183000D03*
X0257795Y0183047D03*
X0257717Y0164504D03*
X0199764Y0170882D03*
X0190906Y0172654D03*
X0176339Y0166748D03*
X0129213Y0141000D03*
X0124449Y0116000D03*
X0072992Y0138205D03*
X0058740Y0130252D03*
X0114528Y0221079D03*
X0195433Y0254150D03*
X0169213Y0294780D03*
X0105472Y0300803D03*
X0180079Y0380724D03*
X0179685Y0384858D03*
X0185000Y0384465D03*
X0153504Y0384661D03*
X0315945Y0273598D03*
X0329882Y0264780D03*
X0333346Y0270843D03*
X0345906Y0277299D03*
X0367480Y0286236D03*
X0377323Y0289386D03*
X0376142Y0293520D03*
X0376535Y0297457D03*
X0391299Y0299819D03*
X0394449Y0302378D03*
X0393465Y0306118D03*
X0393268Y0311433D03*
X0405866Y0325606D03*
X0404882Y0334661D03*
X0404882Y0338795D03*
X0416496Y0338992D03*
X0416496Y0342732D03*
X0416496Y0346472D03*
X0391496Y0343913D03*
X0391496Y0339976D03*
X0384016Y0331709D03*
X0379291Y0337220D03*
X0415512Y0313795D03*
X0415512Y0310055D03*
X0413346Y0306709D03*
X0415709Y0303362D03*
X0417283Y0285646D03*
X0419449Y0275409D03*
X0428701Y0271866D03*
X0419646Y0265173D03*
X0407441Y0262614D03*
X0407638Y0269307D03*
X0374961Y0241354D03*
X0381654Y0222063D03*
X0362165Y0222457D03*
X0373976Y0204346D03*
X0412953Y0203677D03*
X0420433Y0204740D03*
X0428701Y0208087D03*
X0425354Y0195567D03*
X0343858Y0258874D03*
D16*
X0358228Y0241551D03*
X0383425Y0241354D03*
X0385787Y0221866D03*
X0390315Y0222260D03*
X0404291Y0223244D03*
X0404291Y0219307D03*
X0404291Y0215370D03*
X0409606Y0216748D03*
X0412756Y0207890D03*
X0370630Y0215961D03*
X0371024Y0219307D03*
X0365118Y0214386D03*
X0367087Y0206906D03*
X0358819Y0205528D03*
X0352520Y0205528D03*
X0339134Y0208874D03*
X0324685Y0218598D03*
X0321260Y0215528D03*
X0305276Y0219307D03*
X0303110Y0232496D03*
X0302520Y0188992D03*
X0311181Y0183677D03*
X0311378Y0179543D03*
X0316890Y0179543D03*
X0316890Y0183677D03*
X0332835Y0177102D03*
X0324173Y0168520D03*
X0298189Y0178362D03*
X0358819Y0220882D03*
X0399173Y0256709D03*
X0402717Y0255724D03*
X0399173Y0262417D03*
X0399173Y0269307D03*
X0232833Y0347721D03*
X0340118Y0120488D03*
X0370433Y0084071D03*
X0380472Y0084071D03*
X0380669Y0075016D03*
X0370433Y0075016D03*
X0396614Y0093992D03*
D17*
X0363740Y0115173D03*
X0363740Y0123244D03*
X0353898Y0123441D03*
X0353898Y0115370D03*
X0355079Y0144504D03*
X0355079Y0152575D03*
X0364921Y0152378D03*
X0364921Y0144307D03*
X0363937Y0170291D03*
X0355866Y0170291D03*
X0356063Y0180134D03*
X0364134Y0180134D03*
X0433819Y0124819D03*
X0441890Y0124819D03*
X0441693Y0114976D03*
X0433622Y0114976D03*
X0459213Y0116157D03*
X0459213Y0124228D03*
X0469055Y0124031D03*
X0469055Y0115961D03*
X0468661Y0144701D03*
X0477717Y0144701D03*
X0477717Y0155724D03*
X0468661Y0155724D03*
X0458819Y0155921D03*
X0468661Y0166157D03*
X0477717Y0166157D03*
X0477717Y0175606D03*
X0477717Y0183677D03*
X0468661Y0183677D03*
X0468661Y0175606D03*
X0458819Y0175803D03*
X0458819Y0183874D03*
X0458819Y0195094D03*
X0468661Y0195094D03*
X0477913Y0195291D03*
X0477913Y0206315D03*
X0468661Y0206118D03*
X0458819Y0206118D03*
X0458819Y0216551D03*
X0468661Y0216551D03*
X0477913Y0216748D03*
X0477913Y0226197D03*
X0477913Y0234268D03*
X0468661Y0234071D03*
X0468661Y0226000D03*
X0458819Y0226000D03*
X0458819Y0234071D03*
X0458819Y0166354D03*
X0458819Y0144898D03*
X0316890Y0054543D03*
X0308819Y0054543D03*
X0309016Y0045291D03*
X0317087Y0045291D03*
X0316693Y0031512D03*
X0308622Y0031512D03*
X0308819Y0022260D03*
X0316890Y0022260D03*
X0296811Y0022260D03*
X0288740Y0022260D03*
X0288543Y0031512D03*
X0296614Y0031512D03*
X0296811Y0045488D03*
X0288740Y0045488D03*
X0288543Y0054740D03*
X0296614Y0054740D03*
X0304488Y0066748D03*
X0312559Y0066748D03*
X0312362Y0076000D03*
X0304291Y0076000D03*
X0304094Y0090567D03*
X0312165Y0090567D03*
X0311969Y0099819D03*
X0303898Y0099819D03*
X0198976Y0193126D03*
X0190906Y0193126D03*
X0181457Y0193126D03*
X0171024Y0193126D03*
X0160000Y0193126D03*
X0160000Y0202181D03*
X0160197Y0212024D03*
X0171220Y0212024D03*
X0171024Y0202181D03*
X0181457Y0202181D03*
X0190906Y0202181D03*
X0198976Y0202181D03*
X0199173Y0212024D03*
X0191102Y0212024D03*
X0181654Y0212024D03*
X0210394Y0212024D03*
X0210394Y0202181D03*
X0221417Y0202181D03*
X0221417Y0212024D03*
X0231850Y0212024D03*
X0241299Y0212024D03*
X0249370Y0212024D03*
X0249370Y0202181D03*
X0241299Y0202181D03*
X0231850Y0202181D03*
X0185787Y0264780D03*
X0177717Y0264780D03*
X0177520Y0274031D03*
X0185591Y0274031D03*
X0185984Y0301591D03*
X0177913Y0301591D03*
X0177717Y0310843D03*
X0185787Y0310843D03*
X0168268Y0327181D03*
X0229685Y0278756D03*
X0229685Y0269701D03*
X0240118Y0269701D03*
X0240118Y0278756D03*
X0249567Y0278756D03*
X0257638Y0278756D03*
X0257638Y0269701D03*
X0249567Y0269701D03*
X0249764Y0288598D03*
X0257835Y0288598D03*
X0269055Y0288598D03*
X0269055Y0278756D03*
X0269252Y0269504D03*
X0280276Y0269504D03*
X0280079Y0278756D03*
X0280079Y0288598D03*
X0290512Y0288598D03*
X0299961Y0288598D03*
X0308031Y0288598D03*
X0308031Y0278756D03*
X0299961Y0278756D03*
X0290512Y0278756D03*
X0290709Y0269504D03*
X0300157Y0269504D03*
X0308228Y0269504D03*
X0310591Y0304150D03*
X0300157Y0304150D03*
X0290709Y0304150D03*
X0282638Y0304150D03*
X0282835Y0313992D03*
X0290906Y0313992D03*
X0290906Y0323047D03*
X0282835Y0323047D03*
X0285000Y0335646D03*
X0276929Y0335646D03*
X0276929Y0345488D03*
X0285000Y0345488D03*
X0284803Y0354740D03*
X0276732Y0354740D03*
X0276535Y0364386D03*
X0284606Y0364386D03*
X0294055Y0364386D03*
X0294055Y0374228D03*
X0293858Y0383480D03*
X0284409Y0383480D03*
X0276339Y0383480D03*
X0276535Y0374228D03*
X0284606Y0374228D03*
X0294252Y0354740D03*
X0294449Y0345488D03*
X0294449Y0335646D03*
X0300354Y0323047D03*
X0300354Y0313992D03*
X0310787Y0313992D03*
X0310787Y0323047D03*
X0321811Y0323047D03*
X0321811Y0313992D03*
X0321614Y0304150D03*
X0218661Y0269701D03*
X0054488Y0284268D03*
X0054488Y0294110D03*
X0046417Y0294110D03*
X0046220Y0303362D03*
X0087165Y0114780D03*
X0096417Y0114976D03*
X0096417Y0106906D03*
X0087165Y0106709D03*
X0088937Y0095882D03*
X0097008Y0095882D03*
X0096811Y0086039D03*
X0088740Y0086039D03*
X0088740Y0076984D03*
X0096811Y0076984D03*
X0079291Y0076984D03*
X0079291Y0086039D03*
X0079488Y0095882D03*
X0069055Y0095882D03*
X0068858Y0086039D03*
X0068858Y0076984D03*
X0057835Y0076984D03*
X0057835Y0086039D03*
X0058031Y0095882D03*
X0108228Y0095882D03*
M02*
